%TF.GenerationSoftware,KiCad,Pcbnew,(5.1.10-1-10_14)*%
%TF.CreationDate,2021-09-26T18:03:54+08:00*%
%TF.ProjectId,k34,6b33342e-6b69-4636-9164-5f7063625858,rev?*%
%TF.SameCoordinates,Original*%
%TF.FileFunction,Soldermask,Bot*%
%TF.FilePolarity,Negative*%
%FSLAX46Y46*%
G04 Gerber Fmt 4.6, Leading zero omitted, Abs format (unit mm)*
G04 Created by KiCad (PCBNEW (5.1.10-1-10_14)) date 2021-09-26 18:03:54*
%MOMM*%
%LPD*%
G01*
G04 APERTURE LIST*
%ADD10C,2.200000*%
%ADD11C,0.100000*%
%ADD12C,3.000000*%
%ADD13C,3.987800*%
%ADD14C,1.750000*%
%ADD15C,1.752600*%
G04 APERTURE END LIST*
D10*
%TO.C,right_screw*%
X234950000Y-52070000D03*
%TD*%
%TO.C,right_screw_bot*%
X184531000Y-117856000D03*
%TD*%
%TO.C,left_screw_bot*%
X94615000Y-117856000D03*
%TD*%
%TO.C,left_screw*%
X43815000Y-51943000D03*
%TD*%
D11*
%TO.C,D1*%
G36*
X34184528Y-44871311D02*
G01*
X34526548Y-43931619D01*
X35466240Y-44273639D01*
X35124220Y-45213331D01*
X34184528Y-44871311D01*
G37*
G36*
X36533760Y-45726361D02*
G01*
X36875780Y-44786669D01*
X37815472Y-45128689D01*
X37473452Y-46068381D01*
X36533760Y-45726361D01*
G37*
%TD*%
%TO.C,D2*%
G36*
X55505873Y-41989868D02*
G01*
X55847893Y-41050176D01*
X56787585Y-41392196D01*
X56445565Y-42331888D01*
X55505873Y-41989868D01*
G37*
G36*
X57855105Y-42844918D02*
G01*
X58197125Y-41905226D01*
X59136817Y-42247246D01*
X58794797Y-43186938D01*
X57855105Y-42844918D01*
G37*
%TD*%
%TO.C,D3*%
G36*
X74775098Y-44746581D02*
G01*
X75117118Y-43806889D01*
X76056810Y-44148909D01*
X75714790Y-45088601D01*
X74775098Y-44746581D01*
G37*
G36*
X77124330Y-45601631D02*
G01*
X77466350Y-44661939D01*
X78406042Y-45003959D01*
X78064022Y-45943651D01*
X77124330Y-45601631D01*
G37*
%TD*%
%TO.C,D4*%
G36*
X90624122Y-56900221D02*
G01*
X90966142Y-55960529D01*
X91905834Y-56302549D01*
X91563814Y-57242241D01*
X90624122Y-56900221D01*
G37*
G36*
X92973354Y-57755271D02*
G01*
X93315374Y-56815579D01*
X94255066Y-57157599D01*
X93913046Y-58097291D01*
X92973354Y-57755271D01*
G37*
%TD*%
%TO.C,D5*%
G36*
X107157186Y-67174475D02*
G01*
X107499206Y-66234783D01*
X108438898Y-66576803D01*
X108096878Y-67516495D01*
X107157186Y-67174475D01*
G37*
G36*
X109506418Y-68029525D02*
G01*
X109848438Y-67089833D01*
X110788130Y-67431853D01*
X110446110Y-68371545D01*
X109506418Y-68029525D01*
G37*
%TD*%
%TO.C,D6*%
G36*
X171611093Y-66234783D02*
G01*
X171953113Y-67174475D01*
X171013421Y-67516495D01*
X170671401Y-66576803D01*
X171611093Y-66234783D01*
G37*
G36*
X169261861Y-67089833D02*
G01*
X169603881Y-68029525D01*
X168664189Y-68371545D01*
X168322169Y-67431853D01*
X169261861Y-67089833D01*
G37*
%TD*%
%TO.C,D7*%
G36*
X188144157Y-55960529D02*
G01*
X188486177Y-56900221D01*
X187546485Y-57242241D01*
X187204465Y-56302549D01*
X188144157Y-55960529D01*
G37*
G36*
X185794925Y-56815579D02*
G01*
X186136945Y-57755271D01*
X185197253Y-58097291D01*
X184855233Y-57157599D01*
X185794925Y-56815579D01*
G37*
%TD*%
%TO.C,D8*%
G36*
X203993180Y-43806889D02*
G01*
X204335200Y-44746581D01*
X203395508Y-45088601D01*
X203053488Y-44148909D01*
X203993180Y-43806889D01*
G37*
G36*
X201643948Y-44661939D02*
G01*
X201985968Y-45601631D01*
X201046276Y-45943651D01*
X200704256Y-45003959D01*
X201643948Y-44661939D01*
G37*
%TD*%
%TO.C,D9*%
G36*
X223262405Y-41050176D02*
G01*
X223604425Y-41989868D01*
X222664733Y-42331888D01*
X222322713Y-41392196D01*
X223262405Y-41050176D01*
G37*
G36*
X220913173Y-41905226D02*
G01*
X221255193Y-42844918D01*
X220315501Y-43186938D01*
X219973481Y-42247246D01*
X220913173Y-41905226D01*
G37*
%TD*%
%TO.C,D10*%
G36*
X244583751Y-43931619D02*
G01*
X244925771Y-44871311D01*
X243986079Y-45213331D01*
X243644059Y-44273639D01*
X244583751Y-43931619D01*
G37*
G36*
X242234519Y-44786669D02*
G01*
X242576539Y-45726361D01*
X241636847Y-46068381D01*
X241294827Y-45128689D01*
X242234519Y-44786669D01*
G37*
%TD*%
%TO.C,D11*%
G36*
X27669044Y-62772455D02*
G01*
X28011064Y-61832763D01*
X28950756Y-62174783D01*
X28608736Y-63114475D01*
X27669044Y-62772455D01*
G37*
G36*
X30018276Y-63627505D02*
G01*
X30360296Y-62687813D01*
X31299988Y-63029833D01*
X30957968Y-63969525D01*
X30018276Y-63627505D01*
G37*
%TD*%
%TO.C,D12*%
G36*
X48990390Y-59891012D02*
G01*
X49332410Y-58951320D01*
X50272102Y-59293340D01*
X49930082Y-60233032D01*
X48990390Y-59891012D01*
G37*
G36*
X51339622Y-60746062D02*
G01*
X51681642Y-59806370D01*
X52621334Y-60148390D01*
X52279314Y-61088082D01*
X51339622Y-60746062D01*
G37*
%TD*%
%TO.C,D13*%
G36*
X68259615Y-62647726D02*
G01*
X68601635Y-61708034D01*
X69541327Y-62050054D01*
X69199307Y-62989746D01*
X68259615Y-62647726D01*
G37*
G36*
X70608847Y-63502776D02*
G01*
X70950867Y-62563084D01*
X71890559Y-62905104D01*
X71548539Y-63844796D01*
X70608847Y-63502776D01*
G37*
%TD*%
%TO.C,D14*%
G36*
X84108638Y-74801365D02*
G01*
X84450658Y-73861673D01*
X85390350Y-74203693D01*
X85048330Y-75143385D01*
X84108638Y-74801365D01*
G37*
G36*
X86457870Y-75656415D02*
G01*
X86799890Y-74716723D01*
X87739582Y-75058743D01*
X87397562Y-75998435D01*
X86457870Y-75656415D01*
G37*
%TD*%
%TO.C,D15*%
G36*
X100641702Y-85075619D02*
G01*
X100983722Y-84135927D01*
X101923414Y-84477947D01*
X101581394Y-85417639D01*
X100641702Y-85075619D01*
G37*
G36*
X102990934Y-85930669D02*
G01*
X103332954Y-84990977D01*
X104272646Y-85332997D01*
X103930626Y-86272689D01*
X102990934Y-85930669D01*
G37*
%TD*%
%TO.C,D16*%
G36*
X178126577Y-84135927D02*
G01*
X178468597Y-85075619D01*
X177528905Y-85417639D01*
X177186885Y-84477947D01*
X178126577Y-84135927D01*
G37*
G36*
X175777345Y-84990977D02*
G01*
X176119365Y-85930669D01*
X175179673Y-86272689D01*
X174837653Y-85332997D01*
X175777345Y-84990977D01*
G37*
%TD*%
%TO.C,D17*%
G36*
X194659641Y-73861673D02*
G01*
X195001661Y-74801365D01*
X194061969Y-75143385D01*
X193719949Y-74203693D01*
X194659641Y-73861673D01*
G37*
G36*
X192310409Y-74716723D02*
G01*
X192652429Y-75656415D01*
X191712737Y-75998435D01*
X191370717Y-75058743D01*
X192310409Y-74716723D01*
G37*
%TD*%
%TO.C,D18*%
G36*
X208159432Y-62563084D02*
G01*
X208501452Y-63502776D01*
X207561760Y-63844796D01*
X207219740Y-62905104D01*
X208159432Y-62563084D01*
G37*
G36*
X210508664Y-61708034D02*
G01*
X210850684Y-62647726D01*
X209910992Y-62989746D01*
X209568972Y-62050054D01*
X210508664Y-61708034D01*
G37*
%TD*%
%TO.C,D19*%
G36*
X227428657Y-59806370D02*
G01*
X227770677Y-60746062D01*
X226830985Y-61088082D01*
X226488965Y-60148390D01*
X227428657Y-59806370D01*
G37*
G36*
X229777889Y-58951320D02*
G01*
X230119909Y-59891012D01*
X229180217Y-60233032D01*
X228838197Y-59293340D01*
X229777889Y-58951320D01*
G37*
%TD*%
%TO.C,D20*%
G36*
X248750003Y-62687813D02*
G01*
X249092023Y-63627505D01*
X248152331Y-63969525D01*
X247810311Y-63029833D01*
X248750003Y-62687813D01*
G37*
G36*
X251099235Y-61832763D02*
G01*
X251441255Y-62772455D01*
X250501563Y-63114475D01*
X250159543Y-62174783D01*
X251099235Y-61832763D01*
G37*
%TD*%
%TO.C,D21*%
G36*
X23502792Y-81528649D02*
G01*
X23844812Y-80588957D01*
X24784504Y-80930977D01*
X24442484Y-81870669D01*
X23502792Y-81528649D01*
G37*
G36*
X21153560Y-80673599D02*
G01*
X21495580Y-79733907D01*
X22435272Y-80075927D01*
X22093252Y-81015619D01*
X21153560Y-80673599D01*
G37*
%TD*%
%TO.C,D22*%
G36*
X44824138Y-78647207D02*
G01*
X45166158Y-77707515D01*
X46105850Y-78049535D01*
X45763830Y-78989227D01*
X44824138Y-78647207D01*
G37*
G36*
X42474906Y-77792157D02*
G01*
X42816926Y-76852465D01*
X43756618Y-77194485D01*
X43414598Y-78134177D01*
X42474906Y-77792157D01*
G37*
%TD*%
%TO.C,D23*%
G36*
X64093363Y-81403920D02*
G01*
X64435383Y-80464228D01*
X65375075Y-80806248D01*
X65033055Y-81745940D01*
X64093363Y-81403920D01*
G37*
G36*
X61744131Y-80548870D02*
G01*
X62086151Y-79609178D01*
X63025843Y-79951198D01*
X62683823Y-80890890D01*
X61744131Y-80548870D01*
G37*
%TD*%
%TO.C,D24*%
G36*
X79942386Y-93557560D02*
G01*
X80284406Y-92617868D01*
X81224098Y-92959888D01*
X80882078Y-93899580D01*
X79942386Y-93557560D01*
G37*
G36*
X77593154Y-92702510D02*
G01*
X77935174Y-91762818D01*
X78874866Y-92104838D01*
X78532846Y-93044530D01*
X77593154Y-92702510D01*
G37*
%TD*%
%TO.C,D25*%
G36*
X96475450Y-103831814D02*
G01*
X96817470Y-102892122D01*
X97757162Y-103234142D01*
X97415142Y-104173834D01*
X96475450Y-103831814D01*
G37*
G36*
X94126218Y-102976764D02*
G01*
X94468238Y-102037072D01*
X95407930Y-102379092D01*
X95065910Y-103318784D01*
X94126218Y-102976764D01*
G37*
%TD*%
%TO.C,D26*%
G36*
X182292829Y-102892122D02*
G01*
X182634849Y-103831814D01*
X181695157Y-104173834D01*
X181353137Y-103234142D01*
X182292829Y-102892122D01*
G37*
G36*
X184642061Y-102037072D02*
G01*
X184984081Y-102976764D01*
X184044389Y-103318784D01*
X183702369Y-102379092D01*
X184642061Y-102037072D01*
G37*
%TD*%
%TO.C,D27*%
G36*
X198825892Y-92617868D02*
G01*
X199167912Y-93557560D01*
X198228220Y-93899580D01*
X197886200Y-92959888D01*
X198825892Y-92617868D01*
G37*
G36*
X201175124Y-91762818D02*
G01*
X201517144Y-92702510D01*
X200577452Y-93044530D01*
X200235432Y-92104838D01*
X201175124Y-91762818D01*
G37*
%TD*%
%TO.C,D28*%
G36*
X214674916Y-80464228D02*
G01*
X215016936Y-81403920D01*
X214077244Y-81745940D01*
X213735224Y-80806248D01*
X214674916Y-80464228D01*
G37*
G36*
X217024148Y-79609178D02*
G01*
X217366168Y-80548870D01*
X216426476Y-80890890D01*
X216084456Y-79951198D01*
X217024148Y-79609178D01*
G37*
%TD*%
%TO.C,D29*%
G36*
X233944141Y-77707515D02*
G01*
X234286161Y-78647207D01*
X233346469Y-78989227D01*
X233004449Y-78049535D01*
X233944141Y-77707515D01*
G37*
G36*
X236293373Y-76852465D02*
G01*
X236635393Y-77792157D01*
X235695701Y-78134177D01*
X235353681Y-77194485D01*
X236293373Y-76852465D01*
G37*
%TD*%
%TO.C,D30*%
G36*
X255265487Y-80588957D02*
G01*
X255607507Y-81528649D01*
X254667815Y-81870669D01*
X254325795Y-80930977D01*
X255265487Y-80588957D01*
G37*
G36*
X257614719Y-79733907D02*
G01*
X257956739Y-80673599D01*
X257017047Y-81015619D01*
X256675027Y-80075927D01*
X257614719Y-79733907D01*
G37*
%TD*%
%TO.C,D31*%
G36*
X79641314Y-122233987D02*
G01*
X79983334Y-121294295D01*
X80923026Y-121636315D01*
X80581006Y-122576007D01*
X79641314Y-122233987D01*
G37*
G36*
X77292082Y-121378937D02*
G01*
X77634102Y-120439245D01*
X78573794Y-120781265D01*
X78231774Y-121720957D01*
X77292082Y-121378937D01*
G37*
%TD*%
%TO.C,D32*%
G36*
X95620028Y-131211143D02*
G01*
X96262816Y-130445099D01*
X97028860Y-131087887D01*
X96386072Y-131853931D01*
X95620028Y-131211143D01*
G37*
G36*
X97535140Y-132818113D02*
G01*
X98177928Y-132052069D01*
X98943972Y-132694857D01*
X98301184Y-133460901D01*
X97535140Y-132818113D01*
G37*
%TD*%
%TO.C,D33*%
G36*
X181076685Y-132879882D02*
G01*
X180433897Y-132113838D01*
X181199941Y-131471050D01*
X181842729Y-132237094D01*
X181076685Y-132879882D01*
G37*
G36*
X179161573Y-134486852D02*
G01*
X178518785Y-133720808D01*
X179284829Y-133078020D01*
X179927617Y-133844064D01*
X179161573Y-134486852D01*
G37*
%TD*%
%TO.C,D34*%
G36*
X199249780Y-122260331D02*
G01*
X198907760Y-121320639D01*
X199847452Y-120978619D01*
X200189472Y-121918311D01*
X199249780Y-122260331D01*
G37*
G36*
X196900548Y-123115381D02*
G01*
X196558528Y-122175689D01*
X197498220Y-121833669D01*
X197840240Y-122773361D01*
X196900548Y-123115381D01*
G37*
%TD*%
D12*
%TO.C,MX1*%
X43124282Y-36095093D03*
D13*
X39000000Y-40000000D03*
D12*
X36288502Y-36310084D03*
D14*
X34226361Y-38262538D03*
X43773639Y-41737462D03*
D11*
G36*
X31585376Y-35928508D02*
G01*
X32440426Y-33579277D01*
X34836642Y-34451428D01*
X33981592Y-36800659D01*
X31585376Y-35928508D01*
G37*
G36*
X44601514Y-37962983D02*
G01*
X45456564Y-35613752D01*
X47852780Y-36485903D01*
X46997730Y-38835134D01*
X44601514Y-37962983D01*
G37*
%TD*%
D12*
%TO.C,MX2*%
X64445627Y-33213650D03*
D13*
X60321345Y-37118557D03*
D12*
X57609847Y-33428641D03*
D14*
X55547706Y-35381095D03*
X65094984Y-38856019D03*
D11*
G36*
X52906721Y-33047065D02*
G01*
X53761771Y-30697834D01*
X56157987Y-31569985D01*
X55302937Y-33919216D01*
X52906721Y-33047065D01*
G37*
G36*
X65922859Y-35081540D02*
G01*
X66777909Y-32732309D01*
X69174125Y-33604460D01*
X68319075Y-35953691D01*
X65922859Y-35081540D01*
G37*
%TD*%
D12*
%TO.C,MX3*%
X83714852Y-35970363D03*
D13*
X79590570Y-39875270D03*
D12*
X76879072Y-36185354D03*
D14*
X74816931Y-38137808D03*
X84364209Y-41612732D03*
D11*
G36*
X72175946Y-35803778D02*
G01*
X73030996Y-33454547D01*
X75427212Y-34326698D01*
X74572162Y-36675929D01*
X72175946Y-35803778D01*
G37*
G36*
X85192084Y-37838253D02*
G01*
X86047134Y-35489022D01*
X88443350Y-36361173D01*
X87588300Y-38710404D01*
X85192084Y-37838253D01*
G37*
%TD*%
D12*
%TO.C,MX4*%
X99563876Y-48124003D03*
D13*
X95439594Y-52028910D03*
D12*
X92728096Y-48338994D03*
D14*
X90665955Y-50291448D03*
X100213233Y-53766372D03*
D11*
G36*
X88024970Y-47957418D02*
G01*
X88880020Y-45608187D01*
X91276236Y-46480338D01*
X90421186Y-48829569D01*
X88024970Y-47957418D01*
G37*
G36*
X101041108Y-49991893D02*
G01*
X101896158Y-47642662D01*
X104292374Y-48514813D01*
X103437324Y-50864044D01*
X101041108Y-49991893D01*
G37*
%TD*%
D12*
%TO.C,MX5*%
X116096940Y-58398257D03*
D13*
X111972658Y-62303164D03*
D12*
X109261160Y-58613248D03*
D14*
X107199019Y-60565702D03*
X116746297Y-64040626D03*
D11*
G36*
X104558034Y-58231672D02*
G01*
X105413084Y-55882441D01*
X107809300Y-56754592D01*
X106954250Y-59103823D01*
X104558034Y-58231672D01*
G37*
G36*
X117574172Y-60266147D02*
G01*
X118429222Y-57916916D01*
X120825438Y-58789067D01*
X119970388Y-61138298D01*
X117574172Y-60266147D01*
G37*
%TD*%
D12*
%TO.C,MX6*%
X167786998Y-56660794D03*
D13*
X167137641Y-62303164D03*
D12*
X162688681Y-61219441D03*
D14*
X162364002Y-64040626D03*
X171911280Y-60565702D03*
D11*
G36*
X158840605Y-63950248D02*
G01*
X157985555Y-61601017D01*
X160381771Y-60728866D01*
X161236821Y-63078097D01*
X158840605Y-63950248D01*
G37*
G36*
X170119280Y-57142135D02*
G01*
X169264230Y-54792904D01*
X171660446Y-53920753D01*
X172515496Y-56269984D01*
X170119280Y-57142135D01*
G37*
%TD*%
D12*
%TO.C,MX7*%
X184320062Y-46386540D03*
D13*
X183670705Y-52028910D03*
D12*
X179221745Y-50945187D03*
D14*
X178897066Y-53766372D03*
X188444344Y-50291448D03*
D11*
G36*
X175373669Y-53675994D02*
G01*
X174518619Y-51326763D01*
X176914835Y-50454612D01*
X177769885Y-52803843D01*
X175373669Y-53675994D01*
G37*
G36*
X186652344Y-46867881D02*
G01*
X185797294Y-44518650D01*
X188193510Y-43646499D01*
X189048560Y-45995730D01*
X186652344Y-46867881D01*
G37*
%TD*%
D12*
%TO.C,MX8*%
X200169085Y-34232900D03*
D13*
X199519728Y-39875270D03*
D12*
X195070768Y-38791547D03*
D14*
X194746089Y-41612732D03*
X204293367Y-38137808D03*
D11*
G36*
X191222692Y-41522354D02*
G01*
X190367642Y-39173123D01*
X192763858Y-38300972D01*
X193618908Y-40650203D01*
X191222692Y-41522354D01*
G37*
G36*
X202501367Y-34714241D02*
G01*
X201646317Y-32365010D01*
X204042533Y-31492859D01*
X204897583Y-33842090D01*
X202501367Y-34714241D01*
G37*
%TD*%
D12*
%TO.C,MX9*%
X219438310Y-31476187D03*
D13*
X218788953Y-37118557D03*
D12*
X214339993Y-36034834D03*
D14*
X214015314Y-38856019D03*
X223562592Y-35381095D03*
D11*
G36*
X210491917Y-38765641D02*
G01*
X209636867Y-36416410D01*
X212033083Y-35544259D01*
X212888133Y-37893490D01*
X210491917Y-38765641D01*
G37*
G36*
X221770592Y-31957528D02*
G01*
X220915542Y-29608297D01*
X223311758Y-28736146D01*
X224166808Y-31085377D01*
X221770592Y-31957528D01*
G37*
%TD*%
D12*
%TO.C,MX10*%
X240759656Y-34357630D03*
D13*
X240110299Y-40000000D03*
D12*
X235661339Y-38916277D03*
D14*
X235336660Y-41737462D03*
X244883938Y-38262538D03*
D11*
G36*
X231813263Y-41647084D02*
G01*
X230958213Y-39297853D01*
X233354429Y-38425702D01*
X234209479Y-40774933D01*
X231813263Y-41647084D01*
G37*
G36*
X243091938Y-34838971D02*
G01*
X242236888Y-32489740D01*
X244633104Y-31617589D01*
X245488154Y-33966820D01*
X243091938Y-34838971D01*
G37*
%TD*%
D12*
%TO.C,MX11*%
X36608798Y-53996237D03*
D13*
X32484516Y-57901144D03*
D12*
X29773018Y-54211228D03*
D14*
X27710877Y-56163682D03*
X37258155Y-59638606D03*
D11*
G36*
X25069892Y-53829652D02*
G01*
X25924942Y-51480421D01*
X28321158Y-52352572D01*
X27466108Y-54701803D01*
X25069892Y-53829652D01*
G37*
G36*
X38086030Y-55864127D02*
G01*
X38941080Y-53514896D01*
X41337296Y-54387047D01*
X40482246Y-56736278D01*
X38086030Y-55864127D01*
G37*
%TD*%
D12*
%TO.C,MX12*%
X57930144Y-51114794D03*
D13*
X53805862Y-55019701D03*
D12*
X51094364Y-51329785D03*
D14*
X49032223Y-53282239D03*
X58579501Y-56757163D03*
D11*
G36*
X46391238Y-50948209D02*
G01*
X47246288Y-48598978D01*
X49642504Y-49471129D01*
X48787454Y-51820360D01*
X46391238Y-50948209D01*
G37*
G36*
X59407376Y-52982684D02*
G01*
X60262426Y-50633453D01*
X62658642Y-51505604D01*
X61803592Y-53854835D01*
X59407376Y-52982684D01*
G37*
%TD*%
D12*
%TO.C,MX13*%
X77199369Y-53871508D03*
D13*
X73075087Y-57776415D03*
D12*
X70363589Y-54086499D03*
D14*
X68301448Y-56038953D03*
X77848726Y-59513877D03*
D11*
G36*
X65660463Y-53704923D02*
G01*
X66515513Y-51355692D01*
X68911729Y-52227843D01*
X68056679Y-54577074D01*
X65660463Y-53704923D01*
G37*
G36*
X78676601Y-55739398D02*
G01*
X79531651Y-53390167D01*
X81927867Y-54262318D01*
X81072817Y-56611549D01*
X78676601Y-55739398D01*
G37*
%TD*%
D12*
%TO.C,MX14*%
X93048392Y-66025147D03*
D13*
X88924110Y-69930054D03*
D12*
X86212612Y-66240138D03*
D14*
X84150471Y-68192592D03*
X93697749Y-71667516D03*
D11*
G36*
X81509486Y-65858562D02*
G01*
X82364536Y-63509331D01*
X84760752Y-64381482D01*
X83905702Y-66730713D01*
X81509486Y-65858562D01*
G37*
G36*
X94525624Y-67893037D02*
G01*
X95380674Y-65543806D01*
X97776890Y-66415957D01*
X96921840Y-68765188D01*
X94525624Y-67893037D01*
G37*
%TD*%
D12*
%TO.C,MX15*%
X109581456Y-76299401D03*
D13*
X105457174Y-80204308D03*
D12*
X102745676Y-76514392D03*
D14*
X100683535Y-78466846D03*
X110230813Y-81941770D03*
D11*
G36*
X98042550Y-76132816D02*
G01*
X98897600Y-73783585D01*
X101293816Y-74655736D01*
X100438766Y-77004967D01*
X98042550Y-76132816D01*
G37*
G36*
X111058688Y-78167291D02*
G01*
X111913738Y-75818060D01*
X114309954Y-76690211D01*
X113454904Y-79039442D01*
X111058688Y-78167291D01*
G37*
%TD*%
D12*
%TO.C,MX16*%
X174302482Y-74561938D03*
D13*
X173653125Y-80204308D03*
D12*
X169204165Y-79120585D03*
D14*
X168879486Y-81941770D03*
X178426764Y-78466846D03*
D11*
G36*
X165356089Y-81851392D02*
G01*
X164501039Y-79502161D01*
X166897255Y-78630010D01*
X167752305Y-80979241D01*
X165356089Y-81851392D01*
G37*
G36*
X176634764Y-75043279D02*
G01*
X175779714Y-72694048D01*
X178175930Y-71821897D01*
X179030980Y-74171128D01*
X176634764Y-75043279D01*
G37*
%TD*%
D12*
%TO.C,MX17*%
X190835546Y-64287684D03*
D13*
X190186189Y-69930054D03*
D12*
X185737229Y-68846331D03*
D14*
X185412550Y-71667516D03*
X194959828Y-68192592D03*
D11*
G36*
X181889153Y-71577138D02*
G01*
X181034103Y-69227907D01*
X183430319Y-68355756D01*
X184285369Y-70704987D01*
X181889153Y-71577138D01*
G37*
G36*
X193167828Y-64769025D02*
G01*
X192312778Y-62419794D01*
X194708994Y-61547643D01*
X195564044Y-63896874D01*
X193167828Y-64769025D01*
G37*
%TD*%
%TO.C,MX18*%
G36*
X209016851Y-52615386D02*
G01*
X208161801Y-50266155D01*
X210558017Y-49394004D01*
X211413067Y-51743235D01*
X209016851Y-52615386D01*
G37*
G36*
X197738176Y-59423499D02*
G01*
X196883126Y-57074268D01*
X199279342Y-56202117D01*
X200134392Y-58551348D01*
X197738176Y-59423499D01*
G37*
D14*
X210808851Y-56038953D03*
X201261573Y-59513877D03*
D12*
X201586252Y-56692692D03*
D13*
X206035212Y-57776415D03*
D12*
X206684569Y-52134045D03*
%TD*%
D11*
%TO.C,MX19*%
G36*
X228286076Y-49858672D02*
G01*
X227431026Y-47509441D01*
X229827242Y-46637290D01*
X230682292Y-48986521D01*
X228286076Y-49858672D01*
G37*
G36*
X217007401Y-56666785D02*
G01*
X216152351Y-54317554D01*
X218548567Y-53445403D01*
X219403617Y-55794634D01*
X217007401Y-56666785D01*
G37*
D14*
X230078076Y-53282239D03*
X220530798Y-56757163D03*
D12*
X220855477Y-53935978D03*
D13*
X225304437Y-55019701D03*
D12*
X225953794Y-49377331D03*
%TD*%
D11*
%TO.C,MX20*%
G36*
X249607422Y-52740115D02*
G01*
X248752372Y-50390884D01*
X251148588Y-49518733D01*
X252003638Y-51867964D01*
X249607422Y-52740115D01*
G37*
G36*
X238328747Y-59548228D02*
G01*
X237473697Y-57198997D01*
X239869913Y-56326846D01*
X240724963Y-58676077D01*
X238328747Y-59548228D01*
G37*
D14*
X251399422Y-56163682D03*
X241852144Y-59638606D03*
D12*
X242176823Y-56817421D03*
D13*
X246625783Y-57901144D03*
D12*
X247275140Y-52258774D03*
%TD*%
D11*
%TO.C,MX21*%
G36*
X31570546Y-73765271D02*
G01*
X32425596Y-71416040D01*
X34821812Y-72288191D01*
X33966762Y-74637422D01*
X31570546Y-73765271D01*
G37*
G36*
X18554408Y-71730796D02*
G01*
X19409458Y-69381565D01*
X21805674Y-70253716D01*
X20950624Y-72602947D01*
X18554408Y-71730796D01*
G37*
D14*
X30742671Y-77539750D03*
X21195393Y-74064826D03*
D12*
X23257534Y-72112372D03*
D13*
X25969032Y-75802288D03*
D12*
X30093314Y-71897381D03*
%TD*%
D11*
%TO.C,MX22*%
G36*
X52891892Y-70883829D02*
G01*
X53746942Y-68534598D01*
X56143158Y-69406749D01*
X55288108Y-71755980D01*
X52891892Y-70883829D01*
G37*
G36*
X39875754Y-68849354D02*
G01*
X40730804Y-66500123D01*
X43127020Y-67372274D01*
X42271970Y-69721505D01*
X39875754Y-68849354D01*
G37*
D14*
X52064017Y-74658308D03*
X42516739Y-71183384D03*
D12*
X44578880Y-69230930D03*
D13*
X47290378Y-72920846D03*
D12*
X51414660Y-69015939D03*
%TD*%
D11*
%TO.C,MX23*%
G36*
X72161117Y-73640542D02*
G01*
X73016167Y-71291311D01*
X75412383Y-72163462D01*
X74557333Y-74512693D01*
X72161117Y-73640542D01*
G37*
G36*
X59144979Y-71606067D02*
G01*
X60000029Y-69256836D01*
X62396245Y-70128987D01*
X61541195Y-72478218D01*
X59144979Y-71606067D01*
G37*
D14*
X71333242Y-77415021D03*
X61785964Y-73940097D03*
D12*
X63848105Y-71987643D03*
D13*
X66559603Y-75677559D03*
D12*
X70683885Y-71772652D03*
%TD*%
D11*
%TO.C,MX24*%
G36*
X88010140Y-85794182D02*
G01*
X88865190Y-83444951D01*
X91261406Y-84317102D01*
X90406356Y-86666333D01*
X88010140Y-85794182D01*
G37*
G36*
X74994002Y-83759707D02*
G01*
X75849052Y-81410476D01*
X78245268Y-82282627D01*
X77390218Y-84631858D01*
X74994002Y-83759707D01*
G37*
D14*
X87182265Y-89568661D03*
X77634987Y-86093737D03*
D12*
X79697128Y-84141283D03*
D13*
X82408626Y-87831199D03*
D12*
X86532908Y-83926292D03*
%TD*%
D11*
%TO.C,MX25*%
G36*
X104543204Y-96068436D02*
G01*
X105398254Y-93719205D01*
X107794470Y-94591356D01*
X106939420Y-96940587D01*
X104543204Y-96068436D01*
G37*
G36*
X91527066Y-94033961D02*
G01*
X92382116Y-91684730D01*
X94778332Y-92556881D01*
X93923282Y-94906112D01*
X91527066Y-94033961D01*
G37*
D14*
X103715329Y-99842915D03*
X94168051Y-96367991D03*
D12*
X96230192Y-94415537D03*
D13*
X98941690Y-98105453D03*
D12*
X103065972Y-94200546D03*
%TD*%
D11*
%TO.C,MX26*%
G36*
X183150248Y-92944424D02*
G01*
X182295198Y-90595193D01*
X184691414Y-89723042D01*
X185546464Y-92072273D01*
X183150248Y-92944424D01*
G37*
G36*
X171871573Y-99752537D02*
G01*
X171016523Y-97403306D01*
X173412739Y-96531155D01*
X174267789Y-98880386D01*
X171871573Y-99752537D01*
G37*
D14*
X184942248Y-96367991D03*
X175394970Y-99842915D03*
D12*
X175719649Y-97021730D03*
D13*
X180168609Y-98105453D03*
D12*
X180817966Y-92463083D03*
%TD*%
D11*
%TO.C,MX27*%
G36*
X199683311Y-82670170D02*
G01*
X198828261Y-80320939D01*
X201224477Y-79448788D01*
X202079527Y-81798019D01*
X199683311Y-82670170D01*
G37*
G36*
X188404636Y-89478283D02*
G01*
X187549586Y-87129052D01*
X189945802Y-86256901D01*
X190800852Y-88606132D01*
X188404636Y-89478283D01*
G37*
D14*
X201475311Y-86093737D03*
X191928033Y-89568661D03*
D12*
X192252712Y-86747476D03*
D13*
X196701672Y-87831199D03*
D12*
X197351029Y-82188829D03*
%TD*%
D11*
%TO.C,MX28*%
G36*
X215532335Y-70516530D02*
G01*
X214677285Y-68167299D01*
X217073501Y-67295148D01*
X217928551Y-69644379D01*
X215532335Y-70516530D01*
G37*
G36*
X204253660Y-77324643D02*
G01*
X203398610Y-74975412D01*
X205794826Y-74103261D01*
X206649876Y-76452492D01*
X204253660Y-77324643D01*
G37*
D14*
X217324335Y-73940097D03*
X207777057Y-77415021D03*
D12*
X208101736Y-74593836D03*
D13*
X212550696Y-75677559D03*
D12*
X213200053Y-70035189D03*
%TD*%
D11*
%TO.C,MX29*%
G36*
X234801560Y-67759817D02*
G01*
X233946510Y-65410586D01*
X236342726Y-64538435D01*
X237197776Y-66887666D01*
X234801560Y-67759817D01*
G37*
G36*
X223522885Y-74567930D02*
G01*
X222667835Y-72218699D01*
X225064051Y-71346548D01*
X225919101Y-73695779D01*
X223522885Y-74567930D01*
G37*
D14*
X236593560Y-71183384D03*
X227046282Y-74658308D03*
D12*
X227370961Y-71837123D03*
D13*
X231819921Y-72920846D03*
D12*
X232469278Y-67278476D03*
%TD*%
D11*
%TO.C,MX30*%
G36*
X256122906Y-70641259D02*
G01*
X255267856Y-68292028D01*
X257664072Y-67419877D01*
X258519122Y-69769108D01*
X256122906Y-70641259D01*
G37*
G36*
X244844231Y-77449372D02*
G01*
X243989181Y-75100141D01*
X246385397Y-74227990D01*
X247240447Y-76577221D01*
X244844231Y-77449372D01*
G37*
D14*
X257914906Y-74064826D03*
X248367628Y-77539750D03*
D12*
X248692307Y-74718565D03*
D13*
X253141267Y-75802288D03*
D12*
X253790624Y-70159918D03*
%TD*%
D11*
%TO.C,MX31*%
G36*
X87709068Y-114470609D02*
G01*
X88564118Y-112121378D01*
X90960334Y-112993529D01*
X90105284Y-115342760D01*
X87709068Y-114470609D01*
G37*
G36*
X74692930Y-112436134D02*
G01*
X75547980Y-110086903D01*
X77944196Y-110959054D01*
X77089146Y-113308285D01*
X74692930Y-112436134D01*
G37*
D14*
X86881193Y-118245088D03*
X77333915Y-114770164D03*
D12*
X79396056Y-112817710D03*
D13*
X82107554Y-116507626D03*
D12*
X86231836Y-112602719D03*
%TD*%
D11*
%TO.C,MX32*%
G36*
X107889944Y-127980611D02*
G01*
X109496913Y-126065500D01*
X111450326Y-127704609D01*
X109843357Y-129619720D01*
X107889944Y-127980611D01*
G37*
G36*
X96354607Y-121617049D02*
G01*
X97961576Y-119701938D01*
X99914989Y-121341047D01*
X98308020Y-123256158D01*
X96354607Y-121617049D01*
G37*
D14*
X105821048Y-131244312D03*
X98038036Y-124713590D03*
D12*
X100643593Y-123584177D03*
D13*
X101929542Y-127978951D03*
D12*
X107140656Y-125720126D03*
%TD*%
D11*
%TO.C,MX33*%
G36*
X178217406Y-122109390D02*
G01*
X176610437Y-120194279D01*
X178563850Y-118555170D01*
X180170819Y-120470281D01*
X178217406Y-122109390D01*
G37*
G36*
X169947430Y-132364458D02*
G01*
X168340461Y-130449347D01*
X170293874Y-128810238D01*
X171900843Y-130725349D01*
X169947430Y-132364458D01*
G37*
D14*
X181072263Y-124713590D03*
X173289251Y-131244312D03*
D12*
X172629447Y-128482219D03*
D13*
X177180757Y-127978951D03*
D12*
X175861149Y-122454765D03*
%TD*%
D11*
%TO.C,MX34*%
G36*
X199984384Y-111346597D02*
G01*
X199129334Y-108997366D01*
X201525550Y-108125215D01*
X202380600Y-110474446D01*
X199984384Y-111346597D01*
G37*
G36*
X188705709Y-118154710D02*
G01*
X187850659Y-115805479D01*
X190246875Y-114933328D01*
X191101925Y-117282559D01*
X188705709Y-118154710D01*
G37*
D14*
X201776384Y-114770164D03*
X192229106Y-118245088D03*
D12*
X192553785Y-115423903D03*
D13*
X197002745Y-116507626D03*
D12*
X197652102Y-110865256D03*
%TD*%
D15*
%TO.C,U1*%
X139555149Y-83890000D03*
X137015149Y-83890000D03*
X134475149Y-83890000D03*
X147175149Y-61030000D03*
X131935149Y-88970000D03*
X147175149Y-63570000D03*
X147175149Y-66110000D03*
X147175149Y-68650000D03*
X147175149Y-71190000D03*
X147175149Y-73730000D03*
X147175149Y-76270000D03*
X147175149Y-78810000D03*
X147175149Y-81350000D03*
X147175149Y-83890000D03*
X147175149Y-86430000D03*
X147175149Y-88970000D03*
X131935149Y-86430000D03*
X131935149Y-83890000D03*
X131935149Y-81350000D03*
X131935149Y-78810000D03*
X131935149Y-76270000D03*
X131935149Y-73730000D03*
X131935149Y-71190000D03*
X131935149Y-68650000D03*
X131935149Y-66110000D03*
X131935149Y-63570000D03*
X131935149Y-61030000D03*
%TD*%
M02*
