M48
; DRILL file {KiCad (5.1.10-1-10_14)} date Sunday, September 26, 2021 at 06:03:51 PM
; FORMAT={-:-/ absolute / metric / decimal}
; #@! TF.CreationDate,2021-09-26T18:03:51+08:00
; #@! TF.GenerationSoftware,Kicad,Pcbnew,(5.1.10-1-10_14)
; #@! TF.FileFunction,NonPlated,1,2,NPTH
FMAT,2
METRIC
T1C1.750
T2C2.200
T3C3.000
T4C3.988
%
G90
G05
T1
X21.195Y-74.065
X27.711Y-56.164
X30.743Y-77.54
X34.226Y-38.263
X37.258Y-59.639
X42.517Y-71.183
X43.774Y-41.737
X49.032Y-53.282
X52.064Y-74.658
X55.548Y-35.381
X58.58Y-56.757
X61.786Y-73.94
X65.095Y-38.856
X68.301Y-56.039
X71.333Y-77.415
X74.817Y-38.138
X77.334Y-114.77
X77.635Y-86.094
X77.849Y-59.514
X84.15Y-68.193
X84.364Y-41.613
X86.881Y-118.245
X87.182Y-89.569
X90.666Y-50.291
X93.698Y-71.668
X94.168Y-96.368
X98.038Y-124.714
X100.213Y-53.766
X100.684Y-78.467
X103.715Y-99.843
X105.821Y-131.244
X107.199Y-60.566
X110.231Y-81.942
X116.746Y-64.041
X162.364Y-64.041
X168.879Y-81.942
X171.911Y-60.566
X173.289Y-131.244
X175.395Y-99.843
X178.427Y-78.467
X178.897Y-53.766
X181.072Y-124.714
X184.942Y-96.368
X185.413Y-71.668
X188.444Y-50.291
X191.928Y-89.569
X192.229Y-118.245
X194.746Y-41.613
X194.96Y-68.193
X201.262Y-59.514
X201.475Y-86.094
X201.776Y-114.77
X204.293Y-38.138
X207.777Y-77.415
X210.809Y-56.039
X214.015Y-38.856
X217.324Y-73.94
X220.531Y-56.757
X223.563Y-35.381
X227.046Y-74.658
X230.078Y-53.282
X235.337Y-41.737
X236.594Y-71.183
X241.852Y-59.639
X244.884Y-38.263
X248.368Y-77.54
X251.399Y-56.164
X257.915Y-74.065
T2
X43.815Y-51.943
X94.615Y-117.856
X184.531Y-117.856
X234.95Y-52.07
T3
X23.258Y-72.112
X29.773Y-54.211
X30.093Y-71.897
X36.289Y-36.31
X36.609Y-53.996
X43.124Y-36.095
X44.579Y-69.231
X51.094Y-51.33
X51.415Y-69.016
X57.61Y-33.429
X57.93Y-51.115
X63.848Y-71.988
X64.446Y-33.214
X70.364Y-54.086
X70.684Y-71.773
X76.879Y-36.185
X77.199Y-53.872
X79.396Y-112.818
X79.697Y-84.141
X83.715Y-35.97
X86.213Y-66.24
X86.232Y-112.603
X86.533Y-83.926
X92.728Y-48.339
X93.048Y-66.025
X96.23Y-94.416
X99.564Y-48.124
X100.644Y-123.584
X102.746Y-76.514
X103.066Y-94.201
X107.141Y-125.72
X109.261Y-58.613
X109.581Y-76.299
X116.097Y-58.398
X162.689Y-61.219
X167.787Y-56.661
X169.204Y-79.121
X172.629Y-128.482
X174.302Y-74.562
X175.72Y-97.022
X175.861Y-122.455
X179.222Y-50.945
X180.818Y-92.463
X184.32Y-46.387
X185.737Y-68.846
X190.836Y-64.288
X192.253Y-86.747
X192.554Y-115.424
X195.071Y-38.792
X197.351Y-82.189
X197.652Y-110.865
X200.169Y-34.233
X201.586Y-56.693
X206.685Y-52.134
X208.102Y-74.594
X213.2Y-70.035
X214.34Y-36.035
X219.438Y-31.476
X220.855Y-53.936
X225.954Y-49.377
X227.371Y-71.837
X232.469Y-67.278
X235.661Y-38.916
X240.76Y-34.358
X242.177Y-56.817
X247.275Y-52.259
X248.692Y-74.719
X253.791Y-70.16
T4
X25.969Y-75.802
X32.485Y-57.901
X39.0Y-40.0
X47.29Y-72.921
X53.806Y-55.02
X60.321Y-37.119
X66.56Y-75.678
X73.075Y-57.776
X79.591Y-39.875
X82.108Y-116.508
X82.409Y-87.831
X88.924Y-69.93
X95.44Y-52.029
X98.942Y-98.105
X101.93Y-127.979
X105.457Y-80.204
X111.973Y-62.303
X167.138Y-62.303
X173.653Y-80.204
X177.181Y-127.979
X180.169Y-98.105
X183.671Y-52.029
X190.186Y-69.93
X196.702Y-87.831
X197.003Y-116.508
X199.52Y-39.875
X206.035Y-57.776
X212.551Y-75.678
X218.789Y-37.119
X225.304Y-55.02
X231.82Y-72.921
X240.11Y-40.0
X246.626Y-57.901
X253.141Y-75.802
T0
M30
