%TF.GenerationSoftware,KiCad,Pcbnew,(5.1.10-1-10_14)*%
%TF.CreationDate,2021-09-29T22:28:47+08:00*%
%TF.ProjectId,k34,6b33342e-6b69-4636-9164-5f7063625858,rev?*%
%TF.SameCoordinates,Original*%
%TF.FileFunction,Profile,NP*%
%FSLAX46Y46*%
G04 Gerber Fmt 4.6, Leading zero omitted, Abs format (unit mm)*
G04 Created by KiCad (PCBNEW (5.1.10-1-10_14)) date 2021-09-29 22:28:47*
%MOMM*%
%LPD*%
G01*
G04 APERTURE LIST*
%TA.AperFunction,Profile*%
%ADD10C,0.050000*%
%TD*%
G04 APERTURE END LIST*
D10*
X188012605Y-39094208D02*
G75*
G03*
X188214000Y-38608000I-179604J359209D01*
G01*
X228845383Y-32228404D02*
G75*
G03*
X229361999Y-32511999I389617J97404D01*
G01*
X244601999Y-81026001D02*
G75*
G03*
X244221001Y-80899001I-253999J-126999D01*
G01*
X187198000Y-33274000D02*
G75*
G03*
X186690000Y-34289998I253999J-761999D01*
G01*
X188012605Y-39094208D02*
X171323000Y-45212000D01*
X176022000Y-142494000D02*
X162873961Y-126873000D01*
X206530568Y-27380144D02*
X207375593Y-29680802D01*
X210692999Y-122935999D02*
X191897000Y-129794000D01*
X211836000Y-92837000D02*
X204089001Y-103886000D01*
X244221001Y-80899001D02*
X212086318Y-92695272D01*
X247396001Y-88772999D02*
G75*
G03*
X247776999Y-88899999I253999J126999D01*
G01*
X170815000Y-46227998D02*
X171704000Y-48895000D01*
X207375594Y-29680802D02*
G75*
G03*
X207771999Y-29844999I269406J89802D01*
G01*
X247118905Y-27192435D02*
X266826999Y-81661001D01*
X210692999Y-122935999D02*
G75*
G03*
X210946999Y-122428001I-126999J380999D01*
G01*
X162792530Y-104013000D02*
G75*
G03*
X162432999Y-103378001I-740530J0D01*
G01*
X247118906Y-27192435D02*
G75*
G03*
X245872001Y-26670001I-992906J-620565D01*
G01*
X162432999Y-103378001D02*
X148844000Y-92795318D01*
X162814000Y-126619000D02*
X162792530Y-104013000D01*
X212086318Y-92695273D02*
G75*
G03*
X211836000Y-92837000I130682J-522727D01*
G01*
X171449999Y-49402999D02*
X153416000Y-55880000D01*
X247396001Y-88772999D02*
X244601999Y-81026001D01*
X176022000Y-142494000D02*
G75*
G03*
X176910999Y-142621001I508000J380999D01*
G01*
X266773803Y-81988804D02*
X247776999Y-88899999D01*
X245872000Y-26670000D02*
X229361999Y-32511999D01*
X225782905Y-24398434D02*
G75*
G03*
X224536000Y-23876000I-992906J-620565D01*
G01*
X224536000Y-23876000D02*
X207771999Y-29844999D01*
X153416000Y-55880000D02*
X139700000Y-55880000D01*
X148562212Y-92710000D02*
X139700000Y-92710000D01*
X171323000Y-45212000D02*
G75*
G03*
X170815000Y-46227998I253999J-761999D01*
G01*
X266773803Y-81988804D02*
G75*
G03*
X266826999Y-81661001I-200803J200804D01*
G01*
X205232000Y-26797000D02*
X187198000Y-33274000D01*
X148844000Y-92795318D02*
G75*
G03*
X148562212Y-92710000I-281788J-422682D01*
G01*
X206530569Y-27380144D02*
G75*
G03*
X205232001Y-26797001I-917569J-305856D01*
G01*
X204089002Y-103886000D02*
G75*
G03*
X204089001Y-104139999I253998J-127000D01*
G01*
X225782904Y-24398434D02*
X228845383Y-32228404D01*
X186690000Y-34289998D02*
X188214000Y-38608000D01*
X171449999Y-49402999D02*
G75*
G03*
X171703999Y-48895001I-126999J380999D01*
G01*
X191897000Y-129794000D02*
X176910999Y-142621001D01*
X204089001Y-104139999D02*
X210946999Y-122428001D01*
X162814000Y-126619000D02*
G75*
G03*
X162873961Y-126873000I567961J0D01*
G01*
X68834001Y-122935999D02*
G75*
G02*
X68580001Y-122428001I126999J380999D01*
G01*
X103505000Y-142494000D02*
G75*
G02*
X102616001Y-142621001I-508000J380999D01*
G01*
X75437998Y-103886000D02*
G75*
G02*
X75437999Y-104139999I-253998J-127000D01*
G01*
X67440682Y-92695273D02*
G75*
G02*
X67691000Y-92837000I-130682J-522727D01*
G01*
X34925001Y-81026001D02*
G75*
G02*
X35305999Y-80899001I253999J-126999D01*
G01*
X32130999Y-88772999D02*
G75*
G02*
X31750001Y-88899999I-253999J126999D01*
G01*
X12753197Y-81988804D02*
G75*
G02*
X12700001Y-81661001I200803J200804D01*
G01*
X116713000Y-126619000D02*
G75*
G02*
X116653039Y-126873000I-567961J0D01*
G01*
X130683000Y-92795318D02*
G75*
G02*
X130964788Y-92710000I281788J-422682D01*
G01*
X116734470Y-104013000D02*
G75*
G02*
X117094001Y-103378001I740530J0D01*
G01*
X108077001Y-49402999D02*
G75*
G02*
X107823001Y-48895001I126999J380999D01*
G01*
X108712000Y-46227998D02*
X107823000Y-48895000D01*
X108204000Y-45212000D02*
G75*
G02*
X108712000Y-46227998I-253999J-761999D01*
G01*
X91514395Y-39094208D02*
G75*
G02*
X91313000Y-38608000I179604J359209D01*
G01*
X92837000Y-34289998D02*
X91313000Y-38608000D01*
X92329000Y-33274000D02*
G75*
G02*
X92837000Y-34289998I-253999J-761999D01*
G01*
X72151406Y-29680802D02*
G75*
G02*
X71755001Y-29844999I-269406J89802D01*
G01*
X72996432Y-27380144D02*
X72151407Y-29680802D01*
X72996431Y-27380144D02*
G75*
G02*
X74294999Y-26797001I917569J-305856D01*
G01*
X50681617Y-32228404D02*
G75*
G02*
X50165001Y-32511999I-389617J97404D01*
G01*
X53744096Y-24398434D02*
X50681617Y-32228404D01*
X53744095Y-24398434D02*
G75*
G02*
X54991000Y-23876000I992906J-620565D01*
G01*
X32408094Y-27192435D02*
G75*
G02*
X33654999Y-26670001I992906J-620565D01*
G01*
X108077001Y-49402999D02*
X126111000Y-55880000D01*
X91514395Y-39094208D02*
X108204000Y-45212000D01*
X54991000Y-23876000D02*
X71755001Y-29844999D01*
X33655000Y-26670000D02*
X50165001Y-32511999D01*
X126111000Y-55880000D02*
X139700000Y-55880000D01*
X74295000Y-26797000D02*
X92329000Y-33274000D01*
X130964788Y-92710000D02*
X139700000Y-92710000D01*
X117094001Y-103378001D02*
X130683000Y-92795318D01*
X116713000Y-126619000D02*
X116734470Y-104013000D01*
X103505000Y-142494000D02*
X116653039Y-126873000D01*
X87630000Y-129794000D02*
X102616001Y-142621001D01*
X68834001Y-122935999D02*
X87630000Y-129794000D01*
X75437999Y-104139999D02*
X68580001Y-122428001D01*
X67691000Y-92837000D02*
X75437999Y-103886000D01*
X35305999Y-80899001D02*
X67440682Y-92695272D01*
X32130999Y-88772999D02*
X34925001Y-81026001D01*
X12753197Y-81988804D02*
X31750001Y-88899999D01*
X32408095Y-27192435D02*
X12700001Y-81661001D01*
M02*
