%TF.GenerationSoftware,KiCad,Pcbnew,(5.1.10-1-10_14)*%
%TF.CreationDate,2022-05-14T22:17:57+08:00*%
%TF.ProjectId,k34,6b33342e-6b69-4636-9164-5f7063625858,rev?*%
%TF.SameCoordinates,Original*%
%TF.FileFunction,Legend,Bot*%
%TF.FilePolarity,Positive*%
%FSLAX46Y46*%
G04 Gerber Fmt 4.6, Leading zero omitted, Abs format (unit mm)*
G04 Created by KiCad (PCBNEW (5.1.10-1-10_14)) date 2022-05-14 22:17:57*
%MOMM*%
%LPD*%
G01*
G04 APERTURE LIST*
%ADD10C,0.381000*%
%ADD11C,0.120000*%
%ADD12C,0.150000*%
G04 APERTURE END LIST*
D10*
%TO.C,U1*%
X148445149Y-57220000D02*
X130665149Y-57220000D01*
X130665149Y-57220000D02*
X130665149Y-90240000D01*
X130665149Y-90240000D02*
X148445149Y-90240000D01*
X148445149Y-90240000D02*
X148445149Y-57220000D01*
D11*
%TO.C,D1*%
X32640599Y-45224560D02*
X37320269Y-46927820D01*
X33570894Y-42668596D02*
X38250563Y-44371856D01*
X32640599Y-45224560D02*
X33570894Y-42668596D01*
%TO.C,D2*%
X53961944Y-42343117D02*
X58641614Y-44046377D01*
X54892239Y-39787153D02*
X59571908Y-41490413D01*
X53961944Y-42343117D02*
X54892239Y-39787153D01*
%TO.C,D3*%
X73231169Y-45099830D02*
X77910839Y-46803090D01*
X74161464Y-42543866D02*
X78841133Y-44247126D01*
X73231169Y-45099830D02*
X74161464Y-42543866D01*
%TO.C,D4*%
X89080193Y-57253470D02*
X93759863Y-58956730D01*
X90010488Y-54697506D02*
X94690157Y-56400766D01*
X89080193Y-57253470D02*
X90010488Y-54697506D01*
%TO.C,D5*%
X105613257Y-67527724D02*
X110292927Y-69230984D01*
X106543552Y-64971760D02*
X111223221Y-66675020D01*
X105613257Y-67527724D02*
X106543552Y-64971760D01*
%TO.C,D6*%
X172566747Y-64971760D02*
X167887078Y-66675020D01*
X173497042Y-67527724D02*
X168817372Y-69230984D01*
X172566747Y-64971760D02*
X173497042Y-67527724D01*
%TO.C,D7*%
X189099811Y-54697506D02*
X184420142Y-56400766D01*
X190030106Y-57253470D02*
X185350436Y-58956730D01*
X189099811Y-54697506D02*
X190030106Y-57253470D01*
%TO.C,D8*%
X204948834Y-42543866D02*
X200269165Y-44247126D01*
X205879129Y-45099830D02*
X201199459Y-46803090D01*
X204948834Y-42543866D02*
X205879129Y-45099830D01*
%TO.C,D9*%
X224218059Y-39787153D02*
X219538390Y-41490413D01*
X225148354Y-42343117D02*
X220468684Y-44046377D01*
X224218059Y-39787153D02*
X225148354Y-42343117D01*
%TO.C,D10*%
X245539405Y-42668596D02*
X240859736Y-44371856D01*
X246469700Y-45224560D02*
X241790030Y-46927820D01*
X245539405Y-42668596D02*
X246469700Y-45224560D01*
%TO.C,D11*%
X26125115Y-63125704D02*
X30804785Y-64828964D01*
X27055410Y-60569740D02*
X31735079Y-62273000D01*
X26125115Y-63125704D02*
X27055410Y-60569740D01*
%TO.C,D12*%
X47446461Y-60244261D02*
X52126131Y-61947521D01*
X48376756Y-57688297D02*
X53056425Y-59391557D01*
X47446461Y-60244261D02*
X48376756Y-57688297D01*
%TO.C,D13*%
X66715686Y-63000975D02*
X71395356Y-64704235D01*
X67645981Y-60445011D02*
X72325650Y-62148271D01*
X66715686Y-63000975D02*
X67645981Y-60445011D01*
%TO.C,D14*%
X82564709Y-75154614D02*
X87244379Y-76857874D01*
X83495004Y-72598650D02*
X88174673Y-74301910D01*
X82564709Y-75154614D02*
X83495004Y-72598650D01*
%TO.C,D15*%
X99097773Y-85428868D02*
X103777443Y-87132128D01*
X100028068Y-82872904D02*
X104707737Y-84576164D01*
X99097773Y-85428868D02*
X100028068Y-82872904D01*
%TO.C,D16*%
X179082231Y-82872904D02*
X174402562Y-84576164D01*
X180012526Y-85428868D02*
X175332856Y-87132128D01*
X179082231Y-82872904D02*
X180012526Y-85428868D01*
%TO.C,D17*%
X195615295Y-72598650D02*
X190935626Y-74301910D01*
X196545590Y-75154614D02*
X191865920Y-76857874D01*
X195615295Y-72598650D02*
X196545590Y-75154614D01*
%TO.C,D18*%
X211464318Y-60445011D02*
X212394613Y-63000975D01*
X212394613Y-63000975D02*
X207714943Y-64704235D01*
X211464318Y-60445011D02*
X206784649Y-62148271D01*
%TO.C,D19*%
X230733543Y-57688297D02*
X231663838Y-60244261D01*
X231663838Y-60244261D02*
X226984168Y-61947521D01*
X230733543Y-57688297D02*
X226053874Y-59391557D01*
%TO.C,D20*%
X252054889Y-60569740D02*
X252985184Y-63125704D01*
X252985184Y-63125704D02*
X248305514Y-64828964D01*
X252054889Y-60569740D02*
X247375220Y-62273000D01*
%TO.C,D21*%
X19609631Y-81026848D02*
X20539926Y-78470884D01*
X20539926Y-78470884D02*
X25219595Y-80174144D01*
X19609631Y-81026848D02*
X24289301Y-82730108D01*
%TO.C,D22*%
X40930977Y-78145406D02*
X41861272Y-75589442D01*
X41861272Y-75589442D02*
X46540941Y-77292702D01*
X40930977Y-78145406D02*
X45610647Y-79848666D01*
%TO.C,D23*%
X60200202Y-80902119D02*
X61130497Y-78346155D01*
X61130497Y-78346155D02*
X65810166Y-80049415D01*
X60200202Y-80902119D02*
X64879872Y-82605379D01*
%TO.C,D24*%
X76049225Y-93055759D02*
X76979520Y-90499795D01*
X76979520Y-90499795D02*
X81659189Y-92203055D01*
X76049225Y-93055759D02*
X80728895Y-94759019D01*
%TO.C,D25*%
X92582289Y-103330013D02*
X93512584Y-100774049D01*
X93512584Y-100774049D02*
X98192253Y-102477309D01*
X92582289Y-103330013D02*
X97261959Y-105033273D01*
%TO.C,D26*%
X185597715Y-100774049D02*
X186528010Y-103330013D01*
X186528010Y-103330013D02*
X181848340Y-105033273D01*
X185597715Y-100774049D02*
X180918046Y-102477309D01*
%TO.C,D27*%
X202130778Y-90499795D02*
X203061073Y-93055759D01*
X203061073Y-93055759D02*
X198381403Y-94759019D01*
X202130778Y-90499795D02*
X197451109Y-92203055D01*
%TO.C,D28*%
X217979802Y-78346155D02*
X218910097Y-80902119D01*
X218910097Y-80902119D02*
X214230427Y-82605379D01*
X217979802Y-78346155D02*
X213300133Y-80049415D01*
%TO.C,D29*%
X237249027Y-75589442D02*
X238179322Y-78145406D01*
X238179322Y-78145406D02*
X233499652Y-79848666D01*
X237249027Y-75589442D02*
X232569358Y-77292702D01*
%TO.C,D30*%
X258570373Y-78470884D02*
X259500668Y-81026848D01*
X259500668Y-81026848D02*
X254820998Y-82730108D01*
X258570373Y-78470884D02*
X253890704Y-80174144D01*
%TO.C,D31*%
X75748153Y-121732186D02*
X76678448Y-119176222D01*
X76678448Y-119176222D02*
X81358117Y-120879482D01*
X75748153Y-121732186D02*
X80427823Y-123435446D01*
%TO.C,D32*%
X94048392Y-131015035D02*
X95796774Y-128931394D01*
X95796774Y-128931394D02*
X99611676Y-132132476D01*
X94048392Y-131015035D02*
X97863293Y-134216117D01*
%TO.C,D33*%
X178695531Y-136000557D02*
X176947149Y-133916916D01*
X176947149Y-133916916D02*
X180762050Y-130715834D01*
X178695531Y-136000557D02*
X182510433Y-132799475D01*
%TO.C,D34*%
X195944894Y-124378404D02*
X195014599Y-121822440D01*
X195014599Y-121822440D02*
X199694269Y-120119180D01*
X195944894Y-124378404D02*
X200624563Y-122675144D01*
%TO.C,U1*%
D12*
X145581244Y-66471904D02*
X145847910Y-66090952D01*
X146038387Y-66471904D02*
X146038387Y-65671904D01*
X145733625Y-65671904D01*
X145657434Y-65710000D01*
X145619339Y-65748095D01*
X145581244Y-65824285D01*
X145581244Y-65938571D01*
X145619339Y-66014761D01*
X145657434Y-66052857D01*
X145733625Y-66090952D01*
X146038387Y-66090952D01*
X145276482Y-66433809D02*
X145162196Y-66471904D01*
X144971720Y-66471904D01*
X144895529Y-66433809D01*
X144857434Y-66395714D01*
X144819339Y-66319523D01*
X144819339Y-66243333D01*
X144857434Y-66167142D01*
X144895529Y-66129047D01*
X144971720Y-66090952D01*
X145124101Y-66052857D01*
X145200291Y-66014761D01*
X145238387Y-65976666D01*
X145276482Y-65900476D01*
X145276482Y-65824285D01*
X145238387Y-65748095D01*
X145200291Y-65710000D01*
X145124101Y-65671904D01*
X144933625Y-65671904D01*
X144819339Y-65710000D01*
X144590768Y-65671904D02*
X144133625Y-65671904D01*
X144362196Y-66471904D02*
X144362196Y-65671904D01*
X134817959Y-60591904D02*
X134741768Y-60591904D01*
X134665578Y-60630000D01*
X134627482Y-60668095D01*
X134589387Y-60744285D01*
X134551292Y-60896666D01*
X134551292Y-61087142D01*
X134589387Y-61239523D01*
X134627482Y-61315714D01*
X134665578Y-61353809D01*
X134741768Y-61391904D01*
X134817959Y-61391904D01*
X134894149Y-61353809D01*
X134932244Y-61315714D01*
X134970339Y-61239523D01*
X135008435Y-61087142D01*
X135008435Y-60896666D01*
X134970339Y-60744285D01*
X134932244Y-60668095D01*
X134894149Y-60630000D01*
X134817959Y-60591904D01*
X134056054Y-60591904D02*
X133979863Y-60591904D01*
X133903673Y-60630000D01*
X133865578Y-60668095D01*
X133827482Y-60744285D01*
X133789387Y-60896666D01*
X133789387Y-61087142D01*
X133827482Y-61239523D01*
X133865578Y-61315714D01*
X133903673Y-61353809D01*
X133979863Y-61391904D01*
X134056054Y-61391904D01*
X134132244Y-61353809D01*
X134170339Y-61315714D01*
X134208435Y-61239523D01*
X134246530Y-61087142D01*
X134246530Y-60896666D01*
X134208435Y-60744285D01*
X134170339Y-60668095D01*
X134132244Y-60630000D01*
X134056054Y-60591904D01*
X133103673Y-60591904D02*
X133256054Y-60591904D01*
X133332244Y-60630000D01*
X133370339Y-60668095D01*
X133446530Y-60782380D01*
X133484625Y-60934761D01*
X133484625Y-61239523D01*
X133446530Y-61315714D01*
X133408435Y-61353809D01*
X133332244Y-61391904D01*
X133179863Y-61391904D01*
X133103673Y-61353809D01*
X133065578Y-61315714D01*
X133027482Y-61239523D01*
X133027482Y-61049047D01*
X133065578Y-60972857D01*
X133103673Y-60934761D01*
X133179863Y-60896666D01*
X133332244Y-60896666D01*
X133408435Y-60934761D01*
X133446530Y-60972857D01*
X133484625Y-61049047D01*
X145892340Y-85991904D02*
X145816149Y-85991904D01*
X145739959Y-86030000D01*
X145701863Y-86068095D01*
X145663768Y-86144285D01*
X145625673Y-86296666D01*
X145625673Y-86487142D01*
X145663768Y-86639523D01*
X145701863Y-86715714D01*
X145739959Y-86753809D01*
X145816149Y-86791904D01*
X145892340Y-86791904D01*
X145968530Y-86753809D01*
X146006625Y-86715714D01*
X146044720Y-86639523D01*
X146082816Y-86487142D01*
X146082816Y-86296666D01*
X146044720Y-86144285D01*
X146006625Y-86068095D01*
X145968530Y-86030000D01*
X145892340Y-85991904D01*
X144863768Y-86791904D02*
X145320911Y-86791904D01*
X145092340Y-86791904D02*
X145092340Y-85991904D01*
X145168530Y-86106190D01*
X145244720Y-86182380D01*
X145320911Y-86220476D01*
X144368530Y-85991904D02*
X144292340Y-85991904D01*
X144216149Y-86030000D01*
X144178054Y-86068095D01*
X144139959Y-86144285D01*
X144101863Y-86296666D01*
X144101863Y-86487142D01*
X144139959Y-86639523D01*
X144178054Y-86715714D01*
X144216149Y-86753809D01*
X144292340Y-86791904D01*
X144368530Y-86791904D01*
X144444720Y-86753809D01*
X144482816Y-86715714D01*
X144520911Y-86639523D01*
X144559006Y-86487142D01*
X144559006Y-86296666D01*
X144520911Y-86144285D01*
X144482816Y-86068095D01*
X144444720Y-86030000D01*
X144368530Y-85991904D01*
X145625673Y-79171904D02*
X146082816Y-79171904D01*
X145854244Y-79171904D02*
X145854244Y-78371904D01*
X145930435Y-78486190D01*
X146006625Y-78562380D01*
X146082816Y-78600476D01*
X144863768Y-79171904D02*
X145320911Y-79171904D01*
X145092340Y-79171904D02*
X145092340Y-78371904D01*
X145168530Y-78486190D01*
X145244720Y-78562380D01*
X145320911Y-78600476D01*
X144139959Y-78371904D02*
X144520911Y-78371904D01*
X144559006Y-78752857D01*
X144520911Y-78714761D01*
X144444720Y-78676666D01*
X144254244Y-78676666D01*
X144178054Y-78714761D01*
X144139959Y-78752857D01*
X144101863Y-78829047D01*
X144101863Y-79019523D01*
X144139959Y-79095714D01*
X144178054Y-79133809D01*
X144254244Y-79171904D01*
X144444720Y-79171904D01*
X144520911Y-79133809D01*
X144559006Y-79095714D01*
X145892340Y-75831904D02*
X145816149Y-75831904D01*
X145739959Y-75870000D01*
X145701863Y-75908095D01*
X145663768Y-75984285D01*
X145625673Y-76136666D01*
X145625673Y-76327142D01*
X145663768Y-76479523D01*
X145701863Y-76555714D01*
X145739959Y-76593809D01*
X145816149Y-76631904D01*
X145892340Y-76631904D01*
X145968530Y-76593809D01*
X146006625Y-76555714D01*
X146044720Y-76479523D01*
X146082816Y-76327142D01*
X146082816Y-76136666D01*
X146044720Y-75984285D01*
X146006625Y-75908095D01*
X145968530Y-75870000D01*
X145892340Y-75831904D01*
X145130435Y-75831904D02*
X145054244Y-75831904D01*
X144978054Y-75870000D01*
X144939959Y-75908095D01*
X144901863Y-75984285D01*
X144863768Y-76136666D01*
X144863768Y-76327142D01*
X144901863Y-76479523D01*
X144939959Y-76555714D01*
X144978054Y-76593809D01*
X145054244Y-76631904D01*
X145130435Y-76631904D01*
X145206625Y-76593809D01*
X145244720Y-76555714D01*
X145282816Y-76479523D01*
X145320911Y-76327142D01*
X145320911Y-76136666D01*
X145282816Y-75984285D01*
X145244720Y-75908095D01*
X145206625Y-75870000D01*
X145130435Y-75831904D01*
X144559006Y-75908095D02*
X144520911Y-75870000D01*
X144444720Y-75831904D01*
X144254244Y-75831904D01*
X144178054Y-75870000D01*
X144139959Y-75908095D01*
X144101863Y-75984285D01*
X144101863Y-76060476D01*
X144139959Y-76174761D01*
X144597101Y-76631904D01*
X144101863Y-76631904D01*
X145892340Y-73291904D02*
X145816149Y-73291904D01*
X145739959Y-73330000D01*
X145701863Y-73368095D01*
X145663768Y-73444285D01*
X145625673Y-73596666D01*
X145625673Y-73787142D01*
X145663768Y-73939523D01*
X145701863Y-74015714D01*
X145739959Y-74053809D01*
X145816149Y-74091904D01*
X145892340Y-74091904D01*
X145968530Y-74053809D01*
X146006625Y-74015714D01*
X146044720Y-73939523D01*
X146082816Y-73787142D01*
X146082816Y-73596666D01*
X146044720Y-73444285D01*
X146006625Y-73368095D01*
X145968530Y-73330000D01*
X145892340Y-73291904D01*
X145320911Y-73368095D02*
X145282816Y-73330000D01*
X145206625Y-73291904D01*
X145016149Y-73291904D01*
X144939959Y-73330000D01*
X144901863Y-73368095D01*
X144863768Y-73444285D01*
X144863768Y-73520476D01*
X144901863Y-73634761D01*
X145359006Y-74091904D01*
X144863768Y-74091904D01*
X144482816Y-74091904D02*
X144330435Y-74091904D01*
X144254244Y-74053809D01*
X144216149Y-74015714D01*
X144139959Y-73901428D01*
X144101863Y-73749047D01*
X144101863Y-73444285D01*
X144139959Y-73368095D01*
X144178054Y-73330000D01*
X144254244Y-73291904D01*
X144406625Y-73291904D01*
X144482816Y-73330000D01*
X144520911Y-73368095D01*
X144559006Y-73444285D01*
X144559006Y-73634761D01*
X144520911Y-73710952D01*
X144482816Y-73749047D01*
X144406625Y-73787142D01*
X144254244Y-73787142D01*
X144178054Y-73749047D01*
X144139959Y-73710952D01*
X144101863Y-73634761D01*
X145581244Y-61391904D02*
X145847911Y-61010952D01*
X146038387Y-61391904D02*
X146038387Y-60591904D01*
X145733625Y-60591904D01*
X145657435Y-60630000D01*
X145619340Y-60668095D01*
X145581244Y-60744285D01*
X145581244Y-60858571D01*
X145619340Y-60934761D01*
X145657435Y-60972857D01*
X145733625Y-61010952D01*
X146038387Y-61010952D01*
X145276483Y-61163333D02*
X144895530Y-61163333D01*
X145352673Y-61391904D02*
X145086006Y-60591904D01*
X144819340Y-61391904D01*
X144628864Y-60591904D02*
X144438387Y-61391904D01*
X144286006Y-60820476D01*
X144133625Y-61391904D01*
X143943149Y-60591904D01*
X145619339Y-63170000D02*
X145695530Y-63131904D01*
X145809816Y-63131904D01*
X145924101Y-63170000D01*
X146000292Y-63246190D01*
X146038387Y-63322380D01*
X146076482Y-63474761D01*
X146076482Y-63589047D01*
X146038387Y-63741428D01*
X146000292Y-63817619D01*
X145924101Y-63893809D01*
X145809816Y-63931904D01*
X145733625Y-63931904D01*
X145619339Y-63893809D01*
X145581244Y-63855714D01*
X145581244Y-63589047D01*
X145733625Y-63589047D01*
X145238387Y-63931904D02*
X145238387Y-63131904D01*
X144781244Y-63931904D01*
X144781244Y-63131904D01*
X144400292Y-63931904D02*
X144400292Y-63131904D01*
X144209816Y-63131904D01*
X144095530Y-63170000D01*
X144019339Y-63246190D01*
X143981244Y-63322380D01*
X143943149Y-63474761D01*
X143943149Y-63589047D01*
X143981244Y-63741428D01*
X144019339Y-63817619D01*
X144095530Y-63893809D01*
X144209816Y-63931904D01*
X144400292Y-63931904D01*
X146159006Y-68211904D02*
X145892340Y-69011904D01*
X145625673Y-68211904D01*
X144901863Y-68935714D02*
X144939959Y-68973809D01*
X145054244Y-69011904D01*
X145130435Y-69011904D01*
X145244720Y-68973809D01*
X145320911Y-68897619D01*
X145359006Y-68821428D01*
X145397101Y-68669047D01*
X145397101Y-68554761D01*
X145359006Y-68402380D01*
X145320911Y-68326190D01*
X145244720Y-68250000D01*
X145130435Y-68211904D01*
X145054244Y-68211904D01*
X144939959Y-68250000D01*
X144901863Y-68288095D01*
X144101863Y-68935714D02*
X144139959Y-68973809D01*
X144254244Y-69011904D01*
X144330435Y-69011904D01*
X144444720Y-68973809D01*
X144520911Y-68897619D01*
X144559006Y-68821428D01*
X144597101Y-68669047D01*
X144597101Y-68554761D01*
X144559006Y-68402380D01*
X144520911Y-68326190D01*
X144444720Y-68250000D01*
X144330435Y-68211904D01*
X144254244Y-68211904D01*
X144139959Y-68250000D01*
X144101863Y-68288095D01*
X145892340Y-70751904D02*
X145816149Y-70751904D01*
X145739959Y-70790000D01*
X145701863Y-70828095D01*
X145663768Y-70904285D01*
X145625673Y-71056666D01*
X145625673Y-71247142D01*
X145663768Y-71399523D01*
X145701863Y-71475714D01*
X145739959Y-71513809D01*
X145816149Y-71551904D01*
X145892340Y-71551904D01*
X145968530Y-71513809D01*
X146006625Y-71475714D01*
X146044720Y-71399523D01*
X146082816Y-71247142D01*
X146082816Y-71056666D01*
X146044720Y-70904285D01*
X146006625Y-70828095D01*
X145968530Y-70790000D01*
X145892340Y-70751904D01*
X145359006Y-70751904D02*
X144863768Y-70751904D01*
X145130435Y-71056666D01*
X145016149Y-71056666D01*
X144939959Y-71094761D01*
X144901863Y-71132857D01*
X144863768Y-71209047D01*
X144863768Y-71399523D01*
X144901863Y-71475714D01*
X144939959Y-71513809D01*
X145016149Y-71551904D01*
X145244720Y-71551904D01*
X145320911Y-71513809D01*
X145359006Y-71475714D01*
X144101863Y-71551904D02*
X144559006Y-71551904D01*
X144330435Y-71551904D02*
X144330435Y-70751904D01*
X144406625Y-70866190D01*
X144482816Y-70942380D01*
X144559006Y-70980476D01*
X145625673Y-81711904D02*
X146082816Y-81711904D01*
X145854244Y-81711904D02*
X145854244Y-80911904D01*
X145930435Y-81026190D01*
X146006625Y-81102380D01*
X146082816Y-81140476D01*
X144863768Y-81711904D02*
X145320911Y-81711904D01*
X145092340Y-81711904D02*
X145092340Y-80911904D01*
X145168530Y-81026190D01*
X145244720Y-81102380D01*
X145320911Y-81140476D01*
X144597101Y-80911904D02*
X144101863Y-80911904D01*
X144368530Y-81216666D01*
X144254244Y-81216666D01*
X144178054Y-81254761D01*
X144139959Y-81292857D01*
X144101863Y-81369047D01*
X144101863Y-81559523D01*
X144139959Y-81635714D01*
X144178054Y-81673809D01*
X144254244Y-81711904D01*
X144482816Y-81711904D01*
X144559006Y-81673809D01*
X144597101Y-81635714D01*
X145625673Y-84251904D02*
X146082816Y-84251904D01*
X145854244Y-84251904D02*
X145854244Y-83451904D01*
X145930435Y-83566190D01*
X146006625Y-83642380D01*
X146082816Y-83680476D01*
X144863768Y-84251904D02*
X145320911Y-84251904D01*
X145092340Y-84251904D02*
X145092340Y-83451904D01*
X145168530Y-83566190D01*
X145244720Y-83642380D01*
X145320911Y-83680476D01*
X144101863Y-84251904D02*
X144559006Y-84251904D01*
X144330435Y-84251904D02*
X144330435Y-83451904D01*
X144406625Y-83566190D01*
X144482816Y-83642380D01*
X144559006Y-83680476D01*
X134551292Y-86791904D02*
X135008435Y-86791904D01*
X134779863Y-86791904D02*
X134779863Y-85991904D01*
X134856054Y-86106190D01*
X134932244Y-86182380D01*
X135008435Y-86220476D01*
X134056054Y-85991904D02*
X133979863Y-85991904D01*
X133903673Y-86030000D01*
X133865578Y-86068095D01*
X133827482Y-86144285D01*
X133789387Y-86296666D01*
X133789387Y-86487142D01*
X133827482Y-86639523D01*
X133865578Y-86715714D01*
X133903673Y-86753809D01*
X133979863Y-86791904D01*
X134056054Y-86791904D01*
X134132244Y-86753809D01*
X134170339Y-86715714D01*
X134208435Y-86639523D01*
X134246530Y-86487142D01*
X134246530Y-86296666D01*
X134208435Y-86144285D01*
X134170339Y-86068095D01*
X134132244Y-86030000D01*
X134056054Y-85991904D01*
X133103673Y-86258571D02*
X133103673Y-86791904D01*
X133294149Y-85953809D02*
X133484625Y-86525238D01*
X132989387Y-86525238D01*
X134551292Y-81711904D02*
X135008435Y-81711904D01*
X134779863Y-81711904D02*
X134779863Y-80911904D01*
X134856054Y-81026190D01*
X134932244Y-81102380D01*
X135008435Y-81140476D01*
X134056054Y-80911904D02*
X133979863Y-80911904D01*
X133903673Y-80950000D01*
X133865578Y-80988095D01*
X133827482Y-81064285D01*
X133789387Y-81216666D01*
X133789387Y-81407142D01*
X133827482Y-81559523D01*
X133865578Y-81635714D01*
X133903673Y-81673809D01*
X133979863Y-81711904D01*
X134056054Y-81711904D01*
X134132244Y-81673809D01*
X134170339Y-81635714D01*
X134208435Y-81559523D01*
X134246530Y-81407142D01*
X134246530Y-81216666D01*
X134208435Y-81064285D01*
X134170339Y-80988095D01*
X134132244Y-80950000D01*
X134056054Y-80911904D01*
X133294149Y-80911904D02*
X133217959Y-80911904D01*
X133141768Y-80950000D01*
X133103673Y-80988095D01*
X133065578Y-81064285D01*
X133027482Y-81216666D01*
X133027482Y-81407142D01*
X133065578Y-81559523D01*
X133103673Y-81635714D01*
X133141768Y-81673809D01*
X133217959Y-81711904D01*
X133294149Y-81711904D01*
X133370339Y-81673809D01*
X133408435Y-81635714D01*
X133446530Y-81559523D01*
X133484625Y-81407142D01*
X133484625Y-81216666D01*
X133446530Y-81064285D01*
X133408435Y-80988095D01*
X133370339Y-80950000D01*
X133294149Y-80911904D01*
X134817959Y-78361904D02*
X134741768Y-78361904D01*
X134665578Y-78400000D01*
X134627482Y-78438095D01*
X134589387Y-78514285D01*
X134551292Y-78666666D01*
X134551292Y-78857142D01*
X134589387Y-79009523D01*
X134627482Y-79085714D01*
X134665578Y-79123809D01*
X134741768Y-79161904D01*
X134817959Y-79161904D01*
X134894149Y-79123809D01*
X134932244Y-79085714D01*
X134970339Y-79009523D01*
X135008435Y-78857142D01*
X135008435Y-78666666D01*
X134970339Y-78514285D01*
X134932244Y-78438095D01*
X134894149Y-78400000D01*
X134817959Y-78361904D01*
X134246530Y-78438095D02*
X134208435Y-78400000D01*
X134132244Y-78361904D01*
X133941768Y-78361904D01*
X133865578Y-78400000D01*
X133827482Y-78438095D01*
X133789387Y-78514285D01*
X133789387Y-78590476D01*
X133827482Y-78704761D01*
X134284625Y-79161904D01*
X133789387Y-79161904D01*
X133103673Y-78628571D02*
X133103673Y-79161904D01*
X133294149Y-78323809D02*
X133484625Y-78895238D01*
X132989387Y-78895238D01*
X134817959Y-75861904D02*
X134741768Y-75861904D01*
X134665578Y-75900000D01*
X134627482Y-75938095D01*
X134589387Y-76014285D01*
X134551292Y-76166666D01*
X134551292Y-76357142D01*
X134589387Y-76509523D01*
X134627482Y-76585714D01*
X134665578Y-76623809D01*
X134741768Y-76661904D01*
X134817959Y-76661904D01*
X134894149Y-76623809D01*
X134932244Y-76585714D01*
X134970339Y-76509523D01*
X135008435Y-76357142D01*
X135008435Y-76166666D01*
X134970339Y-76014285D01*
X134932244Y-75938095D01*
X134894149Y-75900000D01*
X134817959Y-75861904D01*
X134246530Y-75938095D02*
X134208435Y-75900000D01*
X134132244Y-75861904D01*
X133941768Y-75861904D01*
X133865578Y-75900000D01*
X133827482Y-75938095D01*
X133789387Y-76014285D01*
X133789387Y-76090476D01*
X133827482Y-76204761D01*
X134284625Y-76661904D01*
X133789387Y-76661904D01*
X133484625Y-75938095D02*
X133446530Y-75900000D01*
X133370339Y-75861904D01*
X133179863Y-75861904D01*
X133103673Y-75900000D01*
X133065578Y-75938095D01*
X133027482Y-76014285D01*
X133027482Y-76090476D01*
X133065578Y-76204761D01*
X133522720Y-76661904D01*
X133027482Y-76661904D01*
X134703672Y-65710000D02*
X134779863Y-65671904D01*
X134894149Y-65671904D01*
X135008434Y-65710000D01*
X135084625Y-65786190D01*
X135122720Y-65862380D01*
X135160815Y-66014761D01*
X135160815Y-66129047D01*
X135122720Y-66281428D01*
X135084625Y-66357619D01*
X135008434Y-66433809D01*
X134894149Y-66471904D01*
X134817958Y-66471904D01*
X134703672Y-66433809D01*
X134665577Y-66395714D01*
X134665577Y-66129047D01*
X134817958Y-66129047D01*
X134322720Y-66471904D02*
X134322720Y-65671904D01*
X133865577Y-66471904D01*
X133865577Y-65671904D01*
X133484625Y-66471904D02*
X133484625Y-65671904D01*
X133294149Y-65671904D01*
X133179863Y-65710000D01*
X133103672Y-65786190D01*
X133065577Y-65862380D01*
X133027482Y-66014761D01*
X133027482Y-66129047D01*
X133065577Y-66281428D01*
X133103672Y-66357619D01*
X133179863Y-66433809D01*
X133294149Y-66471904D01*
X133484625Y-66471904D01*
X134703672Y-68250000D02*
X134779863Y-68211904D01*
X134894149Y-68211904D01*
X135008434Y-68250000D01*
X135084625Y-68326190D01*
X135122720Y-68402380D01*
X135160815Y-68554761D01*
X135160815Y-68669047D01*
X135122720Y-68821428D01*
X135084625Y-68897619D01*
X135008434Y-68973809D01*
X134894149Y-69011904D01*
X134817958Y-69011904D01*
X134703672Y-68973809D01*
X134665577Y-68935714D01*
X134665577Y-68669047D01*
X134817958Y-68669047D01*
X134322720Y-69011904D02*
X134322720Y-68211904D01*
X133865577Y-69011904D01*
X133865577Y-68211904D01*
X133484625Y-69011904D02*
X133484625Y-68211904D01*
X133294149Y-68211904D01*
X133179863Y-68250000D01*
X133103672Y-68326190D01*
X133065577Y-68402380D01*
X133027482Y-68554761D01*
X133027482Y-68669047D01*
X133065577Y-68821428D01*
X133103672Y-68897619D01*
X133179863Y-68973809D01*
X133294149Y-69011904D01*
X133484625Y-69011904D01*
X134817959Y-70751904D02*
X134741768Y-70751904D01*
X134665578Y-70790000D01*
X134627482Y-70828095D01*
X134589387Y-70904285D01*
X134551292Y-71056666D01*
X134551292Y-71247142D01*
X134589387Y-71399523D01*
X134627482Y-71475714D01*
X134665578Y-71513809D01*
X134741768Y-71551904D01*
X134817959Y-71551904D01*
X134894149Y-71513809D01*
X134932244Y-71475714D01*
X134970339Y-71399523D01*
X135008435Y-71247142D01*
X135008435Y-71056666D01*
X134970339Y-70904285D01*
X134932244Y-70828095D01*
X134894149Y-70790000D01*
X134817959Y-70751904D01*
X133789387Y-71551904D02*
X134246530Y-71551904D01*
X134017959Y-71551904D02*
X134017959Y-70751904D01*
X134094149Y-70866190D01*
X134170339Y-70942380D01*
X134246530Y-70980476D01*
X133522720Y-70751904D02*
X132989387Y-70751904D01*
X133332244Y-71551904D01*
X134817959Y-73361904D02*
X134741768Y-73361904D01*
X134665578Y-73400000D01*
X134627482Y-73438095D01*
X134589387Y-73514285D01*
X134551292Y-73666666D01*
X134551292Y-73857142D01*
X134589387Y-74009523D01*
X134627482Y-74085714D01*
X134665578Y-74123809D01*
X134741768Y-74161904D01*
X134817959Y-74161904D01*
X134894149Y-74123809D01*
X134932244Y-74085714D01*
X134970339Y-74009523D01*
X135008435Y-73857142D01*
X135008435Y-73666666D01*
X134970339Y-73514285D01*
X134932244Y-73438095D01*
X134894149Y-73400000D01*
X134817959Y-73361904D01*
X134246530Y-73438095D02*
X134208435Y-73400000D01*
X134132244Y-73361904D01*
X133941768Y-73361904D01*
X133865578Y-73400000D01*
X133827482Y-73438095D01*
X133789387Y-73514285D01*
X133789387Y-73590476D01*
X133827482Y-73704761D01*
X134284625Y-74161904D01*
X133789387Y-74161904D01*
X133294149Y-73361904D02*
X133217959Y-73361904D01*
X133141768Y-73400000D01*
X133103673Y-73438095D01*
X133065578Y-73514285D01*
X133027482Y-73666666D01*
X133027482Y-73857142D01*
X133065578Y-74009523D01*
X133103673Y-74085714D01*
X133141768Y-74123809D01*
X133217959Y-74161904D01*
X133294149Y-74161904D01*
X133370339Y-74123809D01*
X133408435Y-74085714D01*
X133446530Y-74009523D01*
X133484625Y-73857142D01*
X133484625Y-73666666D01*
X133446530Y-73514285D01*
X133408435Y-73438095D01*
X133370339Y-73400000D01*
X133294149Y-73361904D01*
X134817959Y-63061904D02*
X134741768Y-63061904D01*
X134665578Y-63100000D01*
X134627482Y-63138095D01*
X134589387Y-63214285D01*
X134551292Y-63366666D01*
X134551292Y-63557142D01*
X134589387Y-63709523D01*
X134627482Y-63785714D01*
X134665578Y-63823809D01*
X134741768Y-63861904D01*
X134817959Y-63861904D01*
X134894149Y-63823809D01*
X134932244Y-63785714D01*
X134970339Y-63709523D01*
X135008435Y-63557142D01*
X135008435Y-63366666D01*
X134970339Y-63214285D01*
X134932244Y-63138095D01*
X134894149Y-63100000D01*
X134817959Y-63061904D01*
X134056054Y-63061904D02*
X133979863Y-63061904D01*
X133903673Y-63100000D01*
X133865578Y-63138095D01*
X133827482Y-63214285D01*
X133789387Y-63366666D01*
X133789387Y-63557142D01*
X133827482Y-63709523D01*
X133865578Y-63785714D01*
X133903673Y-63823809D01*
X133979863Y-63861904D01*
X134056054Y-63861904D01*
X134132244Y-63823809D01*
X134170339Y-63785714D01*
X134208435Y-63709523D01*
X134246530Y-63557142D01*
X134246530Y-63366666D01*
X134208435Y-63214285D01*
X134170339Y-63138095D01*
X134132244Y-63100000D01*
X134056054Y-63061904D01*
X133332244Y-63404761D02*
X133408435Y-63366666D01*
X133446530Y-63328571D01*
X133484625Y-63252380D01*
X133484625Y-63214285D01*
X133446530Y-63138095D01*
X133408435Y-63100000D01*
X133332244Y-63061904D01*
X133179863Y-63061904D01*
X133103673Y-63100000D01*
X133065578Y-63138095D01*
X133027482Y-63214285D01*
X133027482Y-63252380D01*
X133065578Y-63328571D01*
X133103673Y-63366666D01*
X133179863Y-63404761D01*
X133332244Y-63404761D01*
X133408435Y-63442857D01*
X133446530Y-63480952D01*
X133484625Y-63557142D01*
X133484625Y-63709523D01*
X133446530Y-63785714D01*
X133408435Y-63823809D01*
X133332244Y-63861904D01*
X133179863Y-63861904D01*
X133103673Y-63823809D01*
X133065578Y-63785714D01*
X133027482Y-63709523D01*
X133027482Y-63557142D01*
X133065578Y-63480952D01*
X133103673Y-63442857D01*
X133179863Y-63404761D01*
%TO.C,D1*%
X35854819Y-47556927D02*
X36196839Y-46617234D01*
X35973103Y-46535801D01*
X35822574Y-46531688D01*
X35700506Y-46588609D01*
X35623186Y-46661817D01*
X35513292Y-46824520D01*
X35464432Y-46958761D01*
X35444032Y-47154037D01*
X35456206Y-47259818D01*
X35513127Y-47381886D01*
X35631082Y-47475494D01*
X35854819Y-47556927D01*
X34422906Y-47035753D02*
X34959873Y-47231194D01*
X34691390Y-47133473D02*
X35033410Y-46193781D01*
X35074044Y-46360596D01*
X35130966Y-46482664D01*
X35204173Y-46559984D01*
%TO.C,D2*%
X57176164Y-44675484D02*
X57518184Y-43735791D01*
X57294448Y-43654358D01*
X57143919Y-43650245D01*
X57021851Y-43707166D01*
X56944531Y-43780374D01*
X56834637Y-43943077D01*
X56785777Y-44077318D01*
X56765377Y-44272594D01*
X56777551Y-44378375D01*
X56834472Y-44500443D01*
X56952427Y-44594051D01*
X57176164Y-44675484D01*
X56590665Y-43499552D02*
X56562205Y-43438518D01*
X56488997Y-43361198D01*
X56265260Y-43279765D01*
X56159479Y-43291938D01*
X56098445Y-43320399D01*
X56021125Y-43393607D01*
X55988551Y-43483101D01*
X55984439Y-43633630D01*
X56325966Y-44366037D01*
X55744251Y-44154310D01*
%TO.C,D3*%
X76445389Y-47432197D02*
X76787409Y-46492504D01*
X76563673Y-46411071D01*
X76413144Y-46406958D01*
X76291076Y-46463879D01*
X76213756Y-46537087D01*
X76103862Y-46699790D01*
X76055002Y-46834031D01*
X76034602Y-47029307D01*
X76046776Y-47135088D01*
X76103697Y-47257156D01*
X76221652Y-47350764D01*
X76445389Y-47432197D01*
X75937211Y-46183058D02*
X75355496Y-45971331D01*
X75538434Y-46443316D01*
X75404192Y-46394456D01*
X75298411Y-46406630D01*
X75237377Y-46435090D01*
X75160056Y-46508298D01*
X75078623Y-46732034D01*
X75090797Y-46837816D01*
X75119257Y-46898850D01*
X75192465Y-46976170D01*
X75460949Y-47073890D01*
X75566730Y-47061716D01*
X75627764Y-47033256D01*
%TO.C,D4*%
X92294413Y-59585837D02*
X92636433Y-58646144D01*
X92412697Y-58564711D01*
X92262168Y-58560598D01*
X92140100Y-58617519D01*
X92062780Y-58690727D01*
X91952886Y-58853430D01*
X91904026Y-58987671D01*
X91883626Y-59182947D01*
X91895800Y-59288728D01*
X91952721Y-59410796D01*
X92070676Y-59504404D01*
X92294413Y-59585837D01*
X91180008Y-58470775D02*
X90951995Y-59097237D01*
X91534038Y-58194230D02*
X91513474Y-58946873D01*
X90931760Y-58735146D01*
%TO.C,D5*%
X108827477Y-69860091D02*
X109169497Y-68920398D01*
X108945761Y-68838965D01*
X108795232Y-68834852D01*
X108673164Y-68891773D01*
X108595844Y-68964981D01*
X108485950Y-69127684D01*
X108437090Y-69261925D01*
X108416690Y-69457201D01*
X108428864Y-69562982D01*
X108485785Y-69685050D01*
X108603740Y-69778658D01*
X108827477Y-69860091D01*
X107782332Y-68415511D02*
X108229804Y-68578378D01*
X108111685Y-69042138D01*
X108083224Y-68981104D01*
X108010016Y-68903783D01*
X107786280Y-68822350D01*
X107680499Y-68834524D01*
X107619465Y-68862984D01*
X107542144Y-68936192D01*
X107460711Y-69159928D01*
X107472885Y-69265710D01*
X107501345Y-69326744D01*
X107574553Y-69404064D01*
X107798290Y-69485497D01*
X107904071Y-69473324D01*
X107965105Y-69444863D01*
%TO.C,D6*%
X170301907Y-65596434D02*
X169959886Y-64656741D01*
X169736150Y-64738175D01*
X169618195Y-64831782D01*
X169561274Y-64953850D01*
X169549100Y-65059631D01*
X169569499Y-65254907D01*
X169618359Y-65389149D01*
X169728253Y-65551851D01*
X169805574Y-65625059D01*
X169927642Y-65681980D01*
X170078170Y-65677867D01*
X170301907Y-65596434D01*
X168617468Y-65145342D02*
X168796457Y-65080195D01*
X168902239Y-65092369D01*
X168963273Y-65120830D01*
X169101627Y-65222498D01*
X169211521Y-65385200D01*
X169341814Y-65743179D01*
X169329641Y-65848960D01*
X169301180Y-65909994D01*
X169227972Y-65987314D01*
X169048983Y-66052461D01*
X168943202Y-66040287D01*
X168882168Y-66011826D01*
X168804847Y-65938619D01*
X168723414Y-65714882D01*
X168735588Y-65609101D01*
X168764048Y-65548067D01*
X168837256Y-65470746D01*
X169016245Y-65405600D01*
X169122027Y-65417774D01*
X169183061Y-65446234D01*
X169260381Y-65519442D01*
%TO.C,D7*%
X186834971Y-55322180D02*
X186492950Y-54382487D01*
X186269214Y-54463921D01*
X186151259Y-54557528D01*
X186094338Y-54679596D01*
X186082164Y-54785377D01*
X186102563Y-54980653D01*
X186151423Y-55114895D01*
X186261317Y-55277597D01*
X186338638Y-55350805D01*
X186460706Y-55407726D01*
X186611234Y-55403613D01*
X186834971Y-55322180D01*
X185642752Y-54691934D02*
X185016291Y-54919948D01*
X185761036Y-55713060D01*
%TO.C,D8*%
X202683994Y-43168540D02*
X202341973Y-42228847D01*
X202118237Y-42310281D01*
X202000282Y-42403888D01*
X201943361Y-42525956D01*
X201931187Y-42631737D01*
X201951586Y-42827013D01*
X202000446Y-42961255D01*
X202110340Y-43123957D01*
X202187661Y-43197165D01*
X202309729Y-43254086D01*
X202460257Y-43249973D01*
X202683994Y-43168540D01*
X201414619Y-43022453D02*
X201487827Y-42945132D01*
X201516287Y-42884098D01*
X201528461Y-42778317D01*
X201512175Y-42733570D01*
X201434854Y-42660362D01*
X201373820Y-42631902D01*
X201268039Y-42619728D01*
X201089050Y-42684874D01*
X201015842Y-42762195D01*
X200987381Y-42823229D01*
X200975208Y-42929010D01*
X200991494Y-42973757D01*
X201068815Y-43046965D01*
X201129849Y-43075426D01*
X201235630Y-43087600D01*
X201414619Y-43022453D01*
X201520400Y-43034627D01*
X201581434Y-43063088D01*
X201658755Y-43136295D01*
X201723901Y-43315285D01*
X201711728Y-43421066D01*
X201683267Y-43482100D01*
X201610059Y-43559420D01*
X201431070Y-43624567D01*
X201325289Y-43612393D01*
X201264255Y-43583932D01*
X201186934Y-43510725D01*
X201121788Y-43331736D01*
X201133962Y-43225954D01*
X201162422Y-43164920D01*
X201235630Y-43087600D01*
%TO.C,D9*%
X221953219Y-40411827D02*
X221611198Y-39472134D01*
X221387462Y-39553568D01*
X221269507Y-39647175D01*
X221212586Y-39769243D01*
X221200412Y-39875024D01*
X221220811Y-40070300D01*
X221269671Y-40204542D01*
X221379565Y-40367244D01*
X221456886Y-40440452D01*
X221578954Y-40497373D01*
X221729482Y-40493260D01*
X221953219Y-40411827D01*
X220968779Y-40770134D02*
X220789790Y-40835281D01*
X220684008Y-40823107D01*
X220622974Y-40794646D01*
X220484620Y-40692978D01*
X220374726Y-40530275D01*
X220244433Y-40172297D01*
X220256606Y-40066516D01*
X220285067Y-40005482D01*
X220358275Y-39928161D01*
X220537264Y-39863015D01*
X220643045Y-39875189D01*
X220704079Y-39903649D01*
X220781400Y-39976857D01*
X220862833Y-40200593D01*
X220850659Y-40306375D01*
X220822199Y-40367409D01*
X220748991Y-40444729D01*
X220570002Y-40509876D01*
X220464220Y-40497702D01*
X220403187Y-40469241D01*
X220325866Y-40396033D01*
%TO.C,D10*%
X243722037Y-43130403D02*
X243380017Y-42190711D01*
X243156281Y-42272144D01*
X243038326Y-42365751D01*
X242981404Y-42487819D01*
X242969231Y-42593600D01*
X242989630Y-42788876D01*
X243038490Y-42923118D01*
X243148384Y-43085820D01*
X243225705Y-43159028D01*
X243347772Y-43215949D01*
X243498301Y-43211837D01*
X243722037Y-43130403D01*
X242290125Y-43651577D02*
X242827092Y-43456137D01*
X242558608Y-43553857D02*
X242216588Y-42614164D01*
X242354943Y-42715833D01*
X242477011Y-42772754D01*
X242582792Y-42784928D01*
X241366390Y-42923611D02*
X241276896Y-42956184D01*
X241203688Y-43033505D01*
X241175227Y-43094539D01*
X241163053Y-43200320D01*
X241183453Y-43395596D01*
X241264886Y-43619332D01*
X241374780Y-43782035D01*
X241452100Y-43855243D01*
X241513134Y-43883703D01*
X241618916Y-43895877D01*
X241708410Y-43863304D01*
X241781618Y-43785983D01*
X241810079Y-43724949D01*
X241822253Y-43619168D01*
X241801853Y-43423892D01*
X241720420Y-43200156D01*
X241610526Y-43037453D01*
X241533205Y-42964246D01*
X241472171Y-42935785D01*
X241366390Y-42923611D01*
%TO.C,D11*%
X29786807Y-65620938D02*
X30128828Y-64681245D01*
X29905091Y-64599812D01*
X29754563Y-64595699D01*
X29632495Y-64652620D01*
X29555174Y-64725828D01*
X29445280Y-64888530D01*
X29396420Y-65022772D01*
X29376021Y-65218048D01*
X29388195Y-65323829D01*
X29445116Y-65445897D01*
X29563071Y-65539504D01*
X29786807Y-65620938D01*
X28354895Y-65099764D02*
X28891862Y-65295204D01*
X28623378Y-65197484D02*
X28965399Y-64257792D01*
X29006033Y-64424607D01*
X29062954Y-64546675D01*
X29136162Y-64623995D01*
X27459950Y-64774031D02*
X27996917Y-64969471D01*
X27728433Y-64871751D02*
X28070453Y-63932058D01*
X28111088Y-64098873D01*
X28168009Y-64220941D01*
X28241217Y-64298262D01*
%TO.C,D12*%
X51108153Y-62739495D02*
X51450174Y-61799802D01*
X51226437Y-61718369D01*
X51075909Y-61714256D01*
X50953841Y-61771177D01*
X50876520Y-61844385D01*
X50766626Y-62007087D01*
X50717766Y-62141329D01*
X50697367Y-62336605D01*
X50709541Y-62442386D01*
X50766462Y-62564454D01*
X50884417Y-62658061D01*
X51108153Y-62739495D01*
X49676241Y-62218321D02*
X50213208Y-62413761D01*
X49944724Y-62316041D02*
X50286745Y-61376349D01*
X50327379Y-61543164D01*
X50384300Y-61665232D01*
X50457508Y-61742552D01*
X49627710Y-61237830D02*
X49599249Y-61176796D01*
X49526041Y-61099475D01*
X49302305Y-61018042D01*
X49196524Y-61030216D01*
X49135490Y-61058676D01*
X49058169Y-61131884D01*
X49025596Y-61221379D01*
X49021483Y-61371907D01*
X49363010Y-62104314D01*
X48781296Y-61892588D01*
%TO.C,D13*%
X70377378Y-65496209D02*
X70719399Y-64556516D01*
X70495662Y-64475083D01*
X70345134Y-64470970D01*
X70223066Y-64527891D01*
X70145745Y-64601099D01*
X70035851Y-64763801D01*
X69986991Y-64898043D01*
X69966592Y-65093319D01*
X69978766Y-65199100D01*
X70035687Y-65321168D01*
X70153642Y-65414775D01*
X70377378Y-65496209D01*
X68945466Y-64975035D02*
X69482433Y-65170475D01*
X69213949Y-65072755D02*
X69555970Y-64133063D01*
X69596604Y-64299878D01*
X69653525Y-64421946D01*
X69726733Y-64499266D01*
X68974255Y-63921336D02*
X68392541Y-63709609D01*
X68575478Y-64181594D01*
X68441236Y-64132734D01*
X68335455Y-64144908D01*
X68274421Y-64173368D01*
X68197101Y-64246576D01*
X68115667Y-64470313D01*
X68127841Y-64576094D01*
X68156302Y-64637128D01*
X68229510Y-64714448D01*
X68497993Y-64812168D01*
X68603774Y-64799995D01*
X68664808Y-64771534D01*
%TO.C,D14*%
X86226401Y-77649848D02*
X86568422Y-76710155D01*
X86344685Y-76628722D01*
X86194157Y-76624609D01*
X86072089Y-76681530D01*
X85994768Y-76754738D01*
X85884874Y-76917440D01*
X85836014Y-77051682D01*
X85815615Y-77246958D01*
X85827789Y-77352739D01*
X85884710Y-77474807D01*
X86002665Y-77568414D01*
X86226401Y-77649848D01*
X84794489Y-77128674D02*
X85331456Y-77324114D01*
X85062972Y-77226394D02*
X85404993Y-76286702D01*
X85445627Y-76453517D01*
X85502548Y-76575585D01*
X85575756Y-76652905D01*
X84217051Y-76209052D02*
X83989038Y-76835514D01*
X84571081Y-75932508D02*
X84550517Y-76685150D01*
X83968803Y-76473423D01*
%TO.C,D15*%
X102759465Y-87924102D02*
X103101486Y-86984409D01*
X102877749Y-86902976D01*
X102727221Y-86898863D01*
X102605153Y-86955784D01*
X102527832Y-87028992D01*
X102417938Y-87191694D01*
X102369078Y-87325936D01*
X102348679Y-87521212D01*
X102360853Y-87626993D01*
X102417774Y-87749061D01*
X102535729Y-87842668D01*
X102759465Y-87924102D01*
X101327553Y-87402928D02*
X101864520Y-87598368D01*
X101596036Y-87500648D02*
X101938057Y-86560956D01*
X101978691Y-86727771D01*
X102035612Y-86849839D01*
X102108820Y-86927159D01*
X100819375Y-86153789D02*
X101266848Y-86316655D01*
X101148728Y-86780415D01*
X101120268Y-86719381D01*
X101047060Y-86642060D01*
X100823323Y-86560627D01*
X100717542Y-86572801D01*
X100656508Y-86601261D01*
X100579188Y-86674469D01*
X100497754Y-86898206D01*
X100509928Y-87003987D01*
X100538389Y-87065021D01*
X100611597Y-87142341D01*
X100835333Y-87223775D01*
X100941114Y-87211601D01*
X101002148Y-87183140D01*
%TO.C,D16*%
X177264863Y-83334711D02*
X176922843Y-82395019D01*
X176699107Y-82476452D01*
X176581152Y-82570059D01*
X176524230Y-82692127D01*
X176512057Y-82797908D01*
X176532456Y-82993184D01*
X176581316Y-83127426D01*
X176691210Y-83290128D01*
X176768531Y-83363336D01*
X176890598Y-83420257D01*
X177041127Y-83416145D01*
X177264863Y-83334711D01*
X175832951Y-83855885D02*
X176369918Y-83660445D01*
X176101434Y-83758165D02*
X175759414Y-82818472D01*
X175897769Y-82920141D01*
X176019837Y-82977062D01*
X176125618Y-82989236D01*
X174685480Y-83209352D02*
X174864469Y-83144206D01*
X174970250Y-83156380D01*
X175031284Y-83184840D01*
X175169638Y-83286509D01*
X175279532Y-83449211D01*
X175409826Y-83807189D01*
X175397652Y-83912970D01*
X175369191Y-83974004D01*
X175295983Y-84051325D01*
X175116994Y-84116472D01*
X175011213Y-84104298D01*
X174950179Y-84075837D01*
X174872859Y-84002629D01*
X174791425Y-83778893D01*
X174803599Y-83673112D01*
X174832060Y-83612078D01*
X174905268Y-83534757D01*
X175084257Y-83469611D01*
X175190038Y-83481784D01*
X175251072Y-83510245D01*
X175328392Y-83583453D01*
%TO.C,D17*%
X193797927Y-73060457D02*
X193455907Y-72120765D01*
X193232171Y-72202198D01*
X193114216Y-72295805D01*
X193057294Y-72417873D01*
X193045121Y-72523654D01*
X193065520Y-72718930D01*
X193114380Y-72853172D01*
X193224274Y-73015874D01*
X193301595Y-73089082D01*
X193423662Y-73146003D01*
X193574191Y-73141891D01*
X193797927Y-73060457D01*
X192366015Y-73581631D02*
X192902982Y-73386191D01*
X192634498Y-73483911D02*
X192292478Y-72544218D01*
X192430833Y-72645887D01*
X192552901Y-72702808D01*
X192658682Y-72714982D01*
X191710764Y-72755945D02*
X191084302Y-72983958D01*
X191829047Y-73777071D01*
%TO.C,D18*%
X209646950Y-60906818D02*
X209304930Y-59967126D01*
X209081194Y-60048559D01*
X208963239Y-60142166D01*
X208906317Y-60264234D01*
X208894144Y-60370015D01*
X208914543Y-60565291D01*
X208963403Y-60699533D01*
X209073297Y-60862235D01*
X209150618Y-60935443D01*
X209272685Y-60992364D01*
X209423214Y-60988252D01*
X209646950Y-60906818D01*
X208215038Y-61427992D02*
X208752005Y-61232552D01*
X208483521Y-61330272D02*
X208141501Y-60390579D01*
X208279856Y-60492248D01*
X208401924Y-60549169D01*
X208507705Y-60561343D01*
X207482630Y-61086465D02*
X207555838Y-61009144D01*
X207584299Y-60948110D01*
X207596473Y-60842329D01*
X207580186Y-60797582D01*
X207502865Y-60724374D01*
X207441832Y-60695913D01*
X207336050Y-60683739D01*
X207157061Y-60748886D01*
X207083853Y-60826207D01*
X207055393Y-60887241D01*
X207043219Y-60993022D01*
X207059506Y-61037769D01*
X207136826Y-61110977D01*
X207197860Y-61139438D01*
X207303641Y-61151611D01*
X207482630Y-61086465D01*
X207588412Y-61098639D01*
X207649446Y-61127099D01*
X207726766Y-61200307D01*
X207791913Y-61379296D01*
X207779739Y-61485077D01*
X207751278Y-61546111D01*
X207678070Y-61623432D01*
X207499081Y-61688579D01*
X207393300Y-61676405D01*
X207332266Y-61647944D01*
X207254946Y-61574736D01*
X207189799Y-61395747D01*
X207201973Y-61289966D01*
X207230433Y-61228932D01*
X207303641Y-61151611D01*
%TO.C,D19*%
X228916175Y-58150104D02*
X228574155Y-57210412D01*
X228350419Y-57291845D01*
X228232464Y-57385452D01*
X228175542Y-57507520D01*
X228163369Y-57613301D01*
X228183768Y-57808577D01*
X228232628Y-57942819D01*
X228342522Y-58105521D01*
X228419843Y-58178729D01*
X228541910Y-58235650D01*
X228692439Y-58231538D01*
X228916175Y-58150104D01*
X227484263Y-58671278D02*
X228021230Y-58475838D01*
X227752746Y-58573558D02*
X227410726Y-57633865D01*
X227549081Y-57735534D01*
X227671149Y-57792455D01*
X227776930Y-57804629D01*
X227036790Y-58834145D02*
X226857801Y-58899291D01*
X226752020Y-58887117D01*
X226690986Y-58858657D01*
X226552631Y-58756988D01*
X226442737Y-58594286D01*
X226312444Y-58236308D01*
X226324618Y-58130527D01*
X226353078Y-58069493D01*
X226426286Y-57992172D01*
X226605275Y-57927025D01*
X226711057Y-57939199D01*
X226772090Y-57967660D01*
X226849411Y-58040868D01*
X226930844Y-58264604D01*
X226918671Y-58370385D01*
X226890210Y-58431419D01*
X226817002Y-58508740D01*
X226638013Y-58573887D01*
X226532232Y-58561713D01*
X226471198Y-58533252D01*
X226393877Y-58460044D01*
%TO.C,D20*%
X250237521Y-61031547D02*
X249895501Y-60091855D01*
X249671765Y-60173288D01*
X249553810Y-60266895D01*
X249496888Y-60388963D01*
X249484715Y-60494744D01*
X249505114Y-60690020D01*
X249553974Y-60824262D01*
X249663868Y-60986964D01*
X249741189Y-61060172D01*
X249863256Y-61117093D01*
X250013785Y-61112981D01*
X250237521Y-61031547D01*
X249033129Y-60507083D02*
X248972095Y-60478622D01*
X248866314Y-60466448D01*
X248642578Y-60547882D01*
X248569370Y-60625202D01*
X248540909Y-60686236D01*
X248528735Y-60792017D01*
X248561309Y-60881512D01*
X248654916Y-60999467D01*
X249387323Y-61340994D01*
X248805609Y-61552721D01*
X247881874Y-60824755D02*
X247792380Y-60857328D01*
X247719172Y-60934649D01*
X247690711Y-60995683D01*
X247678537Y-61101464D01*
X247698937Y-61296740D01*
X247780370Y-61520476D01*
X247890264Y-61683179D01*
X247967584Y-61756387D01*
X248028618Y-61784847D01*
X248134400Y-61797021D01*
X248223894Y-61764448D01*
X248297102Y-61687127D01*
X248325563Y-61626093D01*
X248337737Y-61520312D01*
X248317337Y-61325036D01*
X248235904Y-61101300D01*
X248126010Y-60938597D01*
X248048689Y-60865390D01*
X247987655Y-60836929D01*
X247881874Y-60824755D01*
%TO.C,D21*%
X23271323Y-83522082D02*
X23613344Y-82582389D01*
X23389607Y-82500956D01*
X23239079Y-82496843D01*
X23117011Y-82553764D01*
X23039690Y-82626972D01*
X22929796Y-82789674D01*
X22880936Y-82923916D01*
X22860537Y-83119192D01*
X22872711Y-83224973D01*
X22929632Y-83347041D01*
X23047587Y-83440648D01*
X23271323Y-83522082D01*
X22685825Y-82346150D02*
X22657364Y-82285116D01*
X22584156Y-82207796D01*
X22360420Y-82126362D01*
X22254639Y-82138536D01*
X22193605Y-82166997D01*
X22116284Y-82240205D01*
X22083711Y-82329699D01*
X22079598Y-82480228D01*
X22421125Y-83212635D01*
X21839411Y-83000908D01*
X20944466Y-82675175D02*
X21481433Y-82870615D01*
X21212949Y-82772895D02*
X21554969Y-81833202D01*
X21595604Y-82000017D01*
X21652525Y-82122085D01*
X21725733Y-82199406D01*
%TO.C,D22*%
X44592669Y-80640640D02*
X44934690Y-79700947D01*
X44710953Y-79619514D01*
X44560425Y-79615401D01*
X44438357Y-79672322D01*
X44361036Y-79745530D01*
X44251142Y-79908232D01*
X44202282Y-80042474D01*
X44181883Y-80237750D01*
X44194057Y-80343531D01*
X44250978Y-80465599D01*
X44368933Y-80559206D01*
X44592669Y-80640640D01*
X44007171Y-79464708D02*
X43978710Y-79403674D01*
X43905502Y-79326354D01*
X43681766Y-79244920D01*
X43575985Y-79257094D01*
X43514951Y-79285555D01*
X43437630Y-79358763D01*
X43405057Y-79448257D01*
X43400944Y-79598786D01*
X43742471Y-80331193D01*
X43160757Y-80119466D01*
X43112226Y-79138975D02*
X43083765Y-79077941D01*
X43010557Y-79000620D01*
X42786821Y-78919187D01*
X42681040Y-78931361D01*
X42620006Y-78959821D01*
X42542685Y-79033029D01*
X42510112Y-79122524D01*
X42505999Y-79273052D01*
X42847526Y-80005459D01*
X42265812Y-79793733D01*
%TO.C,D23*%
X63861894Y-83397353D02*
X64203915Y-82457660D01*
X63980178Y-82376227D01*
X63829650Y-82372114D01*
X63707582Y-82429035D01*
X63630261Y-82502243D01*
X63520367Y-82664945D01*
X63471507Y-82799187D01*
X63451108Y-82994463D01*
X63463282Y-83100244D01*
X63520203Y-83222312D01*
X63638158Y-83315919D01*
X63861894Y-83397353D01*
X63276396Y-82221421D02*
X63247935Y-82160387D01*
X63174727Y-82083067D01*
X62950991Y-82001633D01*
X62845210Y-82013807D01*
X62784176Y-82042268D01*
X62706855Y-82115476D01*
X62674282Y-82204970D01*
X62670169Y-82355499D01*
X63011696Y-83087906D01*
X62429982Y-82876179D01*
X62458771Y-81822480D02*
X61877057Y-81610753D01*
X62059994Y-82082738D01*
X61925752Y-82033878D01*
X61819971Y-82046052D01*
X61758937Y-82074512D01*
X61681617Y-82147720D01*
X61600183Y-82371457D01*
X61612357Y-82477238D01*
X61640818Y-82538272D01*
X61714026Y-82615592D01*
X61982509Y-82713312D01*
X62088290Y-82701139D01*
X62149324Y-82672678D01*
%TO.C,D24*%
X79710917Y-95550993D02*
X80052938Y-94611300D01*
X79829201Y-94529867D01*
X79678673Y-94525754D01*
X79556605Y-94582675D01*
X79479284Y-94655883D01*
X79369390Y-94818585D01*
X79320530Y-94952827D01*
X79300131Y-95148103D01*
X79312305Y-95253884D01*
X79369226Y-95375952D01*
X79487181Y-95469559D01*
X79710917Y-95550993D01*
X79125419Y-94375061D02*
X79096958Y-94314027D01*
X79023750Y-94236707D01*
X78800014Y-94155273D01*
X78694233Y-94167447D01*
X78633199Y-94195908D01*
X78555878Y-94269116D01*
X78523305Y-94358610D01*
X78519192Y-94509139D01*
X78860719Y-95241546D01*
X78279005Y-95029819D01*
X77701567Y-94110197D02*
X77473554Y-94736659D01*
X78055597Y-93833653D02*
X78035033Y-94586295D01*
X77453319Y-94374568D01*
%TO.C,D25*%
X96243981Y-105825247D02*
X96586002Y-104885554D01*
X96362265Y-104804121D01*
X96211737Y-104800008D01*
X96089669Y-104856929D01*
X96012348Y-104930137D01*
X95902454Y-105092839D01*
X95853594Y-105227081D01*
X95833195Y-105422357D01*
X95845369Y-105528138D01*
X95902290Y-105650206D01*
X96020245Y-105743813D01*
X96243981Y-105825247D01*
X95658483Y-104649315D02*
X95630022Y-104588281D01*
X95556814Y-104510961D01*
X95333078Y-104429527D01*
X95227297Y-104441701D01*
X95166263Y-104470162D01*
X95088942Y-104543370D01*
X95056369Y-104632864D01*
X95052256Y-104783393D01*
X95393783Y-105515800D01*
X94812069Y-105304073D01*
X94303891Y-104054934D02*
X94751364Y-104217800D01*
X94633244Y-104681560D01*
X94604784Y-104620526D01*
X94531576Y-104543205D01*
X94307839Y-104461772D01*
X94202058Y-104473946D01*
X94141024Y-104502406D01*
X94063704Y-104575614D01*
X93982270Y-104799351D01*
X93994444Y-104905132D01*
X94022905Y-104966166D01*
X94096113Y-105043486D01*
X94319849Y-105124920D01*
X94425630Y-105112746D01*
X94486664Y-105084285D01*
%TO.C,D26*%
X183780347Y-101235856D02*
X183438327Y-100296164D01*
X183214591Y-100377597D01*
X183096636Y-100471204D01*
X183039714Y-100593272D01*
X183027541Y-100699053D01*
X183047940Y-100894329D01*
X183096800Y-101028571D01*
X183206694Y-101191273D01*
X183284015Y-101264481D01*
X183406082Y-101321402D01*
X183556611Y-101317290D01*
X183780347Y-101235856D01*
X182575955Y-100711392D02*
X182514921Y-100682931D01*
X182409140Y-100670757D01*
X182185404Y-100752191D01*
X182112196Y-100829511D01*
X182083735Y-100890545D01*
X182071561Y-100996326D01*
X182104135Y-101085821D01*
X182197742Y-101203776D01*
X182930149Y-101545303D01*
X182348435Y-101757030D01*
X181200964Y-101110497D02*
X181379953Y-101045351D01*
X181485734Y-101057525D01*
X181546768Y-101085985D01*
X181685122Y-101187654D01*
X181795016Y-101350356D01*
X181925310Y-101708334D01*
X181913136Y-101814115D01*
X181884675Y-101875149D01*
X181811467Y-101952470D01*
X181632478Y-102017617D01*
X181526697Y-102005443D01*
X181465663Y-101976982D01*
X181388343Y-101903774D01*
X181306909Y-101680038D01*
X181319083Y-101574257D01*
X181347544Y-101513223D01*
X181420752Y-101435902D01*
X181599741Y-101370756D01*
X181705522Y-101382929D01*
X181766556Y-101411390D01*
X181843876Y-101484598D01*
%TO.C,D27*%
X200313410Y-90961602D02*
X199971390Y-90021910D01*
X199747654Y-90103343D01*
X199629699Y-90196950D01*
X199572777Y-90319018D01*
X199560604Y-90424799D01*
X199581003Y-90620075D01*
X199629863Y-90754317D01*
X199739757Y-90917019D01*
X199817078Y-90990227D01*
X199939145Y-91047148D01*
X200089674Y-91043036D01*
X200313410Y-90961602D01*
X199109018Y-90437138D02*
X199047984Y-90408677D01*
X198942203Y-90396503D01*
X198718467Y-90477937D01*
X198645259Y-90555257D01*
X198616798Y-90616291D01*
X198604624Y-90722072D01*
X198637198Y-90811567D01*
X198730805Y-90929522D01*
X199463212Y-91271049D01*
X198881498Y-91482776D01*
X198226247Y-90657090D02*
X197599785Y-90885103D01*
X198344530Y-91678216D01*
%TO.C,D28*%
X216162434Y-78807962D02*
X215820414Y-77868270D01*
X215596678Y-77949703D01*
X215478723Y-78043310D01*
X215421801Y-78165378D01*
X215409628Y-78271159D01*
X215430027Y-78466435D01*
X215478887Y-78600677D01*
X215588781Y-78763379D01*
X215666102Y-78836587D01*
X215788169Y-78893508D01*
X215938698Y-78889396D01*
X216162434Y-78807962D01*
X214958042Y-78283498D02*
X214897008Y-78255037D01*
X214791227Y-78242863D01*
X214567491Y-78324297D01*
X214494283Y-78401617D01*
X214465822Y-78462651D01*
X214453648Y-78568432D01*
X214486222Y-78657927D01*
X214579829Y-78775882D01*
X215312236Y-79117409D01*
X214730522Y-79329136D01*
X213998114Y-78987609D02*
X214071322Y-78910288D01*
X214099783Y-78849254D01*
X214111957Y-78743473D01*
X214095670Y-78698726D01*
X214018349Y-78625518D01*
X213957316Y-78597057D01*
X213851534Y-78584883D01*
X213672545Y-78650030D01*
X213599337Y-78727351D01*
X213570877Y-78788385D01*
X213558703Y-78894166D01*
X213574990Y-78938913D01*
X213652310Y-79012121D01*
X213713344Y-79040582D01*
X213819125Y-79052755D01*
X213998114Y-78987609D01*
X214103896Y-78999783D01*
X214164930Y-79028243D01*
X214242250Y-79101451D01*
X214307397Y-79280440D01*
X214295223Y-79386221D01*
X214266762Y-79447255D01*
X214193554Y-79524576D01*
X214014565Y-79589723D01*
X213908784Y-79577549D01*
X213847750Y-79549088D01*
X213770430Y-79475880D01*
X213705283Y-79296891D01*
X213717457Y-79191110D01*
X213745917Y-79130076D01*
X213819125Y-79052755D01*
%TO.C,D29*%
X235431659Y-76051249D02*
X235089639Y-75111557D01*
X234865903Y-75192990D01*
X234747948Y-75286597D01*
X234691026Y-75408665D01*
X234678853Y-75514446D01*
X234699252Y-75709722D01*
X234748112Y-75843964D01*
X234858006Y-76006666D01*
X234935327Y-76079874D01*
X235057394Y-76136795D01*
X235207923Y-76132683D01*
X235431659Y-76051249D01*
X234227267Y-75526785D02*
X234166233Y-75498324D01*
X234060452Y-75486150D01*
X233836716Y-75567584D01*
X233763508Y-75644904D01*
X233735047Y-75705938D01*
X233722873Y-75811719D01*
X233755447Y-75901214D01*
X233849054Y-76019169D01*
X234581461Y-76360696D01*
X233999747Y-76572423D01*
X233552274Y-76735290D02*
X233373285Y-76800436D01*
X233267504Y-76788262D01*
X233206470Y-76759802D01*
X233068115Y-76658133D01*
X232958221Y-76495431D01*
X232827928Y-76137453D01*
X232840102Y-76031672D01*
X232868562Y-75970638D01*
X232941770Y-75893317D01*
X233120759Y-75828170D01*
X233226541Y-75840344D01*
X233287574Y-75868805D01*
X233364895Y-75942013D01*
X233446328Y-76165749D01*
X233434155Y-76271530D01*
X233405694Y-76332564D01*
X233332486Y-76409885D01*
X233153497Y-76475032D01*
X233047716Y-76462858D01*
X232986682Y-76434397D01*
X232909361Y-76361189D01*
%TO.C,D30*%
X256753005Y-78932691D02*
X256410985Y-77992999D01*
X256187249Y-78074432D01*
X256069294Y-78168039D01*
X256012372Y-78290107D01*
X256000199Y-78395888D01*
X256020598Y-78591164D01*
X256069458Y-78725406D01*
X256179352Y-78888108D01*
X256256673Y-78961316D01*
X256378740Y-79018237D01*
X256529269Y-79014125D01*
X256753005Y-78932691D01*
X255560787Y-78302446D02*
X254979073Y-78514172D01*
X255422597Y-78758144D01*
X255288355Y-78807004D01*
X255215147Y-78884324D01*
X255186687Y-78945358D01*
X255174513Y-79051140D01*
X255255946Y-79274876D01*
X255333267Y-79348084D01*
X255394301Y-79376544D01*
X255500082Y-79388718D01*
X255768565Y-79290998D01*
X255841773Y-79213678D01*
X255870234Y-79152644D01*
X254397358Y-78725899D02*
X254307864Y-78758472D01*
X254234656Y-78835793D01*
X254206195Y-78896827D01*
X254194021Y-79002608D01*
X254214421Y-79197884D01*
X254295854Y-79421620D01*
X254405748Y-79584323D01*
X254483068Y-79657531D01*
X254544102Y-79685991D01*
X254649884Y-79698165D01*
X254739378Y-79665592D01*
X254812586Y-79588271D01*
X254841047Y-79527237D01*
X254853221Y-79421456D01*
X254832821Y-79226180D01*
X254751388Y-79002444D01*
X254641494Y-78839741D01*
X254564173Y-78766534D01*
X254503139Y-78738073D01*
X254397358Y-78725899D01*
%TO.C,D31*%
X79409845Y-124227420D02*
X79751866Y-123287727D01*
X79528129Y-123206294D01*
X79377601Y-123202181D01*
X79255533Y-123259102D01*
X79178212Y-123332310D01*
X79068318Y-123495012D01*
X79019458Y-123629254D01*
X78999059Y-123824530D01*
X79011233Y-123930311D01*
X79068154Y-124052379D01*
X79186109Y-124145986D01*
X79409845Y-124227420D01*
X78901667Y-122978280D02*
X78319953Y-122766554D01*
X78502890Y-123238538D01*
X78368649Y-123189678D01*
X78262867Y-123201852D01*
X78201834Y-123230313D01*
X78124513Y-123303521D01*
X78043080Y-123527257D01*
X78055253Y-123633038D01*
X78083714Y-123694072D01*
X78156922Y-123771393D01*
X78425406Y-123869113D01*
X78531187Y-123856939D01*
X78592221Y-123828478D01*
X77082988Y-123380513D02*
X77619955Y-123575953D01*
X77351471Y-123478233D02*
X77693491Y-122538540D01*
X77734126Y-122705355D01*
X77791047Y-122827423D01*
X77864255Y-122904744D01*
%TO.C,D32*%
X96635836Y-134612160D02*
X97278624Y-133846116D01*
X97096233Y-133693071D01*
X96956189Y-133637723D01*
X96822014Y-133649461D01*
X96724318Y-133691809D01*
X96565404Y-133807113D01*
X96473577Y-133916548D01*
X96387620Y-134093070D01*
X96362880Y-134196636D01*
X96374619Y-134330810D01*
X96453445Y-134459116D01*
X96635836Y-134612160D01*
X96585536Y-133264546D02*
X96111318Y-132866630D01*
X96121795Y-133372719D01*
X96012360Y-133280892D01*
X95908794Y-133256153D01*
X95841707Y-133262022D01*
X95744011Y-133304370D01*
X95590966Y-133486761D01*
X95566227Y-133590327D01*
X95572096Y-133657414D01*
X95614444Y-133755110D01*
X95833314Y-133938764D01*
X95936879Y-133963503D01*
X96003966Y-133957634D01*
X95758274Y-132694715D02*
X95752405Y-132627628D01*
X95710057Y-132529932D01*
X95527665Y-132376887D01*
X95424100Y-132352147D01*
X95357013Y-132358017D01*
X95259316Y-132400364D01*
X95198099Y-132473321D01*
X95142750Y-132613365D01*
X95213182Y-133418412D01*
X94738964Y-133020496D01*
%TO.C,D33*%
X182687313Y-134077056D02*
X182044526Y-133311011D01*
X181862134Y-133464056D01*
X181783308Y-133592361D01*
X181771569Y-133726535D01*
X181796309Y-133830101D01*
X181882266Y-134006623D01*
X181974093Y-134116058D01*
X182133007Y-134231362D01*
X182230703Y-134273710D01*
X182364878Y-134285449D01*
X182504922Y-134230100D01*
X182687313Y-134077056D01*
X181351438Y-133892581D02*
X180877220Y-134290497D01*
X181377439Y-134368061D01*
X181268004Y-134459888D01*
X181225657Y-134557584D01*
X181219787Y-134624671D01*
X181244527Y-134728237D01*
X181397572Y-134910628D01*
X181495268Y-134952976D01*
X181562355Y-134958845D01*
X181665921Y-134934106D01*
X181884790Y-134750452D01*
X181927138Y-134652756D01*
X181933007Y-134585669D01*
X180621872Y-134504760D02*
X180147654Y-134902676D01*
X180647873Y-134980240D01*
X180538438Y-135072066D01*
X180496091Y-135169763D01*
X180490221Y-135236850D01*
X180514961Y-135340415D01*
X180668006Y-135522807D01*
X180765702Y-135565155D01*
X180832789Y-135571024D01*
X180936354Y-135546284D01*
X181155224Y-135362631D01*
X181197572Y-135264935D01*
X181203441Y-135197847D01*
%TO.C,D34*%
X200353818Y-123936173D02*
X200011798Y-122996481D01*
X199788062Y-123077914D01*
X199670107Y-123171521D01*
X199613185Y-123293589D01*
X199601012Y-123399370D01*
X199621411Y-123594646D01*
X199670271Y-123728888D01*
X199780165Y-123891590D01*
X199857486Y-123964798D01*
X199979553Y-124021719D01*
X200130082Y-124017607D01*
X200353818Y-123936173D01*
X199161600Y-123305928D02*
X198579886Y-123517654D01*
X199023410Y-123761626D01*
X198889168Y-123810486D01*
X198815960Y-123887806D01*
X198787500Y-123948840D01*
X198775326Y-124054622D01*
X198856759Y-124278358D01*
X198934080Y-124351566D01*
X198995114Y-124380026D01*
X199100895Y-124392200D01*
X199369378Y-124294480D01*
X199442586Y-124217160D01*
X199471047Y-124156126D01*
X197888441Y-124124045D02*
X198116455Y-124750507D01*
X197981884Y-123684634D02*
X198449921Y-124274409D01*
X197868206Y-124486136D01*
%TD*%
M02*
