%TF.GenerationSoftware,KiCad,Pcbnew,(5.1.10-1-10_14)*%
%TF.CreationDate,2022-05-14T22:17:57+08:00*%
%TF.ProjectId,k34,6b33342e-6b69-4636-9164-5f7063625858,rev?*%
%TF.SameCoordinates,Original*%
%TF.FileFunction,Legend,Top*%
%TF.FilePolarity,Positive*%
%FSLAX46Y46*%
G04 Gerber Fmt 4.6, Leading zero omitted, Abs format (unit mm)*
G04 Created by KiCad (PCBNEW (5.1.10-1-10_14)) date 2022-05-14 22:17:57*
%MOMM*%
%LPD*%
G01*
G04 APERTURE LIST*
%ADD10C,0.381000*%
%ADD11C,0.150000*%
%ADD12C,0.300000*%
G04 APERTURE END LIST*
D10*
%TO.C,U1*%
X130665149Y-57220000D02*
X130665149Y-59760000D01*
X148445149Y-57220000D02*
X130665149Y-57220000D01*
X148445149Y-59760000D02*
X148445149Y-57220000D01*
X148445149Y-90240000D02*
X148445149Y-59760000D01*
X130665149Y-90240000D02*
X148445149Y-90240000D01*
X130665149Y-59760000D02*
X130665149Y-90240000D01*
D11*
X133217959Y-60591904D02*
X133294149Y-60591904D01*
X133370339Y-60630000D01*
X133408435Y-60668095D01*
X133446530Y-60744285D01*
X133484625Y-60896666D01*
X133484625Y-61087142D01*
X133446530Y-61239523D01*
X133408435Y-61315714D01*
X133370339Y-61353809D01*
X133294149Y-61391904D01*
X133217959Y-61391904D01*
X133141768Y-61353809D01*
X133103673Y-61315714D01*
X133065578Y-61239523D01*
X133027482Y-61087142D01*
X133027482Y-60896666D01*
X133065578Y-60744285D01*
X133103673Y-60668095D01*
X133141768Y-60630000D01*
X133217959Y-60591904D01*
X133979863Y-60591904D02*
X134056054Y-60591904D01*
X134132244Y-60630000D01*
X134170339Y-60668095D01*
X134208435Y-60744285D01*
X134246530Y-60896666D01*
X134246530Y-61087142D01*
X134208435Y-61239523D01*
X134170339Y-61315714D01*
X134132244Y-61353809D01*
X134056054Y-61391904D01*
X133979863Y-61391904D01*
X133903673Y-61353809D01*
X133865578Y-61315714D01*
X133827482Y-61239523D01*
X133789387Y-61087142D01*
X133789387Y-60896666D01*
X133827482Y-60744285D01*
X133865578Y-60668095D01*
X133903673Y-60630000D01*
X133979863Y-60591904D01*
X134932244Y-60591904D02*
X134779863Y-60591904D01*
X134703673Y-60630000D01*
X134665578Y-60668095D01*
X134589387Y-60782380D01*
X134551292Y-60934761D01*
X134551292Y-61239523D01*
X134589387Y-61315714D01*
X134627482Y-61353809D01*
X134703673Y-61391904D01*
X134856054Y-61391904D01*
X134932244Y-61353809D01*
X134970339Y-61315714D01*
X135008435Y-61239523D01*
X135008435Y-61049047D01*
X134970339Y-60972857D01*
X134932244Y-60934761D01*
X134856054Y-60896666D01*
X134703673Y-60896666D01*
X134627482Y-60934761D01*
X134589387Y-60972857D01*
X134551292Y-61049047D01*
X133217959Y-63061904D02*
X133294149Y-63061904D01*
X133370339Y-63100000D01*
X133408435Y-63138095D01*
X133446530Y-63214285D01*
X133484625Y-63366666D01*
X133484625Y-63557142D01*
X133446530Y-63709523D01*
X133408435Y-63785714D01*
X133370339Y-63823809D01*
X133294149Y-63861904D01*
X133217959Y-63861904D01*
X133141768Y-63823809D01*
X133103673Y-63785714D01*
X133065578Y-63709523D01*
X133027482Y-63557142D01*
X133027482Y-63366666D01*
X133065578Y-63214285D01*
X133103673Y-63138095D01*
X133141768Y-63100000D01*
X133217959Y-63061904D01*
X133979863Y-63061904D02*
X134056054Y-63061904D01*
X134132244Y-63100000D01*
X134170339Y-63138095D01*
X134208435Y-63214285D01*
X134246530Y-63366666D01*
X134246530Y-63557142D01*
X134208435Y-63709523D01*
X134170339Y-63785714D01*
X134132244Y-63823809D01*
X134056054Y-63861904D01*
X133979863Y-63861904D01*
X133903673Y-63823809D01*
X133865578Y-63785714D01*
X133827482Y-63709523D01*
X133789387Y-63557142D01*
X133789387Y-63366666D01*
X133827482Y-63214285D01*
X133865578Y-63138095D01*
X133903673Y-63100000D01*
X133979863Y-63061904D01*
X134703673Y-63404761D02*
X134627482Y-63366666D01*
X134589387Y-63328571D01*
X134551292Y-63252380D01*
X134551292Y-63214285D01*
X134589387Y-63138095D01*
X134627482Y-63100000D01*
X134703673Y-63061904D01*
X134856054Y-63061904D01*
X134932244Y-63100000D01*
X134970339Y-63138095D01*
X135008435Y-63214285D01*
X135008435Y-63252380D01*
X134970339Y-63328571D01*
X134932244Y-63366666D01*
X134856054Y-63404761D01*
X134703673Y-63404761D01*
X134627482Y-63442857D01*
X134589387Y-63480952D01*
X134551292Y-63557142D01*
X134551292Y-63709523D01*
X134589387Y-63785714D01*
X134627482Y-63823809D01*
X134703673Y-63861904D01*
X134856054Y-63861904D01*
X134932244Y-63823809D01*
X134970339Y-63785714D01*
X135008435Y-63709523D01*
X135008435Y-63557142D01*
X134970339Y-63480952D01*
X134932244Y-63442857D01*
X134856054Y-63404761D01*
X133217959Y-73361904D02*
X133294149Y-73361904D01*
X133370339Y-73400000D01*
X133408435Y-73438095D01*
X133446530Y-73514285D01*
X133484625Y-73666666D01*
X133484625Y-73857142D01*
X133446530Y-74009523D01*
X133408435Y-74085714D01*
X133370339Y-74123809D01*
X133294149Y-74161904D01*
X133217959Y-74161904D01*
X133141768Y-74123809D01*
X133103673Y-74085714D01*
X133065578Y-74009523D01*
X133027482Y-73857142D01*
X133027482Y-73666666D01*
X133065578Y-73514285D01*
X133103673Y-73438095D01*
X133141768Y-73400000D01*
X133217959Y-73361904D01*
X133789387Y-73438095D02*
X133827482Y-73400000D01*
X133903673Y-73361904D01*
X134094149Y-73361904D01*
X134170339Y-73400000D01*
X134208435Y-73438095D01*
X134246530Y-73514285D01*
X134246530Y-73590476D01*
X134208435Y-73704761D01*
X133751292Y-74161904D01*
X134246530Y-74161904D01*
X134741768Y-73361904D02*
X134817959Y-73361904D01*
X134894149Y-73400000D01*
X134932244Y-73438095D01*
X134970339Y-73514285D01*
X135008435Y-73666666D01*
X135008435Y-73857142D01*
X134970339Y-74009523D01*
X134932244Y-74085714D01*
X134894149Y-74123809D01*
X134817959Y-74161904D01*
X134741768Y-74161904D01*
X134665578Y-74123809D01*
X134627482Y-74085714D01*
X134589387Y-74009523D01*
X134551292Y-73857142D01*
X134551292Y-73666666D01*
X134589387Y-73514285D01*
X134627482Y-73438095D01*
X134665578Y-73400000D01*
X134741768Y-73361904D01*
X133217959Y-70761904D02*
X133294149Y-70761904D01*
X133370339Y-70800000D01*
X133408435Y-70838095D01*
X133446530Y-70914285D01*
X133484625Y-71066666D01*
X133484625Y-71257142D01*
X133446530Y-71409523D01*
X133408435Y-71485714D01*
X133370339Y-71523809D01*
X133294149Y-71561904D01*
X133217959Y-71561904D01*
X133141768Y-71523809D01*
X133103673Y-71485714D01*
X133065578Y-71409523D01*
X133027482Y-71257142D01*
X133027482Y-71066666D01*
X133065578Y-70914285D01*
X133103673Y-70838095D01*
X133141768Y-70800000D01*
X133217959Y-70761904D01*
X134246530Y-71561904D02*
X133789387Y-71561904D01*
X134017959Y-71561904D02*
X134017959Y-70761904D01*
X133941768Y-70876190D01*
X133865578Y-70952380D01*
X133789387Y-70990476D01*
X134513197Y-70761904D02*
X135046530Y-70761904D01*
X134703673Y-71561904D01*
X133484625Y-68250000D02*
X133408434Y-68211904D01*
X133294149Y-68211904D01*
X133179863Y-68250000D01*
X133103672Y-68326190D01*
X133065577Y-68402380D01*
X133027482Y-68554761D01*
X133027482Y-68669047D01*
X133065577Y-68821428D01*
X133103672Y-68897619D01*
X133179863Y-68973809D01*
X133294149Y-69011904D01*
X133370339Y-69011904D01*
X133484625Y-68973809D01*
X133522720Y-68935714D01*
X133522720Y-68669047D01*
X133370339Y-68669047D01*
X133865577Y-69011904D02*
X133865577Y-68211904D01*
X134322720Y-69011904D01*
X134322720Y-68211904D01*
X134703672Y-69011904D02*
X134703672Y-68211904D01*
X134894149Y-68211904D01*
X135008434Y-68250000D01*
X135084625Y-68326190D01*
X135122720Y-68402380D01*
X135160815Y-68554761D01*
X135160815Y-68669047D01*
X135122720Y-68821428D01*
X135084625Y-68897619D01*
X135008434Y-68973809D01*
X134894149Y-69011904D01*
X134703672Y-69011904D01*
X133484625Y-65710000D02*
X133408434Y-65671904D01*
X133294149Y-65671904D01*
X133179863Y-65710000D01*
X133103672Y-65786190D01*
X133065577Y-65862380D01*
X133027482Y-66014761D01*
X133027482Y-66129047D01*
X133065577Y-66281428D01*
X133103672Y-66357619D01*
X133179863Y-66433809D01*
X133294149Y-66471904D01*
X133370339Y-66471904D01*
X133484625Y-66433809D01*
X133522720Y-66395714D01*
X133522720Y-66129047D01*
X133370339Y-66129047D01*
X133865577Y-66471904D02*
X133865577Y-65671904D01*
X134322720Y-66471904D01*
X134322720Y-65671904D01*
X134703672Y-66471904D02*
X134703672Y-65671904D01*
X134894149Y-65671904D01*
X135008434Y-65710000D01*
X135084625Y-65786190D01*
X135122720Y-65862380D01*
X135160815Y-66014761D01*
X135160815Y-66129047D01*
X135122720Y-66281428D01*
X135084625Y-66357619D01*
X135008434Y-66433809D01*
X134894149Y-66471904D01*
X134703672Y-66471904D01*
X133217959Y-75861904D02*
X133294149Y-75861904D01*
X133370339Y-75900000D01*
X133408435Y-75938095D01*
X133446530Y-76014285D01*
X133484625Y-76166666D01*
X133484625Y-76357142D01*
X133446530Y-76509523D01*
X133408435Y-76585714D01*
X133370339Y-76623809D01*
X133294149Y-76661904D01*
X133217959Y-76661904D01*
X133141768Y-76623809D01*
X133103673Y-76585714D01*
X133065578Y-76509523D01*
X133027482Y-76357142D01*
X133027482Y-76166666D01*
X133065578Y-76014285D01*
X133103673Y-75938095D01*
X133141768Y-75900000D01*
X133217959Y-75861904D01*
X133789387Y-75938095D02*
X133827482Y-75900000D01*
X133903673Y-75861904D01*
X134094149Y-75861904D01*
X134170339Y-75900000D01*
X134208435Y-75938095D01*
X134246530Y-76014285D01*
X134246530Y-76090476D01*
X134208435Y-76204761D01*
X133751292Y-76661904D01*
X134246530Y-76661904D01*
X134551292Y-75938095D02*
X134589387Y-75900000D01*
X134665578Y-75861904D01*
X134856054Y-75861904D01*
X134932244Y-75900000D01*
X134970339Y-75938095D01*
X135008435Y-76014285D01*
X135008435Y-76090476D01*
X134970339Y-76204761D01*
X134513197Y-76661904D01*
X135008435Y-76661904D01*
X133217959Y-78371904D02*
X133294149Y-78371904D01*
X133370339Y-78410000D01*
X133408435Y-78448095D01*
X133446530Y-78524285D01*
X133484625Y-78676666D01*
X133484625Y-78867142D01*
X133446530Y-79019523D01*
X133408435Y-79095714D01*
X133370339Y-79133809D01*
X133294149Y-79171904D01*
X133217959Y-79171904D01*
X133141768Y-79133809D01*
X133103673Y-79095714D01*
X133065578Y-79019523D01*
X133027482Y-78867142D01*
X133027482Y-78676666D01*
X133065578Y-78524285D01*
X133103673Y-78448095D01*
X133141768Y-78410000D01*
X133217959Y-78371904D01*
X133789387Y-78448095D02*
X133827482Y-78410000D01*
X133903673Y-78371904D01*
X134094149Y-78371904D01*
X134170339Y-78410000D01*
X134208435Y-78448095D01*
X134246530Y-78524285D01*
X134246530Y-78600476D01*
X134208435Y-78714761D01*
X133751292Y-79171904D01*
X134246530Y-79171904D01*
X134932244Y-78638571D02*
X134932244Y-79171904D01*
X134741768Y-78333809D02*
X134551292Y-78905238D01*
X135046530Y-78905238D01*
X133484625Y-81711904D02*
X133027482Y-81711904D01*
X133256054Y-81711904D02*
X133256054Y-80911904D01*
X133179863Y-81026190D01*
X133103673Y-81102380D01*
X133027482Y-81140476D01*
X133979863Y-80911904D02*
X134056054Y-80911904D01*
X134132244Y-80950000D01*
X134170339Y-80988095D01*
X134208435Y-81064285D01*
X134246530Y-81216666D01*
X134246530Y-81407142D01*
X134208435Y-81559523D01*
X134170339Y-81635714D01*
X134132244Y-81673809D01*
X134056054Y-81711904D01*
X133979863Y-81711904D01*
X133903673Y-81673809D01*
X133865578Y-81635714D01*
X133827482Y-81559523D01*
X133789387Y-81407142D01*
X133789387Y-81216666D01*
X133827482Y-81064285D01*
X133865578Y-80988095D01*
X133903673Y-80950000D01*
X133979863Y-80911904D01*
X134741768Y-80911904D02*
X134817959Y-80911904D01*
X134894149Y-80950000D01*
X134932244Y-80988095D01*
X134970339Y-81064285D01*
X135008435Y-81216666D01*
X135008435Y-81407142D01*
X134970339Y-81559523D01*
X134932244Y-81635714D01*
X134894149Y-81673809D01*
X134817959Y-81711904D01*
X134741768Y-81711904D01*
X134665578Y-81673809D01*
X134627482Y-81635714D01*
X134589387Y-81559523D01*
X134551292Y-81407142D01*
X134551292Y-81216666D01*
X134589387Y-81064285D01*
X134627482Y-80988095D01*
X134665578Y-80950000D01*
X134741768Y-80911904D01*
X133484625Y-86791904D02*
X133027482Y-86791904D01*
X133256054Y-86791904D02*
X133256054Y-85991904D01*
X133179863Y-86106190D01*
X133103673Y-86182380D01*
X133027482Y-86220476D01*
X133979863Y-85991904D02*
X134056054Y-85991904D01*
X134132244Y-86030000D01*
X134170339Y-86068095D01*
X134208435Y-86144285D01*
X134246530Y-86296666D01*
X134246530Y-86487142D01*
X134208435Y-86639523D01*
X134170339Y-86715714D01*
X134132244Y-86753809D01*
X134056054Y-86791904D01*
X133979863Y-86791904D01*
X133903673Y-86753809D01*
X133865578Y-86715714D01*
X133827482Y-86639523D01*
X133789387Y-86487142D01*
X133789387Y-86296666D01*
X133827482Y-86144285D01*
X133865578Y-86068095D01*
X133903673Y-86030000D01*
X133979863Y-85991904D01*
X134932244Y-86258571D02*
X134932244Y-86791904D01*
X134741768Y-85953809D02*
X134551292Y-86525238D01*
X135046530Y-86525238D01*
X144559006Y-84251904D02*
X144101863Y-84251904D01*
X144330435Y-84251904D02*
X144330435Y-83451904D01*
X144254244Y-83566190D01*
X144178054Y-83642380D01*
X144101863Y-83680476D01*
X145320911Y-84251904D02*
X144863768Y-84251904D01*
X145092340Y-84251904D02*
X145092340Y-83451904D01*
X145016149Y-83566190D01*
X144939959Y-83642380D01*
X144863768Y-83680476D01*
X146082816Y-84251904D02*
X145625673Y-84251904D01*
X145854244Y-84251904D02*
X145854244Y-83451904D01*
X145778054Y-83566190D01*
X145701863Y-83642380D01*
X145625673Y-83680476D01*
X144559006Y-81711904D02*
X144101863Y-81711904D01*
X144330435Y-81711904D02*
X144330435Y-80911904D01*
X144254244Y-81026190D01*
X144178054Y-81102380D01*
X144101863Y-81140476D01*
X145320911Y-81711904D02*
X144863768Y-81711904D01*
X145092340Y-81711904D02*
X145092340Y-80911904D01*
X145016149Y-81026190D01*
X144939959Y-81102380D01*
X144863768Y-81140476D01*
X145587578Y-80911904D02*
X146082816Y-80911904D01*
X145816149Y-81216666D01*
X145930435Y-81216666D01*
X146006625Y-81254761D01*
X146044720Y-81292857D01*
X146082816Y-81369047D01*
X146082816Y-81559523D01*
X146044720Y-81635714D01*
X146006625Y-81673809D01*
X145930435Y-81711904D01*
X145701863Y-81711904D01*
X145625673Y-81673809D01*
X145587578Y-81635714D01*
X144292340Y-70751904D02*
X144368530Y-70751904D01*
X144444720Y-70790000D01*
X144482816Y-70828095D01*
X144520911Y-70904285D01*
X144559006Y-71056666D01*
X144559006Y-71247142D01*
X144520911Y-71399523D01*
X144482816Y-71475714D01*
X144444720Y-71513809D01*
X144368530Y-71551904D01*
X144292340Y-71551904D01*
X144216149Y-71513809D01*
X144178054Y-71475714D01*
X144139959Y-71399523D01*
X144101863Y-71247142D01*
X144101863Y-71056666D01*
X144139959Y-70904285D01*
X144178054Y-70828095D01*
X144216149Y-70790000D01*
X144292340Y-70751904D01*
X144825673Y-70751904D02*
X145320911Y-70751904D01*
X145054244Y-71056666D01*
X145168530Y-71056666D01*
X145244720Y-71094761D01*
X145282816Y-71132857D01*
X145320911Y-71209047D01*
X145320911Y-71399523D01*
X145282816Y-71475714D01*
X145244720Y-71513809D01*
X145168530Y-71551904D01*
X144939959Y-71551904D01*
X144863768Y-71513809D01*
X144825673Y-71475714D01*
X146082816Y-71551904D02*
X145625673Y-71551904D01*
X145854244Y-71551904D02*
X145854244Y-70751904D01*
X145778054Y-70866190D01*
X145701863Y-70942380D01*
X145625673Y-70980476D01*
X144025673Y-68211904D02*
X144292340Y-69011904D01*
X144559006Y-68211904D01*
X145282816Y-68935714D02*
X145244720Y-68973809D01*
X145130435Y-69011904D01*
X145054244Y-69011904D01*
X144939959Y-68973809D01*
X144863768Y-68897619D01*
X144825673Y-68821428D01*
X144787578Y-68669047D01*
X144787578Y-68554761D01*
X144825673Y-68402380D01*
X144863768Y-68326190D01*
X144939959Y-68250000D01*
X145054244Y-68211904D01*
X145130435Y-68211904D01*
X145244720Y-68250000D01*
X145282816Y-68288095D01*
X146082816Y-68935714D02*
X146044720Y-68973809D01*
X145930435Y-69011904D01*
X145854244Y-69011904D01*
X145739959Y-68973809D01*
X145663768Y-68897619D01*
X145625673Y-68821428D01*
X145587578Y-68669047D01*
X145587578Y-68554761D01*
X145625673Y-68402380D01*
X145663768Y-68326190D01*
X145739959Y-68250000D01*
X145854244Y-68211904D01*
X145930435Y-68211904D01*
X146044720Y-68250000D01*
X146082816Y-68288095D01*
X144705053Y-66471904D02*
X144438387Y-66090952D01*
X144247910Y-66471904D02*
X144247910Y-65671904D01*
X144552672Y-65671904D01*
X144628863Y-65710000D01*
X144666958Y-65748095D01*
X144705053Y-65824285D01*
X144705053Y-65938571D01*
X144666958Y-66014761D01*
X144628863Y-66052857D01*
X144552672Y-66090952D01*
X144247910Y-66090952D01*
X145009815Y-66433809D02*
X145124101Y-66471904D01*
X145314577Y-66471904D01*
X145390768Y-66433809D01*
X145428863Y-66395714D01*
X145466958Y-66319523D01*
X145466958Y-66243333D01*
X145428863Y-66167142D01*
X145390768Y-66129047D01*
X145314577Y-66090952D01*
X145162196Y-66052857D01*
X145086006Y-66014761D01*
X145047910Y-65976666D01*
X145009815Y-65900476D01*
X145009815Y-65824285D01*
X145047910Y-65748095D01*
X145086006Y-65710000D01*
X145162196Y-65671904D01*
X145352672Y-65671904D01*
X145466958Y-65710000D01*
X145695529Y-65671904D02*
X146152672Y-65671904D01*
X145924101Y-66471904D02*
X145924101Y-65671904D01*
X144400292Y-63170000D02*
X144324101Y-63131904D01*
X144209816Y-63131904D01*
X144095530Y-63170000D01*
X144019339Y-63246190D01*
X143981244Y-63322380D01*
X143943149Y-63474761D01*
X143943149Y-63589047D01*
X143981244Y-63741428D01*
X144019339Y-63817619D01*
X144095530Y-63893809D01*
X144209816Y-63931904D01*
X144286006Y-63931904D01*
X144400292Y-63893809D01*
X144438387Y-63855714D01*
X144438387Y-63589047D01*
X144286006Y-63589047D01*
X144781244Y-63931904D02*
X144781244Y-63131904D01*
X145238387Y-63931904D01*
X145238387Y-63131904D01*
X145619339Y-63931904D02*
X145619339Y-63131904D01*
X145809816Y-63131904D01*
X145924101Y-63170000D01*
X146000292Y-63246190D01*
X146038387Y-63322380D01*
X146076482Y-63474761D01*
X146076482Y-63589047D01*
X146038387Y-63741428D01*
X146000292Y-63817619D01*
X145924101Y-63893809D01*
X145809816Y-63931904D01*
X145619339Y-63931904D01*
X144476483Y-61391904D02*
X144209816Y-61010952D01*
X144019340Y-61391904D02*
X144019340Y-60591904D01*
X144324102Y-60591904D01*
X144400292Y-60630000D01*
X144438387Y-60668095D01*
X144476483Y-60744285D01*
X144476483Y-60858571D01*
X144438387Y-60934761D01*
X144400292Y-60972857D01*
X144324102Y-61010952D01*
X144019340Y-61010952D01*
X144781244Y-61163333D02*
X145162197Y-61163333D01*
X144705054Y-61391904D02*
X144971721Y-60591904D01*
X145238387Y-61391904D01*
X145428864Y-60591904D02*
X145619340Y-61391904D01*
X145771721Y-60820476D01*
X145924102Y-61391904D01*
X146114578Y-60591904D01*
X144292340Y-73291904D02*
X144368530Y-73291904D01*
X144444720Y-73330000D01*
X144482816Y-73368095D01*
X144520911Y-73444285D01*
X144559006Y-73596666D01*
X144559006Y-73787142D01*
X144520911Y-73939523D01*
X144482816Y-74015714D01*
X144444720Y-74053809D01*
X144368530Y-74091904D01*
X144292340Y-74091904D01*
X144216149Y-74053809D01*
X144178054Y-74015714D01*
X144139959Y-73939523D01*
X144101863Y-73787142D01*
X144101863Y-73596666D01*
X144139959Y-73444285D01*
X144178054Y-73368095D01*
X144216149Y-73330000D01*
X144292340Y-73291904D01*
X144863768Y-73368095D02*
X144901863Y-73330000D01*
X144978054Y-73291904D01*
X145168530Y-73291904D01*
X145244720Y-73330000D01*
X145282816Y-73368095D01*
X145320911Y-73444285D01*
X145320911Y-73520476D01*
X145282816Y-73634761D01*
X144825673Y-74091904D01*
X145320911Y-74091904D01*
X145701863Y-74091904D02*
X145854244Y-74091904D01*
X145930435Y-74053809D01*
X145968530Y-74015714D01*
X146044720Y-73901428D01*
X146082816Y-73749047D01*
X146082816Y-73444285D01*
X146044720Y-73368095D01*
X146006625Y-73330000D01*
X145930435Y-73291904D01*
X145778054Y-73291904D01*
X145701863Y-73330000D01*
X145663768Y-73368095D01*
X145625673Y-73444285D01*
X145625673Y-73634761D01*
X145663768Y-73710952D01*
X145701863Y-73749047D01*
X145778054Y-73787142D01*
X145930435Y-73787142D01*
X146006625Y-73749047D01*
X146044720Y-73710952D01*
X146082816Y-73634761D01*
X144292340Y-75831904D02*
X144368530Y-75831904D01*
X144444720Y-75870000D01*
X144482816Y-75908095D01*
X144520911Y-75984285D01*
X144559006Y-76136666D01*
X144559006Y-76327142D01*
X144520911Y-76479523D01*
X144482816Y-76555714D01*
X144444720Y-76593809D01*
X144368530Y-76631904D01*
X144292340Y-76631904D01*
X144216149Y-76593809D01*
X144178054Y-76555714D01*
X144139959Y-76479523D01*
X144101863Y-76327142D01*
X144101863Y-76136666D01*
X144139959Y-75984285D01*
X144178054Y-75908095D01*
X144216149Y-75870000D01*
X144292340Y-75831904D01*
X145054244Y-75831904D02*
X145130435Y-75831904D01*
X145206625Y-75870000D01*
X145244720Y-75908095D01*
X145282816Y-75984285D01*
X145320911Y-76136666D01*
X145320911Y-76327142D01*
X145282816Y-76479523D01*
X145244720Y-76555714D01*
X145206625Y-76593809D01*
X145130435Y-76631904D01*
X145054244Y-76631904D01*
X144978054Y-76593809D01*
X144939959Y-76555714D01*
X144901863Y-76479523D01*
X144863768Y-76327142D01*
X144863768Y-76136666D01*
X144901863Y-75984285D01*
X144939959Y-75908095D01*
X144978054Y-75870000D01*
X145054244Y-75831904D01*
X145625673Y-75908095D02*
X145663768Y-75870000D01*
X145739959Y-75831904D01*
X145930435Y-75831904D01*
X146006625Y-75870000D01*
X146044720Y-75908095D01*
X146082816Y-75984285D01*
X146082816Y-76060476D01*
X146044720Y-76174761D01*
X145587578Y-76631904D01*
X146082816Y-76631904D01*
X144559006Y-79171904D02*
X144101863Y-79171904D01*
X144330435Y-79171904D02*
X144330435Y-78371904D01*
X144254244Y-78486190D01*
X144178054Y-78562380D01*
X144101863Y-78600476D01*
X145320911Y-79171904D02*
X144863768Y-79171904D01*
X145092340Y-79171904D02*
X145092340Y-78371904D01*
X145016149Y-78486190D01*
X144939959Y-78562380D01*
X144863768Y-78600476D01*
X146044720Y-78371904D02*
X145663768Y-78371904D01*
X145625673Y-78752857D01*
X145663768Y-78714761D01*
X145739959Y-78676666D01*
X145930435Y-78676666D01*
X146006625Y-78714761D01*
X146044720Y-78752857D01*
X146082816Y-78829047D01*
X146082816Y-79019523D01*
X146044720Y-79095714D01*
X146006625Y-79133809D01*
X145930435Y-79171904D01*
X145739959Y-79171904D01*
X145663768Y-79133809D01*
X145625673Y-79095714D01*
X144292340Y-85991904D02*
X144368530Y-85991904D01*
X144444720Y-86030000D01*
X144482816Y-86068095D01*
X144520911Y-86144285D01*
X144559006Y-86296666D01*
X144559006Y-86487142D01*
X144520911Y-86639523D01*
X144482816Y-86715714D01*
X144444720Y-86753809D01*
X144368530Y-86791904D01*
X144292340Y-86791904D01*
X144216149Y-86753809D01*
X144178054Y-86715714D01*
X144139959Y-86639523D01*
X144101863Y-86487142D01*
X144101863Y-86296666D01*
X144139959Y-86144285D01*
X144178054Y-86068095D01*
X144216149Y-86030000D01*
X144292340Y-85991904D01*
X145320911Y-86791904D02*
X144863768Y-86791904D01*
X145092340Y-86791904D02*
X145092340Y-85991904D01*
X145016149Y-86106190D01*
X144939959Y-86182380D01*
X144863768Y-86220476D01*
X145816149Y-85991904D02*
X145892340Y-85991904D01*
X145968530Y-86030000D01*
X146006625Y-86068095D01*
X146044720Y-86144285D01*
X146082816Y-86296666D01*
X146082816Y-86487142D01*
X146044720Y-86639523D01*
X146006625Y-86715714D01*
X145968530Y-86753809D01*
X145892340Y-86791904D01*
X145816149Y-86791904D01*
X145739959Y-86753809D01*
X145701863Y-86715714D01*
X145663768Y-86639523D01*
X145625673Y-86487142D01*
X145625673Y-86296666D01*
X145663768Y-86144285D01*
X145701863Y-86068095D01*
X145739959Y-86030000D01*
X145816149Y-85991904D01*
D12*
X134773434Y-88140571D02*
X134773434Y-89140571D01*
X134773434Y-88283428D02*
X134844863Y-88212000D01*
X134987720Y-88140571D01*
X135202006Y-88140571D01*
X135344863Y-88212000D01*
X135416291Y-88354857D01*
X135416291Y-89140571D01*
X136130577Y-89140571D02*
X136130577Y-88140571D01*
X136130577Y-87640571D02*
X136059149Y-87712000D01*
X136130577Y-87783428D01*
X136202006Y-87712000D01*
X136130577Y-87640571D01*
X136130577Y-87783428D01*
X137487720Y-89069142D02*
X137344863Y-89140571D01*
X137059149Y-89140571D01*
X136916291Y-89069142D01*
X136844863Y-88997714D01*
X136773434Y-88854857D01*
X136773434Y-88426285D01*
X136844863Y-88283428D01*
X136916291Y-88212000D01*
X137059149Y-88140571D01*
X137344863Y-88140571D01*
X137487720Y-88212000D01*
X138702006Y-89069142D02*
X138559149Y-89140571D01*
X138273434Y-89140571D01*
X138130577Y-89069142D01*
X138059149Y-88926285D01*
X138059149Y-88354857D01*
X138130577Y-88212000D01*
X138273434Y-88140571D01*
X138559149Y-88140571D01*
X138702006Y-88212000D01*
X138773434Y-88354857D01*
X138773434Y-88497714D01*
X138059149Y-88640571D01*
X139416291Y-88997714D02*
X139487720Y-89069142D01*
X139416291Y-89140571D01*
X139344863Y-89069142D01*
X139416291Y-88997714D01*
X139416291Y-89140571D01*
X139416291Y-88569142D02*
X139344863Y-87712000D01*
X139416291Y-87640571D01*
X139487720Y-87712000D01*
X139416291Y-88569142D01*
X139416291Y-87640571D01*
X140130577Y-88140571D02*
X140130577Y-89140571D01*
X140130577Y-88283428D02*
X140202006Y-88212000D01*
X140344863Y-88140571D01*
X140559149Y-88140571D01*
X140702006Y-88212000D01*
X140773434Y-88354857D01*
X140773434Y-89140571D01*
X142130577Y-89140571D02*
X142130577Y-88354857D01*
X142059149Y-88212000D01*
X141916291Y-88140571D01*
X141630577Y-88140571D01*
X141487720Y-88212000D01*
X142130577Y-89069142D02*
X141987720Y-89140571D01*
X141630577Y-89140571D01*
X141487720Y-89069142D01*
X141416291Y-88926285D01*
X141416291Y-88783428D01*
X141487720Y-88640571D01*
X141630577Y-88569142D01*
X141987720Y-88569142D01*
X142130577Y-88497714D01*
X142844863Y-88140571D02*
X142844863Y-89140571D01*
X142844863Y-88283428D02*
X142916291Y-88212000D01*
X143059149Y-88140571D01*
X143273434Y-88140571D01*
X143416291Y-88212000D01*
X143487720Y-88354857D01*
X143487720Y-89140571D01*
X144416291Y-89140571D02*
X144273434Y-89069142D01*
X144202006Y-88997714D01*
X144130577Y-88854857D01*
X144130577Y-88426285D01*
X144202006Y-88283428D01*
X144273434Y-88212000D01*
X144416291Y-88140571D01*
X144630577Y-88140571D01*
X144773434Y-88212000D01*
X144844863Y-88283428D01*
X144916291Y-88426285D01*
X144916291Y-88854857D01*
X144844863Y-88997714D01*
X144773434Y-89069142D01*
X144630577Y-89140571D01*
X144416291Y-89140571D01*
%TD*%
M02*
