M48
; DRILL file {KiCad (5.1.10-1-10_14)} date Sunday, September 26, 2021 at 06:03:51 PM
; FORMAT={-:-/ absolute / metric / decimal}
; #@! TF.CreationDate,2021-09-26T18:03:51+08:00
; #@! TF.GenerationSoftware,Kicad,Pcbnew,(5.1.10-1-10_14)
; #@! TF.FileFunction,Plated,1,2,PTH
FMAT,2
METRIC
T1C0.300
T2C1.092
%
G90
G05
T1
X22.606Y-82.804
X29.083Y-64.897
X29.935Y-44.159
X35.56Y-46.863
X43.942Y-80.01
X50.13Y-44.415
X50.419Y-62.103
X56.896Y-44.069
X63.246Y-82.804
X69.628Y-46.514
X69.723Y-64.897
X76.2Y-46.863
X79.121Y-94.996
X85.043Y-59.897
X85.598Y-77.089
X92.075Y-59.055
X95.631Y-105.156
X101.222Y-71.25
X102.108Y-87.249
X108.585Y-69.215
X168.468Y-86.548
X170.815Y-69.723
X177.292Y-87.757
X183.769Y-105.41
X185.376Y-77.514
X187.452Y-59.309
X193.929Y-77.343
X200.406Y-94.996
X201.529Y-65.933
X203.2Y-47.117
X209.677Y-65.151
X216.154Y-82.804
X219.583Y-60.325
X222.504Y-44.196
X228.981Y-62.23
X235.458Y-79.883
X237.998Y-54.61
X243.84Y-46.99
X250.317Y-65.024
X256.794Y-82.677
T2
X131.935Y-61.03
X131.935Y-63.57
X131.935Y-66.11
X131.935Y-68.65
X131.935Y-71.19
X131.935Y-73.73
X131.935Y-76.27
X131.935Y-78.81
X131.935Y-81.35
X131.935Y-83.89
X131.935Y-86.43
X131.935Y-88.97
X134.475Y-83.89
X137.015Y-83.89
X139.555Y-83.89
X147.175Y-61.03
X147.175Y-63.57
X147.175Y-66.11
X147.175Y-68.65
X147.175Y-71.19
X147.175Y-73.73
X147.175Y-76.27
X147.175Y-78.81
X147.175Y-81.35
X147.175Y-83.89
X147.175Y-86.43
X147.175Y-88.97
T0
M30
