<?xml version="1.0" standalone="no"?>
 <!DOCTYPE svg PUBLIC "-//W3C//DTD SVG 1.1//EN" 
 "http://www.w3.org/Graphics/SVG/1.1/DTD/svg11.dtd"> 
<svg
  xmlns:svg="http://www.w3.org/2000/svg"
  xmlns="http://www.w3.org/2000/svg"
  xmlns:xlink="http://www.w3.org/1999/xlink"
  version="1.1"
  width="29.700220cm" height="21.000720cm" viewBox="0 0 116930 82680">
<title>SVG Picture created as k34-Dwgs_User.svg date 2021/10/02 14:19:03 </title>
  <desc>Picture generated by PCBNEW </desc>
<g style="fill:#000000; fill-opacity:1;stroke:#000000; stroke-opacity:1;
stroke-linecap:round; stroke-linejoin:round;"
 transform="translate(0 0) scale(1 1)">
</g>
<g style="fill:#000000; fill-opacity:0.0; 
stroke:#000000; stroke-width:-0.000393701; stroke-opacity:1; 
stroke-linecap:round; stroke-linejoin:round;">
</g>
<g style="fill:#000000; fill-opacity:0.0; 
stroke:#000000; stroke-width:59.0551; stroke-opacity:1; 
stroke-linecap:round; stroke-linejoin:round;">
<path d="M5417 32084
L12465 34649
" />
<path d="M13113 10941
L5417 32084
" />
<path d="M10547 17989
L13113 10941
" />
<path d="M17595 20554
L10547 17989
" />
<path d="M20160 13506
L17595 20554
" />
<path d="M13113 10941
L20160 13506
" />
<path d="M13707 12215
L13437 12955
" />
<path d="M14447 12485
L13707 12215
" />
<path d="M11822 17395
L12561 17664
" />
<path d="M12091 16655
L11822 17395
" />
<path d="M17001 19280
L17270 18540
" />
<path d="M16261 19011
L17001 19280
" />
<path d="M18886 14100
L18617 14840
" />
<path d="M18146 13831
L18886 14100
" />
<path d="M18942 16854
L21507 9807
" />
<path d="M25989 19420
L18942 16854
" />
<path d="M28554 12372
L25989 19420
" />
<path d="M21507 9807
L28554 12372
" />
<path d="M22101 11081
L21832 11821
" />
<path d="M22841 11350
L22101 11081
" />
<path d="M20216 16260
L20956 16530
" />
<path d="M20485 15520
L20216 16260
" />
<path d="M25395 18145
L25664 17405
" />
<path d="M24655 17876
L25395 18145
" />
<path d="M27280 12966
L27011 13706
" />
<path d="M26540 12697
L27280 12966
" />
<path d="M26528 17940
L29093 10892
" />
<path d="M33576 20505
L26528 17940
" />
<path d="M36141 13457
L33576 20505
" />
<path d="M29093 10892
L36141 13457
" />
<path d="M29687 12166
L29418 12906
" />
<path d="M30427 12435
L29687 12166
" />
<path d="M27802 17346
L28542 17615
" />
<path d="M28071 16606
L27802 17346
" />
<path d="M32981 19231
L33251 18491
" />
<path d="M32242 18961
L32981 19231
" />
<path d="M34867 14051
L34597 14791
" />
<path d="M34127 13782
L34867 14051
" />
<path d="M32768 22725
L35333 15677
" />
<path d="M39815 25290
L32768 22725
" />
<path d="M42381 18242
L39815 25290
" />
<path d="M35333 15677
L42381 18242
" />
<path d="M35927 16951
L35658 17691
" />
<path d="M36667 17220
L35927 16951
" />
<path d="M34042 22130
L34782 22400
" />
<path d="M34311 21391
L34042 22130
" />
<path d="M39221 24016
L39491 23276
" />
<path d="M38481 23746
L39221 24016
" />
<path d="M41106 18836
L40837 19576
" />
<path d="M40367 18567
L41106 18836
" />
<path d="M39277 26770
L41842 19722
" />
<path d="M46324 29335
L39277 26770
" />
<path d="M48890 22287
L46324 29335
" />
<path d="M41842 19722
L48890 22287
" />
<path d="M42436 20996
L42167 21736
" />
<path d="M43176 21265
L42436 20996
" />
<path d="M40551 26175
L41291 26445
" />
<path d="M40820 25436
L40551 26175
" />
<path d="M45730 28061
L46000 27321
" />
<path d="M44990 27791
L45730 28061
" />
<path d="M47616 22881
L47346 23621
" />
<path d="M46876 22612
L47616 22881
" />
<path d="M63560 29335
L60995 22287
" />
<path d="M70608 26770
L63560 29335
" />
<path d="M68043 19722
L70608 26770
" />
<path d="M60995 22287
L68043 19722
" />
<path d="M62269 22881
L62539 23621
" />
<path d="M63009 22612
L62269 22881
" />
<path d="M64155 28061
L64895 27791
" />
<path d="M63885 27321
L64155 28061
" />
<path d="M69334 26175
L69065 25436
" />
<path d="M68594 26445
L69334 26175
" />
<path d="M67449 20996
L67718 21736
" />
<path d="M66709 21265
L67449 20996
" />
<path d="M70070 25290
L67504 18242
" />
<path d="M77117 22725
L70070 25290
" />
<path d="M74552 15677
L77117 22725
" />
<path d="M67504 18242
L74552 15677
" />
<path d="M68779 18836
L69048 19576
" />
<path d="M69518 18567
L68779 18836
" />
<path d="M70664 24016
L71404 23746
" />
<path d="M70394 23276
L70664 24016
" />
<path d="M75843 22130
L75574 21391
" />
<path d="M75103 22400
L75843 22130
" />
<path d="M73958 16951
L74227 17691
" />
<path d="M73218 17220
L73958 16951
" />
<path d="M76309 20505
L73744 13457
" />
<path d="M83357 17940
L76309 20505
" />
<path d="M80792 10892
L83357 17940
" />
<path d="M73744 13457
L80792 10892
" />
<path d="M75018 14051
L75288 14791
" />
<path d="M75758 13782
L75018 14051
" />
<path d="M76903 19231
L77643 18961
" />
<path d="M76634 18491
L76903 19231
" />
<path d="M82083 17346
L81814 16606
" />
<path d="M81343 17615
L82083 17346
" />
<path d="M80198 12166
L80467 12906
" />
<path d="M79458 12435
L80198 12166
" />
<path d="M83896 19420
L81330 12372
" />
<path d="M90943 16854
L83896 19420
" />
<path d="M88378 9807
L90943 16854
" />
<path d="M81330 12372
L88378 9807
" />
<path d="M82605 12966
L82874 13706
" />
<path d="M83345 12697
L82605 12966
" />
<path d="M84490 18145
L85230 17876
" />
<path d="M84220 17405
L84490 18145
" />
<path d="M89669 16260
L89400 15520
" />
<path d="M88929 16530
L89669 16260
" />
<path d="M87784 11081
L88053 11821
" />
<path d="M87044 11350
L87784 11081
" />
<path d="M92290 20554
L89725 13506
" />
<path d="M99338 17989
L92290 20554
" />
<path d="M96772 10941
L99338 17989
" />
<path d="M89725 13506
L96772 10941
" />
<path d="M90999 14100
L91268 14840
" />
<path d="M91739 13831
L90999 14100
" />
<path d="M92884 19280
L93624 19011
" />
<path d="M92615 18540
L92884 19280
" />
<path d="M98063 17395
L97794 16655
" />
<path d="M97323 17664
L98063 17395
" />
<path d="M96178 12215
L96448 12955
" />
<path d="M95438 12485
L96178 12215
" />
<path d="M7982 25036
L10547 17989
" />
<path d="M15030 27602
L7982 25036
" />
<path d="M17595 20554
L15030 27602
" />
<path d="M10547 17989
L17595 20554
" />
<path d="M11142 19263
L10872 20003
" />
<path d="M11881 19532
L11142 19263
" />
<path d="M9256 24442
L9996 24712
" />
<path d="M9526 23702
L9256 24442
" />
<path d="M14436 26328
L14705 25588
" />
<path d="M13696 26058
L14436 26328
" />
<path d="M16321 21148
L16052 21888
" />
<path d="M15581 20879
L16321 21148
" />
<path d="M16376 23902
L18942 16854
" />
<path d="M23424 26467
L16376 23902
" />
<path d="M25989 19420
L23424 26467
" />
<path d="M18942 16854
L25989 19420
" />
<path d="M19536 18129
L19266 18868
" />
<path d="M20276 18398
L19536 18129
" />
<path d="M17651 23308
L18391 23577
" />
<path d="M17920 22568
L17651 23308
" />
<path d="M22830 25193
L23099 24453
" />
<path d="M22090 24924
L22830 25193
" />
<path d="M24715 20014
L24446 20754
" />
<path d="M23975 19744
L24715 20014
" />
<path d="M23963 24987
L26528 17940
" />
<path d="M31010 27553
L23963 24987
" />
<path d="M33576 20505
L31010 27553
" />
<path d="M26528 17940
L33576 20505
" />
<path d="M27122 19214
L26853 19954
" />
<path d="M27862 19483
L27122 19214
" />
<path d="M25237 24393
L25977 24663
" />
<path d="M25506 23653
L25237 24393
" />
<path d="M30416 26278
L30686 25538
" />
<path d="M29676 26009
L30416 26278
" />
<path d="M32301 21099
L32032 21839
" />
<path d="M31562 20830
L32301 21099
" />
<path d="M30203 29772
L32768 22725
" />
<path d="M37250 32337
L30203 29772
" />
<path d="M39815 25290
L37250 32337
" />
<path d="M32768 22725
L39815 25290
" />
<path d="M33362 23999
L33093 24739
" />
<path d="M34102 24268
L33362 23999
" />
<path d="M31477 29178
L32217 29447
" />
<path d="M31746 28438
L31477 29178
" />
<path d="M36656 31063
L36925 30323
" />
<path d="M35916 30794
L36656 31063
" />
<path d="M38541 25884
L38272 26624
" />
<path d="M37801 25615
L38541 25884
" />
<path d="M36712 33817
L39277 26770
" />
<path d="M43759 36382
L36712 33817
" />
<path d="M46324 29335
L43759 36382
" />
<path d="M39277 26770
L46324 29335
" />
<path d="M39871 28044
L39602 28784
" />
<path d="M40611 28313
L39871 28044
" />
<path d="M37986 33223
L38726 33492
" />
<path d="M38255 32483
L37986 33223
" />
<path d="M43165 35108
L43435 34368
" />
<path d="M42425 34839
L43165 35108
" />
<path d="M45050 29929
L44781 30669
" />
<path d="M44310 29660
L45050 29929
" />
<path d="M66126 36382
L63560 29335
" />
<path d="M73173 33817
L66126 36382
" />
<path d="M70608 26770
L73173 33817
" />
<path d="M63560 29335
L70608 26770
" />
<path d="M64835 29929
L65104 30669
" />
<path d="M65575 29660
L64835 29929
" />
<path d="M66720 35108
L67460 34839
" />
<path d="M66450 34368
L66720 35108
" />
<path d="M71899 33223
L71630 32483
" />
<path d="M71159 33492
L71899 33223
" />
<path d="M70014 28044
L70283 28784
" />
<path d="M69274 28313
L70014 28044
" />
<path d="M72635 32337
L70070 25290
" />
<path d="M79682 29772
L72635 32337
" />
<path d="M77117 22725
L79682 29772
" />
<path d="M70070 25290
L77117 22725
" />
<path d="M71344 25884
L71613 26624
" />
<path d="M72084 25615
L71344 25884
" />
<path d="M73229 31063
L73969 30794
" />
<path d="M72960 30323
L73229 31063
" />
<path d="M78408 29178
L78139 28438
" />
<path d="M77668 29447
L78408 29178
" />
<path d="M76523 23999
L76792 24739
" />
<path d="M75783 24268
L76523 23999
" />
<path d="M82023 19483
L82763 19214
" />
<path d="M82763 19214
L83032 19954
" />
<path d="M83908 24663
L84648 24393
" />
<path d="M84648 24393
L84379 23653
" />
<path d="M79199 25538
L79469 26278
" />
<path d="M79469 26278
L80209 26009
" />
<path d="M78323 20830
L77583 21099
" />
<path d="M77583 21099
L77853 21839
" />
<path d="M76309 20505
L83357 17940
" />
<path d="M83357 17940
L85922 24987
" />
<path d="M85922 24987
L78874 27553
" />
<path d="M78874 27553
L76309 20505
" />
<path d="M89609 18398
L90349 18129
" />
<path d="M90349 18129
L90618 18868
" />
<path d="M91494 23577
L92234 23308
" />
<path d="M92234 23308
L91965 22568
" />
<path d="M86786 24453
L87055 25193
" />
<path d="M87055 25193
L87795 24924
" />
<path d="M85910 19744
L85170 20014
" />
<path d="M85170 20014
L85439 20754
" />
<path d="M83896 19420
L90943 16854
" />
<path d="M90943 16854
L93508 23902
" />
<path d="M93508 23902
L86461 26467
" />
<path d="M86461 26467
L83896 19420
" />
<path d="M98003 19532
L98743 19263
" />
<path d="M98743 19263
L99013 20003
" />
<path d="M99889 24712
L100629 24442
" />
<path d="M100629 24442
L100359 23702
" />
<path d="M95180 25588
L95449 26328
" />
<path d="M95449 26328
L96189 26058
" />
<path d="M94304 20879
L93564 21148
" />
<path d="M93564 21148
L93833 21888
" />
<path d="M92290 20554
L99338 17989
" />
<path d="M99338 17989
L101903 25036
" />
<path d="M101903 25036
L94855 27602
" />
<path d="M94855 27602
L92290 20554
" />
<path d="M13016 27926
L13756 28196
" />
<path d="M13756 28196
L13487 28936
" />
<path d="M11131 33106
L11871 33375
" />
<path d="M11871 33375
L12140 32635
" />
<path d="M6961 30750
L6691 31490
" />
<path d="M6691 31490
L7431 31759
" />
<path d="M9316 26580
L8576 26311
" />
<path d="M8576 26311
L8307 27051
" />
<path d="M7982 25036
L15030 27602
" />
<path d="M15030 27602
L12465 34649
" />
<path d="M12465 34649
L5417 32084
" />
<path d="M5417 32084
L7982 25036
" />
<path d="M21410 26792
L22150 27061
" />
<path d="M22150 27061
L21881 27801
" />
<path d="M19525 31971
L20265 32241
" />
<path d="M20265 32241
L20534 31501
" />
<path d="M15355 29616
L15085 30356
" />
<path d="M15085 30356
L15825 30625
" />
<path d="M17711 25446
L16971 25176
" />
<path d="M16971 25176
L16701 25916
" />
<path d="M16376 23902
L23424 26467
" />
<path d="M23424 26467
L20859 33515
" />
<path d="M20859 33515
L13811 30950
" />
<path d="M13811 30950
L16376 23902
" />
<path d="M28996 27877
L29736 28147
" />
<path d="M29736 28147
L29467 28887
" />
<path d="M27111 33057
L27851 33326
" />
<path d="M27851 33326
L28121 32586
" />
<path d="M22941 30701
L22672 31441
" />
<path d="M22672 31441
L23412 31710
" />
<path d="M25297 26531
L24557 26262
" />
<path d="M24557 26262
L24288 27001
" />
<path d="M23963 24987
L31010 27553
" />
<path d="M31010 27553
L28445 34600
" />
<path d="M28445 34600
L21398 32035
" />
<path d="M21398 32035
L23963 24987
" />
<path d="M35236 32662
L35976 32932
" />
<path d="M35976 32932
L35707 33671
" />
<path d="M33351 37842
L34091 38111
" />
<path d="M34091 38111
L34360 37371
" />
<path d="M29181 35486
L28912 36226
" />
<path d="M28912 36226
L29651 36495
" />
<path d="M31537 31316
L30797 31046
" />
<path d="M30797 31046
L30527 31786
" />
<path d="M30203 29772
L37250 32337
" />
<path d="M37250 32337
L34685 39385
" />
<path d="M34685 39385
L27637 36820
" />
<path d="M27637 36820
L30203 29772
" />
<path d="M41745 36707
L42485 36977
" />
<path d="M42485 36977
L42216 37716
" />
<path d="M39860 41887
L40600 42156
" />
<path d="M40600 42156
L40869 41416
" />
<path d="M35690 39531
L35421 40271
" />
<path d="M35421 40271
L36161 40540
" />
<path d="M38046 35361
L37306 35091
" />
<path d="M37306 35091
L37036 35831
" />
<path d="M36712 33817
L43759 36382
" />
<path d="M43759 36382
L41194 43430
" />
<path d="M41194 43430
L34146 40865
" />
<path d="M34146 40865
L36712 33817
" />
<path d="M71839 35361
L72579 35091
" />
<path d="M72579 35091
L72848 35831
" />
<path d="M73724 40540
L74464 40271
" />
<path d="M74464 40271
L74195 39531
" />
<path d="M69016 41416
L69285 42156
" />
<path d="M69285 42156
L70025 41887
" />
<path d="M68140 36707
L67400 36977
" />
<path d="M67400 36977
L67669 37716
" />
<path d="M66126 36382
L73173 33817
" />
<path d="M73173 33817
L75738 40865
" />
<path d="M75738 40865
L68691 43430
" />
<path d="M68691 43430
L66126 36382
" />
<path d="M78348 31316
L79088 31046
" />
<path d="M79088 31046
L79358 31786
" />
<path d="M80233 36495
L80973 36226
" />
<path d="M80973 36226
L80704 35486
" />
<path d="M75525 37371
L75794 38111
" />
<path d="M75794 38111
L76534 37842
" />
<path d="M74649 32662
L73909 32932
" />
<path d="M73909 32932
L74178 33671
" />
<path d="M72635 32337
L79682 29772
" />
<path d="M79682 29772
L82248 36820
" />
<path d="M82248 36820
L75200 39385
" />
<path d="M75200 39385
L72635 32337
" />
<path d="M84588 26531
L85328 26262
" />
<path d="M85328 26262
L85597 27001
" />
<path d="M86473 31710
L87213 31441
" />
<path d="M87213 31441
L86944 30701
" />
<path d="M81764 32586
L82034 33326
" />
<path d="M82034 33326
L82774 33057
" />
<path d="M80889 27877
L80149 28147
" />
<path d="M80149 28147
L80418 28887
" />
<path d="M78874 27553
L85922 24987
" />
<path d="M85922 24987
L88487 32035
" />
<path d="M88487 32035
L81440 34600
" />
<path d="M81440 34600
L78874 27553
" />
<path d="M92174 25446
L92914 25176
" />
<path d="M92914 25176
L93184 25916
" />
<path d="M94060 30625
L94799 30356
" />
<path d="M94799 30356
L94530 29616
" />
<path d="M89351 31501
L89620 32241
" />
<path d="M89620 32241
L90360 31971
" />
<path d="M88475 26792
L87735 27061
" />
<path d="M87735 27061
L88004 27801
" />
<path d="M86461 26467
L93508 23902
" />
<path d="M93508 23902
L96074 30950
" />
<path d="M96074 30950
L89026 33515
" />
<path d="M89026 33515
L86461 26467
" />
<path d="M100569 26580
L101309 26311
" />
<path d="M101309 26311
L101578 27051
" />
<path d="M102454 31759
L103194 31490
" />
<path d="M103194 31490
L102924 30750
" />
<path d="M97745 32635
L98014 33375
" />
<path d="M98014 33375
L98754 33106
" />
<path d="M96869 27926
L96129 28196
" />
<path d="M96129 28196
L96398 28936
" />
<path d="M94855 27602
L101903 25036
" />
<path d="M101903 25036
L104468 32084
" />
<path d="M104468 32084
L97420 34649
" />
<path d="M97420 34649
L94855 27602
" />
<path d="M35118 43952
L35858 44222
" />
<path d="M35858 44222
L35588 44961
" />
<path d="M33233 49132
L33972 49401
" />
<path d="M33972 49401
L34242 48661
" />
<path d="M29062 46776
L28793 47516
" />
<path d="M28793 47516
L29533 47785
" />
<path d="M31418 42606
L30678 42336
" />
<path d="M30678 42336
L30409 43076
" />
<path d="M30084 41062
L37132 43627
" />
<path d="M37132 43627
L34567 50675
" />
<path d="M34567 50675
L27519 48110
" />
<path d="M27519 48110
L30084 41062
" />
<path d="M43409 49539
L44012 50045
" />
<path d="M44012 50045
L43506 50648
" />
<path d="M39866 53761
L40469 54268
" />
<path d="M40469 54268
L40975 53664
" />
<path d="M36753 50121
L36247 50725
" />
<path d="M36247 50725
L36850 51231
" />
<path d="M40393 47008
L39790 46502
" />
<path d="M39790 46502
L39283 47105
" />
<path d="M39667 45102
L45412 49923
" />
<path d="M45412 49923
L40591 55668
" />
<path d="M40591 55668
L34846 50847
" />
<path d="M34846 50847
L39667 45102
" />
<path d="M69492 47008
L70095 46502
" />
<path d="M70095 46502
L70602 47105
" />
<path d="M73035 51231
L73638 50725
" />
<path d="M73638 50725
L73132 50121
" />
<path d="M68910 53664
L69416 54268
" />
<path d="M69416 54268
L70019 53761
" />
<path d="M66476 49539
L65873 50045
" />
<path d="M65873 50045
L66379 50648
" />
<path d="M64473 49923
L70218 45102
" />
<path d="M70218 45102
L75039 50847
" />
<path d="M75039 50847
L69293 55668
" />
<path d="M69293 55668
L64473 49923
" />
<path d="M78467 42606
L79207 42336
" />
<path d="M79207 42336
L79476 43076
" />
<path d="M80352 47785
L81092 47516
" />
<path d="M81092 47516
L80823 46776
" />
<path d="M75643 48661
L75913 49401
" />
<path d="M75913 49401
L76652 49132
" />
<path d="M74767 43952
L74027 44222
" />
<path d="M74027 44222
L74297 44961
" />
<path d="M72753 43627
L79801 41062
" />
<path d="M79801 41062
L82366 48110
" />
<path d="M82366 48110
L75318 50675
" />
<path d="M75318 50675
L72753 43627
" />
</g>
<g style="fill:#000000; fill-opacity:0.0; 
stroke:#000000; stroke-width:78.7402; stroke-opacity:1; 
stroke-linecap:round; stroke-linejoin:round;">
<path d="M56342 21927
L56342 23927
" />
<path d="M53442 21927
L56342 21927
" />
<path d="M53442 23927
L53442 21927
" />
<path d="M56342 23927
L53442 23927
" />
<g >
</g>
<g >
</g>
<g >
</g>
<g >
</g>
<g >
</g>
<g >
</g>
<g >
</g>
<g >
</g>
<g >
</g>
<g >
</g>
<g >
</g>
<g >
</g>
<g >
</g>
<g >
</g>
<g >
</g>
<g >
</g>
<g >
</g>
<g >
</g>
<g >
</g>
<g >
</g>
<g >
</g>
<g >
</g>
<g >
</g>
<g >
</g>
<g >
</g>
<g >
</g>
<g >
</g>
<g >
</g>
<g >
</g>
<g >
</g>
<g >
</g>
<g >
</g>
<g >
</g>
<g >
</g>
<g >
</g>
<g >
</g>
<g >
</g>
<g >
</g>
<g >
</g>
<g >
</g>
<g >
</g>
<g >
</g>
<g >
</g>
<g >
</g>
<g >
</g>
<g >
</g>
<g >
</g>
<g >
</g>
<g >
</g>
<g >
</g>
<g >
</g>
<g >
</g>
<g >
</g>
<g >
</g>
<g >
</g>
<g >
</g>
<g >
</g>
<g >
</g>
<g >
</g>
<g >
</g>
<g >
</g>
<g >
</g>
<g >
</g>
<g >
</g>
<g >
</g>
<g >
</g>
<g >
</g>
<g >
</g>
<g >
</g>
<g >
</g>
<g >
</g>
<g >
</g>
<g >
</g>
<g >
</g>
<g >
</g>
<g >
</g>
</g> 
</svg>
