<?xml version="1.0" standalone="no"?>
 <!DOCTYPE svg PUBLIC "-//W3C//DTD SVG 1.1//EN" 
 "http://www.w3.org/Graphics/SVG/1.1/DTD/svg11.dtd"> 
<svg
  xmlns:svg="http://www.w3.org/2000/svg"
  xmlns="http://www.w3.org/2000/svg"
  xmlns:xlink="http://www.w3.org/1999/xlink"
  version="1.1"
  width="29.700220cm" height="21.000720cm" viewBox="0 0 116930 82680">
<title>SVG Picture created as k34-Edge_Cuts.svg date 2021/10/02 14:19:03 </title>
  <desc>Picture generated by PCBNEW </desc>
<g style="fill:#000000; fill-opacity:1;stroke:#000000; stroke-opacity:1;
stroke-linecap:round; stroke-linejoin:round;"
 transform="translate(0 0) scale(1 1)">
</g>
<g style="fill:#000000; fill-opacity:0.0; 
stroke:#000000; stroke-width:-0.000393701; stroke-opacity:1; 
stroke-linecap:round; stroke-linejoin:round;">
</g>
<g style="fill:#000000; fill-opacity:0.0; 
stroke:#000000; stroke-width:19.685; stroke-opacity:1; 
stroke-linecap:round; stroke-linejoin:round;">
<path d="M73860.7 15391.4 A158.113 158.113 0.0 0 0 73940 15200" />
<path d="M89936.6 12688.3 A158.113 158.113 0.0 0 0 90140 12800" />
<path d="M96140 31900 A111.803 111.803 0.0 0 0 95990 31850" />
<path d="M73540 13100 A316.227 316.227 0.0 0 0 73340 13500" />
<path d="M73860 15391
L67290 17800
" />
<path d="M69140 56100
L63963 49950
" />
<path d="M81151 10779
L81483 11685
" />
<path d="M82789 48399
L75390 51100
" />
<path d="M83240 36550
L80190 40900
" />
<path d="M95990 31850
L83338 36494
" />
<path d="M97240 34950 A111.803 111.803 0.0 0 0 97390 35000" />
<path d="M67090 18199
L67440 19250
" />
<path d="M81483.9 11685.4 A111.803 111.803 0.0 0 0 81640 11750" />
<path d="M97130 10705
L104889 32150
" />
<path d="M82790 48400 A158.113 158.113 0.0 0 0 82890 48200" />
<path d="M63931.5 40950 A291.547 291.547 0.0 0 0 63790 40700" />
<path d="M97130.9 10705.7 A460.977 460.977 0.0 0 0 96640 10500" />
<path d="M63789 40700
L58440 36533
" />
<path d="M63940 49850
L63931 40950
" />
<path d="M83338.6 36494.2 A212.132 212.132 0.0 0 0 83240 36550" />
<path d="M67339 19449
L60240 22000
" />
<path d="M97240 34949
L96139 31900
" />
<path d="M69140 56100 A250 250 0.0 0 0 69490 56150" />
<path d="M104869 32279
L97389 34999
" />
<path d="M96640 10500
L90139 12799
" />
<path d="M88730.9 9605.68 A460.977 460.977 0.0 0 0 88240 9400" />
<path d="M88240 9400
L81639 11749
" />
<path d="M60240 22000
L55000 22000
" />
<path d="M58329 36500
L55040 36500
" />
<path d="M67290 17800 A316.227 316.227 0.0 0 0 67090 18200" />
<path d="M104869 32279.1 A111.803 111.803 0.0 0 0 104890 32150" />
<path d="M80640 10550
L73540 13100
" />
<path d="M58440 36533.6 A200 200 0.0 0 0 58329.1 36500" />
<path d="M81151.2 10779.6 A380.788 380.788 0.0 0 0 80640 10550" />
<path d="M80190 40900 A111.803 111.803 0.0 0 0 80190 41000" />
<path d="M88730 9605
L89936 12688
" />
<path d="M73340 13499
L73940 15200
" />
<path d="M67340 19450 A158.113 158.113 0.0 0 0 67440 19250" />
<path d="M75390 51100
L69489 56150
" />
<path d="M80190 40999
L82889 48200
" />
<path d="M63940 49850 A223.607 223.607 0.0 0 0 63963.6 49950" />
<path d="M27000 48200 A158.113 158.113 0.0 0 0 27100 48400" />
<path d="M40400 56150 A250 250 0.0 0 0 40750 56100" />
<path d="M29700 41000 A111.803 111.803 0.0 0 0 29700 40900" />
<path d="M26650 36550 A212.132 212.132 0.0 0 0 26551.4 36494.2" />
<path d="M13900 31850 A111.803 111.803 0.0 0 0 13750 31900" />
<path d="M12500 35000 A111.803 111.803 0.0 0 0 12650 34950" />
<path d="M5000 32150 A111.803 111.803 0.0 0 0 5020.94 32279.1" />
<path d="M45926.4 49950 A223.607 223.607 0.0 0 0 45950 49850" />
<path d="M51560.9 36500 A200 200 0.0 0 0 51450 36533.6" />
<path d="M46100 40700 A291.547 291.547 0.0 0 0 45958.5 40950" />
<path d="M42450 19250 A158.113 158.113 0.0 0 0 42550 19450" />
<path d="M42800 18199
L42450 19250
" />
<path d="M42800 18200 A316.227 316.227 0.0 0 0 42600 17800" />
<path d="M35950 15200 A158.113 158.113 0.0 0 0 36029.3 15391.4" />
<path d="M36550 13499
L35950 15200
" />
<path d="M36550 13500 A316.227 316.227 0.0 0 0 36350 13100" />
<path d="M28250 11750 A111.803 111.803 0.0 0 0 28406.1 11685.4" />
<path d="M28738 10779
L28406 11685
" />
<path d="M29250 10550 A380.788 380.788 0.0 0 0 28738.8 10779.6" />
<path d="M19750 12800 A158.113 158.113 0.0 0 0 19953.4 12688.3" />
<path d="M21159 9605
L19953 12688
" />
<path d="M21650 9400 A460.977 460.977 0.0 0 0 21159.1 9605.68" />
<path d="M13250 10500 A460.977 460.977 0.0 0 0 12759.1 10705.7" />
<path d="M42550 19449
L49650 22000
" />
<path d="M36029 15391
L42600 17800
" />
<path d="M21650 9400
L28250 11749
" />
<path d="M13250 10500
L19750 12799
" />
<path d="M49650 22000
L55000 22000
" />
<path d="M29250 10550
L36350 13100
" />
<path d="M51560 36500
L55000 36500
" />
<path d="M46100 40700
L51450 36533
" />
<path d="M45950 49850
L45958 40950
" />
<path d="M40750 56100
L45926 49950
" />
<path d="M34500 51100
L40400 56150
" />
<path d="M27100 48399
L34500 51100
" />
<path d="M29699 40999
L27000 48200
" />
<path d="M26650 36550
L29699 40900
" />
<path d="M13899 31850
L26551 36494
" />
<path d="M12649 34949
L13750 31900
" />
<path d="M5020 32279
L12500 34999
" />
<path d="M12759 10705
L5000 32150
" />
<g >
</g>
<g >
</g>
<g >
</g>
<g >
</g>
<g >
</g>
<g >
</g>
<g >
</g>
<g >
</g>
<g >
</g>
<g >
</g>
<g >
</g>
<g >
</g>
<g >
</g>
<g >
</g>
<g >
</g>
<g >
</g>
<g >
</g>
<g >
</g>
<g >
</g>
<g >
</g>
<g >
</g>
<g >
</g>
<g >
</g>
<g >
</g>
<g >
</g>
<g >
</g>
<g >
</g>
<g >
</g>
<g >
</g>
<g >
</g>
<g >
</g>
<g >
</g>
<g >
</g>
<g >
</g>
<g >
</g>
<g >
</g>
<g >
</g>
<g >
</g>
<g >
</g>
<g >
</g>
<g >
</g>
<g >
</g>
<g >
</g>
<g >
</g>
<g >
</g>
<g >
</g>
<g >
</g>
<g >
</g>
<g >
</g>
<g >
</g>
<g >
</g>
<g >
</g>
<g >
</g>
<g >
</g>
<g >
</g>
<g >
</g>
<g >
</g>
<g >
</g>
<g >
</g>
<g >
</g>
<g >
</g>
<g >
</g>
<g >
</g>
<g >
</g>
<g >
</g>
<g >
</g>
<g >
</g>
<g >
</g>
<g >
</g>
<g >
</g>
<g >
</g>
<g >
</g>
<g >
</g>
<g >
</g>
<g >
</g>
<g >
</g>
</g> 
</svg>
