%TF.GenerationSoftware,KiCad,Pcbnew,(5.1.10-1-10_14)*%
%TF.CreationDate,2021-09-30T22:01:03+08:00*%
%TF.ProjectId,k34,6b33342e-6b69-4636-9164-5f7063625858,rev?*%
%TF.SameCoordinates,Original*%
%TF.FileFunction,Profile,NP*%
%FSLAX46Y46*%
G04 Gerber Fmt 4.6, Leading zero omitted, Abs format (unit mm)*
G04 Created by KiCad (PCBNEW (5.1.10-1-10_14)) date 2021-09-30 22:01:03*
%MOMM*%
%LPD*%
G01*
G04 APERTURE LIST*
%TA.AperFunction,Profile*%
%ADD10C,0.050000*%
%TD*%
G04 APERTURE END LIST*
D10*
X125964177Y-44616648D02*
G75*
G02*
X126238000Y-45212000I-234177J-468352D01*
G01*
X107229494Y-97765104D02*
G75*
G02*
X107134805Y-97335198I593506J356104D01*
G01*
X107229494Y-97765104D02*
X118096312Y-113541061D01*
X73152000Y-109728000D02*
X86487000Y-114554000D01*
X77978000Y-96393000D02*
X73152000Y-109728000D01*
X91313000Y-101219000D02*
X77978000Y-96393000D01*
X86487000Y-114554000D02*
X91313000Y-101219000D01*
X112014000Y-116078000D02*
X101219000Y-107061000D01*
X102870000Y-126873000D02*
X112014000Y-116078000D01*
X92202000Y-117729000D02*
X102870000Y-126873000D01*
X101219000Y-107061000D02*
X92202000Y-117729000D01*
X94869000Y-77978000D02*
X108077000Y-82804000D01*
X103251000Y-96139000D02*
X90043000Y-91313000D01*
X108077000Y-82804000D02*
X103251000Y-96139000D01*
X90043000Y-91313000D02*
X94869000Y-77978000D01*
X78359000Y-67691000D02*
X91567000Y-72517000D01*
X86741000Y-85852000D02*
X73533000Y-81026000D01*
X91567000Y-72517000D02*
X86741000Y-85852000D01*
X73533000Y-81026000D02*
X78359000Y-67691000D01*
X62484000Y-55499000D02*
X75692000Y-60325000D01*
X70866000Y-73660000D02*
X57658000Y-68834000D01*
X75692000Y-60325000D02*
X70866000Y-73660000D01*
X57658000Y-68834000D02*
X62484000Y-55499000D01*
X43180000Y-52832000D02*
X56388000Y-57658000D01*
X51562000Y-70993000D02*
X38354000Y-66167000D01*
X56388000Y-57658000D02*
X51562000Y-70993000D01*
X38354000Y-66167000D02*
X43180000Y-52832000D01*
X21844000Y-55753000D02*
X35052000Y-60579000D01*
X30226000Y-73914000D02*
X17018000Y-69088000D01*
X35052000Y-60579000D02*
X30226000Y-73914000D01*
X17018000Y-69088000D02*
X21844000Y-55753000D01*
X28448000Y-37719000D02*
X41656000Y-42545000D01*
X36830000Y-55880000D02*
X23622000Y-51054000D01*
X41656000Y-42545000D02*
X36830000Y-55880000D01*
X23622000Y-51054000D02*
X28448000Y-37719000D01*
X49784000Y-34925000D02*
X62992000Y-39751000D01*
X58166000Y-53086000D02*
X44958000Y-48260000D01*
X62992000Y-39751000D02*
X58166000Y-53086000D01*
X44958000Y-48260000D02*
X49784000Y-34925000D01*
X77343000Y-55753000D02*
X64135000Y-50927000D01*
X82169000Y-42545000D02*
X77343000Y-55753000D01*
X68961000Y-37719000D02*
X82169000Y-42545000D01*
X64135000Y-50927000D02*
X68961000Y-37719000D01*
X93218000Y-67945000D02*
X80010000Y-63119000D01*
X98044000Y-54610000D02*
X93218000Y-67945000D01*
X84836000Y-49784000D02*
X98044000Y-54610000D01*
X80010000Y-63119000D02*
X84836000Y-49784000D01*
X109728000Y-78105000D02*
X96520000Y-73279000D01*
X114554000Y-64897000D02*
X109728000Y-78105000D01*
X101346000Y-60071000D02*
X114554000Y-64897000D01*
X96520000Y-73279000D02*
X101346000Y-60071000D01*
X116332000Y-60325000D02*
X103124000Y-55499000D01*
X121158000Y-47117000D02*
X116332000Y-60325000D01*
X107950000Y-42291000D02*
X121158000Y-47117000D01*
X103124000Y-55499000D02*
X107950000Y-42291000D01*
X99695000Y-50038000D02*
X86487000Y-45212000D01*
X104521000Y-36830000D02*
X99695000Y-50038000D01*
X91313000Y-32004000D02*
X104521000Y-36830000D01*
X86487000Y-45212000D02*
X91313000Y-32004000D01*
X83820000Y-37846000D02*
X70612000Y-33020000D01*
X88646000Y-24638000D02*
X83820000Y-37846000D01*
X75438000Y-19812000D02*
X88646000Y-24638000D01*
X70612000Y-33020000D02*
X75438000Y-19812000D01*
X64643000Y-35052000D02*
X51435000Y-30226000D01*
X69469000Y-21844000D02*
X64643000Y-35052000D01*
X56261000Y-17018000D02*
X69469000Y-21844000D01*
X51435000Y-30226000D02*
X56261000Y-17018000D01*
X43307000Y-37973000D02*
X30099000Y-33147000D01*
X48133000Y-24765000D02*
X43307000Y-37973000D01*
X34925000Y-19939000D02*
X48133000Y-24765000D01*
X30099000Y-33147000D02*
X34925000Y-19939000D01*
X68961001Y-111886999D02*
G75*
G02*
X68707001Y-111379001I126999J380999D01*
G01*
X103632000Y-131445000D02*
G75*
G02*
X102743001Y-131572001I-508000J380999D01*
G01*
X75564998Y-92837000D02*
G75*
G02*
X75564999Y-93090999I-253998J-127000D01*
G01*
X67567682Y-81646273D02*
G75*
G02*
X67818000Y-81788000I-130682J-522727D01*
G01*
X35052001Y-69977001D02*
G75*
G02*
X35432999Y-69850001I253999J-126999D01*
G01*
X32257999Y-77723999D02*
G75*
G02*
X31877001Y-77850999I-253999J126999D01*
G01*
X12880197Y-70939804D02*
G75*
G02*
X12827001Y-70612001I200803J200804D01*
G01*
X118096312Y-113541061D02*
G75*
G02*
X118050039Y-113919000I-554273J-123939D01*
G01*
X108204001Y-38353999D02*
G75*
G02*
X107950001Y-37846001I126999J380999D01*
G01*
X108839000Y-35178998D02*
X107950000Y-37846000D01*
X108331000Y-34163000D02*
G75*
G02*
X108839000Y-35178998I-253999J-761999D01*
G01*
X91641395Y-28045208D02*
G75*
G02*
X91440000Y-27559000I179604J359209D01*
G01*
X92964000Y-23240998D02*
X91440000Y-27559000D01*
X92456000Y-22225000D02*
G75*
G02*
X92964000Y-23240998I-253999J-761999D01*
G01*
X72278406Y-18631802D02*
G75*
G02*
X71882001Y-18795999I-269406J89802D01*
G01*
X73123432Y-16331144D02*
X72278407Y-18631802D01*
X73123431Y-16331144D02*
G75*
G02*
X74421999Y-15748001I917569J-305856D01*
G01*
X50808617Y-21179404D02*
G75*
G02*
X50292001Y-21462999I-389617J97404D01*
G01*
X53871096Y-13349434D02*
X50808617Y-21179404D01*
X53871095Y-13349434D02*
G75*
G02*
X55118000Y-12827000I992906J-620565D01*
G01*
X32535094Y-16143435D02*
G75*
G02*
X33781999Y-15621001I992906J-620565D01*
G01*
X108204001Y-38353999D02*
X125964177Y-44616647D01*
X91641395Y-28045208D02*
X108331000Y-34163000D01*
X55118000Y-12827000D02*
X71882001Y-18795999D01*
X33782000Y-15621000D02*
X50292001Y-21462999D01*
X126238000Y-45212000D02*
X107134805Y-97335198D01*
X74422000Y-15748000D02*
X92456000Y-22225000D01*
X103632000Y-131445000D02*
X118050039Y-113919000D01*
X87757000Y-118745000D02*
X102743001Y-131572001D01*
X68961001Y-111886999D02*
X87757000Y-118745000D01*
X75564999Y-93090999D02*
X68707001Y-111379001D01*
X67818000Y-81788000D02*
X75564999Y-92837000D01*
X35432999Y-69850001D02*
X67567682Y-81646272D01*
X32257999Y-77723999D02*
X35052001Y-69977001D01*
X12880197Y-70939804D02*
X31877001Y-77850999D01*
X32535095Y-16143435D02*
X12827001Y-70612001D01*
M02*
